EncodeSansSemiExpanded-Medium.ufo
<glyph name="exclam" format="2">
  <advance width="559.2121212121212"/>
  <unicode hex="0021"/>
  <outline>
    <contour>
      <point x="213.45454545454544" y="401.0909090909091" type="line"/>
      <point x="347.92424242424244" y="401.0909090909091" type="line"/>
      <point x="394.0" y="931.7575757575758" type="line"/>
      <point x="394.0" y="1480.0" type="line"/>
      <point x="165.21212121212122" y="1480.0" type="line"/>
      <point x="165.21212121212122" y="931.7575757575758" type="line"/>
    </contour>
    <contour>
      <point x="279.6060606060606" y="-13.93939393939394" type="curve" smooth="yes"/>
      <point x="369.3787878787879" y="-13.93939393939394"/>
      <point x="427.09090909090907" y="37.83333333333333"/>
      <point x="427.09090909090907" y="116.60606060606061" type="curve" smooth="yes"/>
      <point x="427.09090909090907" y="195.37878787878788"/>
      <point x="370.95454545454544" y="248.36363636363635"/>
      <point x="279.6060606060606" y="248.36363636363635" type="curve" smooth="yes"/>
      <point x="188.25757575757575" y="248.36363636363635"/>
      <point x="132.12121212121212" y="196.95454545454544"/>
      <point x="132.12121212121212" y="116.60606060606061" type="curve" smooth="yes"/>
      <point x="132.12121212121212" y="36.25757575757576"/>
      <point x="189.83333333333334" y="-13.93939393939394"/>
    </contour>
  </outline>
</glyph>
<glyph name="dollar" format="2">
  <advance width="1166.3030303030303"/>
  <unicode hex="0024"/>
  <outline>
    <contour>
      <point x="509.27272727272725" y="-18.78787878787879" type="curve" smooth="yes"/>
      <point x="877.2727272727273" y="-18.78787878787879"/>
      <point x="1088.7575757575758" y="140.24242424242425"/>
      <point x="1088.7575757575758" y="414.1060606060606" type="curve" smooth="yes"/>
      <point x="1088.7575757575758" y="631.6515151515151"/>
      <point x="960.6212121212121" y="760.3939393939394"/>
      <point x="651.6818181818182" y="828.1515151515151" type="curve" smooth="yes"/>
      <point x="556.7121212121212" y="849.4545454545455" type="line" smooth="yes"/>
      <point x="362.8787878787879" y="893.9393939393939"/>
      <point x="297.66666666666663" y="955.9242424242424"/>
      <point x="297.66666666666663" y="1083.8333333333333" type="curve" smooth="yes"/>
      <point x="297.66666666666663" y="1231.621212121212"/>
      <point x="405.6818181818182" y="1319.530303030303"/>
      <point x="673.1969696969697" y="1319.530303030303" type="curve" smooth="yes"/>
      <point x="787.590909090909" y="1319.530303030303"/>
      <point x="912.0909090909091" y="1302.7424242424242"/>
      <point x="1018.909090909091" y="1270.9848484848485" type="curve"/>
      <point x="1018.909090909091" y="1453.030303030303" type="line"/>
      <point x="917.1969696969697" y="1482.090909090909"/>
      <point x="791.3939393939394" y="1498.7878787878788"/>
      <point x="664.7878787878788" y="1498.7878787878788" type="curve" smooth="yes"/>
      <point x="271.54545454545456" y="1498.7878787878788"/>
      <point x="77.54545454545455" y="1338.530303030303"/>
      <point x="77.54545454545455" y="1073.7272727272727" type="curve" smooth="yes"/>
      <point x="77.54545454545455" y="854.3030303030303"/>
      <point x="206.6818181818182" y="724.4242424242425"/>
      <point x="488.56060606060606" y="662.2575757575758" type="curve" smooth="yes"/>
      <point x="583.530303030303" y="640.9545454545455" type="line" smooth="yes"/>
      <point x="792.8636363636364" y="593.4848484848485"/>
      <point x="868.6363636363636" y="534.1515151515151"/>
      <point x="868.6363636363636" y="401.95454545454544" type="curve" smooth="yes"/>
      <point x="868.6363636363636" y="245.9090909090909"/>
      <point x="762.1212121212121" y="160.46969696969697"/>
      <point x="508.72727272727275" y="160.46969696969697" type="curve" smooth="yes"/>
      <point x="393.71212121212125" y="160.46969696969697"/>
      <point x="238.1969696969697" y="181.12121212121212"/>
      <point x="104.78787878787878" y="224.54545454545456" type="curve"/>
      <point x="104.78787878787878" y="42.5" type="line"/>
      <point x="229.8030303030303" y="2.378787878787879"/>
      <point x="374.1212121212121" y="-18.78787878787879"/>
    </contour>
    <contour>
      <point x="481.43939393939394" y="-240.0" type="line"/>
      <point x="685.6818181818182" y="-240.0" type="line"/>
      <point x="685.6818181818182" y="30.60606060606061" type="line"/>
      <point x="481.43939393939394" y="27.575757575757574" type="line"/>
    </contour>
    <contour>
      <point x="481.43939393939394" y="1456.3636363636363" type="line"/>
      <point x="685.6818181818182" y="1456.3636363636363" type="line"/>
      <point x="685.6818181818182" y="1720.0" type="line"/>
      <point x="481.43939393939394" y="1720.0" type="line"/>
    </contour>
  </outline>
</glyph>
<glyph name="ampersand" format="2">
  <advance width="1618.7878787878788"/>
  <unicode hex="0026"/>
  <outline>
    <contour>
      <point x="1521.9848484848485" y="-20.0" type="line"/>
      <point x="1618.7878787878788" y="139.16666666666669" type="line"/>
      <point x="751.0" y="731.7424242424242" type="line" smooth="yes"/>
      <point x="563.9545454545455" y="868.2272727272727"/>
      <point x="516.3181818181818" y="944.2878787878788"/>
      <point x="516.3181818181818" y="1059.2121212121212" type="curve" smooth="yes"/>
      <point x="516.3181818181818" y="1222.6363636363637"/>
      <point x="616.6212121212121" y="1319.530303030303"/>
      <point x="889.8484848484849" y="1319.530303030303" type="curve" smooth="yes"/>
      <point x="982.9242424242424" y="1319.530303030303"/>
      <point x="1072.8333333333335" y="1308.030303030303"/>
      <point x="1148.378787878788" y="1288.7727272727273" type="curve"/>
      <point x="1148.378787878788" y="1470.8181818181818" type="line"/>
      <point x="1072.0757575757575" y="1487.8636363636363"/>
      <point x="982.8030303030303" y="1498.7878787878788"/>
      <point x="878.1666666666667" y="1498.7878787878788" type="curve" smooth="yes"/>
      <point x="484.1818181818182" y="1498.7878787878788"/>
      <point x="296.1969696969697" y="1336.7878787878788"/>
      <point x="296.1969696969697" y="1065.2121212121212" type="curve" smooth="yes"/>
      <point x="296.1969696969697" y="897.6212121212121"/>
      <point x="372.59090909090907" y="763.6969696969697"/>
      <point x="654.1969696969697" y="572.5757575757576" type="curve" smooth="yes"/>
    </contour>
    <contour>
      <point x="727.2878787878788" y="-18.0" type="curve" smooth="yes"/>
      <point x="1134.621212121212" y="-18.0"/>
      <point x="1369.030303030303" y="179.57575757575756"/>
      <point x="1369.030303030303" y="552.3636363636364" type="curve" smooth="yes"/>
      <point x="1369.030303030303" y="638.0"/>
      <point x="1355.7121212121212" y="731.4545454545455"/>
      <point x="1328.939393939394" y="817.5151515151515" type="curve"/>
      <point x="1149.8181818181818" y="817.5151515151515" type="line"/>
      <point x="1176.8939393939395" y="731.4545454545455"/>
      <point x="1192.9242424242425" y="635.3939393939394"/>
      <point x="1192.9242424242425" y="551.3939393939394" type="curve" smooth="yes"/>
      <point x="1192.9242424242425" y="262.3939393939394"/>
      <point x="1023.1060606060606" y="141.36363636363637"/>
      <point x="749.5757575757576" y="141.36363636363637" type="curve" smooth="yes"/>
      <point x="477.3787878787879" y="141.36363636363637"/>
      <point x="357.25757575757575" y="256.2121212121212"/>
      <point x="357.25757575757575" y="425.5151515151515" type="curve" smooth="yes"/>
      <point x="357.25757575757575" y="554.7272727272727"/>
      <point x="420.6212121212121" y="648.7272727272727"/>
      <point x="547.5757575757575" y="711.6969696969697" type="curve"/>
      <point x="432.1363636363636" y="807.2121212121212" type="line"/>
      <point x="252.78787878787878" y="737.8787878787879"/>
      <point x="137.53030303030303" y="595.3333333333334"/>
      <point x="137.53030303030303" y="402.969696969697" type="curve" smooth="yes"/>
      <point x="137.53030303030303" y="153.45454545454547"/>
      <point x="329.04545454545456" y="-18.0"/>
    </contour>
  </outline>
</glyph>
<glyph name="quotesingle" format="2">
  <advance width="462.1515151515151"/>
  <unicode hex="0027"/>
  <outline>
    <contour>
      <point x="165.77272727272728" y="891.0" type="line"/>
      <point x="296.3787878787879" y="891.0" type="line"/>
      <point x="339.4242424242424" y="1616.0" type="line"/>
      <point x="122.72727272727273" y="1616.0" type="line"/>
    </contour>
  </outline>
</glyph>
<glyph name="parenleft" format="2">
  <advance width="716.4242424242425"/>
  <unicode hex="0028"/>
  <outline>
    <contour>
      <point x="496.6969696969697" y="-440.0" type="curve"/>
      <point x="732.2575757575758" y="-440.0" type="line"/>
      <point x="457.1818181818182" y="-129.95454545454547"/>
      <point x="349.2121212121212" y="202.43939393939394"/>
      <point x="349.2121212121212" y="588.0" type="curve" smooth="yes"/>
      <point x="349.2121212121212" y="973.560606060606"/>
      <point x="457.1818181818182" y="1305.9545454545455"/>
      <point x="732.2575757575758" y="1616.0" type="curve"/>
      <point x="496.6969696969697" y="1616.0" type="line"/>
      <point x="236.13636363636363" y="1331.9545454545455"/>
      <point x="127.71212121212122" y="977.5909090909091"/>
      <point x="127.71212121212122" y="588.0" type="curve" smooth="yes"/>
      <point x="127.71212121212122" y="198.4090909090909"/>
      <point x="236.13636363636363" y="-155.95454545454544"/>
    </contour>
  </outline>
</glyph>
<glyph name="parenright" format="2">
  <advance width="716.4242424242425"/>
  <unicode hex="0029"/>
  <outline>
    <contour>
      <point x="-15.833333333333314" y="-440.0" type="curve"/>
      <point x="219.72727272727272" y="-440.0" type="line"/>
      <point x="480.28787878787875" y="-155.95454545454544"/>
      <point x="588.7121212121212" y="198.4090909090909"/>
      <point x="588.7121212121212" y="588.0" type="curve" smooth="yes"/>
      <point x="588.7121212121212" y="977.5909090909091"/>
      <point x="480.28787878787875" y="1331.9545454545455"/>
      <point x="219.72727272727272" y="1616.0" type="curve"/>
      <point x="-15.833333333333314" y="1616.0" type="line"/>
      <point x="259.24242424242425" y="1305.9545454545455"/>
      <point x="367.2121212121212" y="973.560606060606"/>
      <point x="367.2121212121212" y="588.0" type="curve" smooth="yes"/>
      <point x="367.2121212121212" y="202.43939393939394"/>
      <point x="259.24242424242425" y="-129.95454545454547"/>
    </contour>
  </outline>
</glyph>
<glyph name="asterisk" format="2">
  <advance width="967.5757575757576"/>
  <unicode hex="002A"/>
  <outline>
    <contour>
      <point x="565.3333333333333" y="1166.590909090909" type="line"/>
      <point x="754.0757575757576" y="1201.590909090909" type="line"/>
      <point x="937.5757575757576" y="1260.621212121212" type="line"/>
      <point x="891.3787878787879" y="1401.5757575757575" type="line"/>
      <point x="709.0909090909091" y="1342.3484848484848" type="line"/>
      <point x="531.5" y="1256.469696969697" type="line"/>
      <point x="558.1363636363636" y="1452.0" type="line"/>
      <point x="558.1363636363636" y="1616.0" type="line"/>
      <point x="409.43939393939394" y="1616.0" type="line"/>
      <point x="409.43939393939394" y="1452.0" type="line"/>
      <point x="436.07575757575756" y="1256.469696969697" type="line"/>
      <point x="258.4848484848485" y="1342.3484848484848" type="line"/>
      <point x="76.19696969696969" y="1401.5757575757575" type="line"/>
      <point x="30.0" y="1260.621212121212" type="line"/>
      <point x="213.5" y="1201.590909090909" type="line"/>
      <point x="402.24242424242425" y="1166.590909090909" type="line"/>
      <point x="268.27272727272725" y="1025.560606060606" type="line"/>
      <point x="167.03030303030303" y="886.8939393939394" type="line"/>
      <point x="287.57575757575756" y="799.4545454545455" type="line"/>
      <point x="388.8181818181818" y="937.530303030303" type="line"/>
      <point x="483.7878787878788" y="1117.0454545454545" type="line"/>
      <point x="578.7575757575758" y="937.530303030303" type="line"/>
      <point x="680.0" y="799.4545454545455" type="line"/>
      <point x="800.5454545454545" y="886.8939393939394" type="line"/>
      <point x="699.3030303030303" y="1025.560606060606" type="line"/>
    </contour>
  </outline>
</glyph>
<glyph name="plus" format="2">
  <advance width="1112.969696969697"/>
  <unicode hex="002B"/>
  <outline>
    <contour>
      <point x="467.92424242424244" y="340.1818181818182" type="line"/>
      <point x="645.0454545454545" y="340.1818181818182" type="line"/>
      <point x="645.0454545454545" y="675.6060606060606" type="line"/>
      <point x="963.4242424242424" y="675.6060606060606" type="line"/>
      <point x="963.4242424242424" y="844.3939393939394" type="line"/>
      <point x="645.0454545454545" y="844.3939393939394" type="line"/>
      <point x="645.0454545454545" y="1179.8181818181818" type="line"/>
      <point x="467.92424242424244" y="1179.8181818181818" type="line"/>
      <point x="467.92424242424244" y="844.3939393939394" type="line"/>
      <point x="149.54545454545453" y="844.3939393939394" type="line"/>
      <point x="149.54545454545453" y="675.6060606060606" type="line"/>
      <point x="467.92424242424244" y="675.6060606060606" type="line"/>
    </contour>
  </outline>
</glyph>
<glyph name="comma" format="2">
  <advance width="519.2121212121212"/>
  <unicode hex="002C"/>
  <outline>
    <contour>
      <point x="160.75757575757575" y="-323.6363636363636" type="curve"/>
      <point x="285.5151515151515" y="-323.6363636363636" type="line"/>
      <point x="357.0" y="-210.72727272727272"/>
      <point x="405.9090909090909" y="-65.21212121212122"/>
      <point x="405.9090909090909" y="81.43939393939394" type="curve" smooth="yes"/>
      <point x="405.9090909090909" y="203.28787878787878"/>
      <point x="351.93939393939394" y="261.3636363636364"/>
      <point x="256.030303030303" y="261.3636363636364" type="curve" smooth="yes"/>
      <point x="167.04545454545456" y="261.3636363636364"/>
      <point x="112.12121212121212" y="208.1818181818182"/>
      <point x="112.12121212121212" y="124.31818181818181" type="curve" smooth="yes"/>
      <point x="112.12121212121212" y="39.83333333333333"/>
      <point x="170.22727272727272" y="-13.93939393939394"/>
      <point x="259.6060606060606" y="-13.93939393939394" type="curve" smooth="yes"/>
      <point x="288.1515151515151" y="-13.93939393939394" type="line"/>
      <point x="246.13636363636363" y="27.757575757575758" type="line"/>
      <point x="246.13636363636363" y="-86.84848484848484"/>
      <point x="214.4848484848485" y="-193.87878787878788"/>
    </contour>
  </outline>
</glyph>
<glyph name="hyphen" format="2">
  <advance width="935.4242424242425"/>
  <unicode hex="002D"/>
  <outline>
    <contour>
      <point x="149.54545454545453" y="474.22727272727275" type="line"/>
      <point x="785.8787878787879" y="474.22727272727275" type="line"/>
      <point x="785.8787878787879" y="653.6515151515151" type="line"/>
      <point x="149.54545454545453" y="653.6515151515151" type="line"/>
    </contour>
  </outline>
</glyph>
<glyph name="period" format="2">
  <advance width="519.2121212121212"/>
  <unicode hex="002E"/>
  <outline>
    <contour>
      <point x="259.6060606060606" y="-13.93939393939394" type="curve" smooth="yes"/>
      <point x="349.3787878787879" y="-13.93939393939394"/>
      <point x="407.09090909090907" y="40.196969696969695"/>
      <point x="407.09090909090907" y="123.10606060606061" type="curve" smooth="yes"/>
      <point x="407.09090909090907" y="206.0151515151515"/>
      <point x="350.95454545454544" y="261.3636363636364"/>
      <point x="259.6060606060606" y="261.3636363636364" type="curve" smooth="yes"/>
      <point x="168.25757575757575" y="261.3636363636364"/>
      <point x="112.12121212121212" y="207.59090909090907"/>
      <point x="112.12121212121212" y="123.10606060606061" type="curve" smooth="yes"/>
      <point x="112.12121212121212" y="38.621212121212125"/>
      <point x="169.83333333333334" y="-13.93939393939394"/>
    </contour>
  </outline>
</glyph>
<glyph name="slash" format="2">
  <advance width="729.590909090909"/>
  <unicode hex="002F"/>
  <outline>
    <contour>
      <point x="0.0" y="-240.0" type="line"/>
      <point x="215.63636363636363" y="-240.0" type="line"/>
      <point x="729.590909090909" y="1616.0" type="line"/>
      <point x="513.9545454545455" y="1616.0" type="line"/>
    </contour>
  </outline>
</glyph>
<glyph name="zero" format="2">
  <advance width="1360.348484848485"/>
  <unicode hex="0030"/>
  <note>
600
</note>
  <outline>
    <contour>
      <point x="679.8787878787879" y="-18.78787878787879" type="curve" smooth="yes"/>
      <point x="1022.7575757575758" y="-18.78787878787879"/>
      <point x="1242.6363636363635" y="200.0909090909091"/>
      <point x="1242.6363636363635" y="740.0" type="curve" smooth="yes"/>
      <point x="1242.6363636363635" y="1279.909090909091"/>
      <point x="1025.7878787878788" y="1498.7878787878788"/>
      <point x="679.8787878787879" y="1498.7878787878788" type="curve" smooth="yes"/>
      <point x="333.969696969697" y="1498.7878787878788"/>
      <point x="117.71212121212122" y="1279.909090909091"/>
      <point x="117.71212121212122" y="740.0" type="curve" smooth="yes"/>
      <point x="117.71212121212122" y="200.0909090909091"/>
      <point x="337.0" y="-18.78787878787879"/>
    </contour>
    <contour>
      <point x="680.469696969697" y="164.8030303030303" type="curve" smooth="yes"/>
      <point x="469.3484848484849" y="164.8030303030303"/>
      <point x="335.8636363636364" y="297.78787878787875"/>
      <point x="335.8636363636364" y="742.4242424242424" type="curve" smooth="yes"/>
      <point x="335.8636363636364" y="1182.2121212121212"/>
      <point x="470.530303030303" y="1315.1969696969697"/>
      <point x="680.469696969697" y="1315.1969696969697" type="curve" smooth="yes"/>
      <point x="889.8181818181818" y="1315.1969696969697"/>
      <point x="1024.4848484848485" y="1182.2121212121212"/>
      <point x="1024.4848484848485" y="737.5757575757576" type="curve" smooth="yes"/>
      <point x="1024.4848484848485" y="297.78787878787875"/>
      <point x="889.8181818181818" y="164.8030303030303"/>
    </contour>
  </outline>
</glyph>
<glyph name="one" format="2">
  <advance width="832.5757575757575"/>
  <unicode hex="0031"/>
  <outline>
    <contour>
      <point x="432.0151515151515" y="0.0" type="line"/>
      <point x="652.469696969697" y="0.0" type="line"/>
      <point x="652.469696969697" y="1484.7878787878788" type="line"/>
      <point x="507.6212121212121" y="1484.7878787878788" type="line"/>
      <point x="30.409090909090907" y="1144.090909090909" type="line"/>
      <point x="30.409090909090907" y="931.4545454545455" type="line"/>
      <point x="507.6212121212121" y="1270.3333333333333" type="line"/>
      <point x="432.0151515151515" y="1342.1818181818182" type="line"/>
    </contour>
  </outline>
</glyph>
<glyph name="two" format="2">
  <advance width="1082.7575757575758"/>
  <unicode hex="0032"/>
  <outline>
    <contour>
      <point x="62.484848484848484" y="0.0" type="line"/>
      <point x="1017.6060606060605" y="0.0" type="line"/>
      <point x="1017.6060606060605" y="181.1969696969697" type="line"/>
      <point x="298.969696969697" y="181.1969696969697" type="line"/>
      <point x="308.6515151515151" y="121.93939393939394" type="line"/>
      <point x="694.3333333333334" y="580.8030303030303" type="line" smooth="yes"/>
      <point x="872.6060606060606" y="791.4090909090909"/>
      <point x="933.0454545454545" y="928.0757575757576"/>
      <point x="933.3484848484849" y="1089.5" type="curve" smooth="yes"/>
      <point x="933.9545454545455" y="1370.3333333333333"/>
      <point x="756.1515151515151" y="1498.7878787878788"/>
      <point x="413.4090909090909" y="1498.7878787878788" type="curve" smooth="yes"/>
      <point x="280.5151515151515" y="1498.7878787878788"/>
      <point x="138.16666666666669" y="1474.9242424242425"/>
      <point x="44.59090909090909" y="1440.6818181818182" type="curve"/>
      <point x="44.59090909090909" y="1258.6363636363637" type="line"/>
      <point x="145.6818181818182" y="1296.6818181818182"/>
      <point x="268.6969696969697" y="1319.530303030303"/>
      <point x="396.6666666666667" y="1319.530303030303" type="curve" smooth="yes"/>
      <point x="615.4545454545455" y="1319.530303030303"/>
      <point x="715.030303030303" y="1242.2575757575758"/>
      <point x="715.030303030303" y="1068.378787878788" type="curve" smooth="yes"/>
      <point x="715.030303030303" y="952.3484848484849"/>
      <point x="662.4090909090909" y="841.0"/>
      <point x="512.1969696969697" y="659.5" type="curve" smooth="yes"/>
      <point x="62.484848484848484" y="117.4090909090909" type="line"/>
    </contour>
  </outline>
</glyph>
<glyph name="three" format="2">
  <advance width="1098.9545454545455"/>
  <unicode hex="0033"/>
  <outline>
    <contour>
      <point x="447.0151515151515" y="-18.78787878787879" type="curve" smooth="yes"/>
      <point x="842.6363636363636" y="-18.78787878787879"/>
      <point x="1026.8484848484848" y="142.8181818181818"/>
      <point x="1026.8484848484848" y="407.56060606060606" type="curve" smooth="yes"/>
      <point x="1026.8484848484848" y="619.7575757575758"/>
      <point x="893.4242424242425" y="747.0151515151515"/>
      <point x="657.1060606060606" y="777.0909090909091" type="curve"/>
      <point x="656.8030303030303" y="755.3939393939394" type="line"/>
      <point x="852.030303030303" y="795.9242424242424"/>
      <point x="976.1515151515151" y="925.7878787878788"/>
      <point x="976.1515151515151" y="1113.409090909091" type="curve" smooth="yes"/>
      <point x="976.1515151515151" y="1356.590909090909"/>
      <point x="799.6818181818181" y="1498.7878787878788"/>
      <point x="463.0151515151515" y="1498.7878787878788" type="curve" smooth="yes"/>
      <point x="334.8181818181818" y="1498.7878787878788"/>
      <point x="195.74242424242425" y="1477.9242424242425"/>
      <point x="92.13636363636364" y="1443.409090909091" type="curve"/>
      <point x="92.13636363636364" y="1274.7575757575758" type="line"/>
      <point x="204.1969696969697" y="1312.878787878788"/>
      <point x="328.1212121212121" y="1331.7424242424242"/>
      <point x="443.8939393939394" y="1331.7424242424242" type="curve" smooth="yes"/>
      <point x="657.030303030303" y="1331.7424242424242"/>
      <point x="763.3484848484849" y="1247.1818181818182"/>
      <point x="763.3484848484849" y="1097.6363636363637" type="curve" smooth="yes"/>
      <point x="763.3484848484849" y="931.1363636363636"/>
      <point x="639.2424242424242" y="842.8484848484849"/>
      <point x="379.7121212121212" y="842.8484848484849" type="curve" smooth="yes"/>
      <point x="246.65151515151516" y="842.8484848484849" type="line"/>
      <point x="246.65151515151516" y="674.4242424242424" type="line"/>
      <point x="462.4848484848485" y="674.4242424242424" type="line" smooth="yes"/>
      <point x="712.2424242424242" y="674.4242424242424"/>
      <point x="818.1818181818182" y="581.7878787878788"/>
      <point x="818.1818181818182" y="419.1969696969697" type="curve" smooth="yes"/>
      <point x="818.1818181818182" y="244.89393939393938"/>
      <point x="701.030303030303" y="148.25757575757575"/>
      <point x="439.27272727272725" y="148.25757575757575" type="curve" smooth="yes"/>
      <point x="315.030303030303" y="148.25757575757575"/>
      <point x="176.5151515151515" y="170.04545454545453"/>
      <point x="54.59090909090909" y="207.22727272727272" type="curve"/>
      <point x="54.59090909090909" y="38.57575757575758" type="line"/>
      <point x="172.78787878787878" y="1.8181818181818183"/>
      <point x="309.8787878787879" y="-18.78787878787879"/>
    </contour>
  </outline>
</glyph>
<glyph name="four" format="2">
  <advance width="1280.878787878788"/>
  <unicode hex="0034"/>
  <outline>
    <contour>
      <point x="46.54545454545455" y="336.530303030303" type="line"/>
      <point x="1240.1666666666665" y="336.530303030303" type="line"/>
      <point x="1240.1666666666665" y="511.22727272727275" type="line"/>
      <point x="239.07575757575756" y="511.22727272727275" type="line"/>
      <point x="265.1363636363636" y="455.09090909090907" type="line"/>
      <point x="854.5" y="1480.0" type="line"/>
      <point x="637.2575757575758" y="1480.0" type="line"/>
      <point x="46.54545454545455" y="456.3030303030303" type="line"/>
    </contour>
    <contour>
      <point x="825.3636363636364" y="0.0" type="line"/>
      <point x="1026.5151515151515" y="0.0" type="line"/>
      <point x="1026.5151515151515" y="980.0" type="line"/>
      <point x="849.6060606060606" y="980.0" type="line"/>
      <point x="825.3636363636364" y="511.22727272727275" type="line"/>
    </contour>
  </outline>
</glyph>
<glyph name="five" format="2">
  <advance width="1112.2575757575758"/>
  <unicode hex="0035"/>
  <outline>
    <contour>
      <point x="473.72727272727275" y="-18.78787878787879" type="curve" smooth="yes"/>
      <point x="858.5757575757575" y="-18.78787878787879"/>
      <point x="1052.6666666666667" y="138.87878787878788"/>
      <point x="1053.2575757575758" y="427.8030303030303" type="curve" smooth="yes"/>
      <point x="1053.8484848484848" y="700.030303030303"/>
      <point x="875.6515151515151" y="843.0757575757576"/>
      <point x="412.75757575757575" y="868.6818181818181" type="curve" smooth="yes"/>
      <point x="206.43939393939394" y="879.9848484848485" type="line"/>
      <point x="350.030303030303" y="794.6060606060606" type="line"/>
      <point x="392.57575757575756" y="1399.3939393939395" type="line"/>
      <point x="294.8181818181818" y="1310.2272727272727" type="line"/>
      <point x="991.060606060606" y="1310.2272727272727" type="line"/>
      <point x="991.060606060606" y="1480.0" type="line"/>
      <point x="189.8030303030303" y="1480.0" type="line"/>
      <point x="137.53030303030303" y="714.7121212121212" type="line"/>
      <point x="343.8484848484849" y="703.4090909090909" type="line" smooth="yes"/>
      <point x="729.4242424242424" y="681.3787878787879"/>
      <point x="844.0" y="597.530303030303"/>
      <point x="844.0" y="424.74242424242425" type="curve" smooth="yes"/>
      <point x="844.0" y="243.92424242424244"/>
      <point x="724.1212121212121" y="150.62121212121212"/>
      <point x="466.28787878787875" y="150.62121212121212" type="curve" smooth="yes"/>
      <point x="339.3181818181818" y="150.62121212121212"/>
      <point x="200.8030303030303" y="172.9090909090909"/>
      <point x="81.0" y="209.9848484848485" type="curve"/>
      <point x="81.0" y="41.333333333333336" type="line"/>
      <point x="197.6818181818182" y="4.1060606060606055"/>
      <point x="335.3787878787879" y="-18.78787878787879"/>
    </contour>
  </outline>
</glyph>
<glyph name="six" format="2">
  <advance width="1254.5"/>
  <unicode hex="0036"/>
  <outline>
    <contour>
      <point x="694.030303030303" y="-18.78787878787879" type="curve" smooth="yes"/>
      <point x="993.969696969697" y="-18.78787878787879"/>
      <point x="1189.6060606060605" y="141.1818181818182"/>
      <point x="1189.6060606060605" y="425.56060606060606" type="curve" smooth="yes"/>
      <point x="1189.6060606060605" y="723.7272727272727"/>
      <point x="994.0" y="863.4545454545455"/>
      <point x="700.3030303030303" y="863.4545454545455" type="curve" smooth="yes"/>
      <point x="551.5" y="863.4545454545455"/>
      <point x="394.9848484848485" y="814.9848484848485"/>
      <point x="304.6515151515151" y="735.469696969697" type="curve"/>
      <point x="304.6515151515151" y="573.4545454545455" type="line"/>
      <point x="397.71212121212125" y="662.7424242424242"/>
      <point x="541.6212121212121" y="701.3333333333334"/>
      <point x="661.0454545454545" y="701.3333333333334" type="curve" smooth="yes"/>
      <point x="864.7727272727273" y="701.3333333333334"/>
      <point x="987.0454545454545" y="613.2424242424242"/>
      <point x="987.0454545454545" y="419.7121212121212" type="curve" smooth="yes"/>
      <point x="987.0454545454545" y="229.95454545454544"/>
      <point x="866.8333333333334" y="143.72727272727272"/>
      <point x="694.7272727272727" y="143.72727272727272" type="curve" smooth="yes"/>
      <point x="476.1969696969697" y="143.72727272727272"/>
      <point x="341.57575757575756" y="271.8939393939394"/>
      <point x="341.57575757575756" y="663.2424242424242" type="curve" smooth="yes"/>
      <point x="341.57575757575756" y="747.7272727272727" type="line" smooth="yes"/>
      <point x="341.57575757575756" y="1142.939393939394"/>
      <point x="501.06060606060606" y="1328.590909090909"/>
      <point x="824.6363636363636" y="1328.590909090909" type="curve" smooth="yes"/>
      <point x="919.0757575757575" y="1328.590909090909"/>
      <point x="1027.9242424242425" y="1314.121212121212"/>
      <point x="1116.3181818181818" y="1279.9242424242425" type="curve"/>
      <point x="1116.3181818181818" y="1451.7272727272727" type="line"/>
      <point x="1026.6666666666667" y="1486.3939393939395"/>
      <point x="921.3484848484849" y="1498.7878787878788"/>
      <point x="813.1060606060606" y="1498.7878787878788" type="curve" smooth="yes"/>
      <point x="367.8787878787879" y="1498.7878787878788"/>
      <point x="126.60606060606061" y="1233.3939393939395"/>
      <point x="126.60606060606061" y="690.6363636363636" type="curve" smooth="yes"/>
      <point x="126.60606060606061" y="188.0"/>
      <point x="351.1060606060606" y="-18.78787878787879"/>
    </contour>
  </outline>
</glyph>
<glyph name="seven" format="2">
  <advance width="1026.7575757575758"/>
  <unicode hex="0037"/>
  <outline>
    <contour>
      <point x="183.71212121212122" y="0.0" type="line"/>
      <point x="411.25757575757575" y="0.0" type="line"/>
      <point x="967.439393939394" y="1362.590909090909" type="line"/>
      <point x="967.439393939394" y="1480.0" type="line"/>
      <point x="13.015151515151516" y="1480.0" type="line"/>
      <point x="13.015151515151516" y="1298.8030303030303" type="line"/>
      <point x="822.3787878787879" y="1298.8030303030303" type="line"/>
      <point x="754.6969696969697" y="1363.8030303030303" type="line"/>
    </contour>
  </outline>
</glyph>
<glyph name="eight" format="2">
  <advance width="1360.348484848485"/>
  <unicode hex="0038"/>
  <outline>
    <contour>
      <point x="687.030303030303" y="-18.78787878787879" type="curve" smooth="yes"/>
      <point x="1065.8030303030303" y="-18.78787878787879"/>
      <point x="1256.1060606060605" y="152.0909090909091"/>
      <point x="1256.1060606060605" y="393.3636363636364" type="curve" smooth="yes"/>
      <point x="1256.1060606060605" y="605.2272727272727"/>
      <point x="1127.4848484848485" y="736.5909090909091"/>
      <point x="755.469696969697" y="819.0757575757576" type="curve" smooth="yes"/>
      <point x="444.72727272727275" y="886.3030303030303"/>
      <point x="361.530303030303" y="964.469696969697"/>
      <point x="361.530303030303" y="1110.5454545454545" type="curve" smooth="yes"/>
      <point x="361.530303030303" y="1249.7272727272727"/>
      <point x="465.07575757575756" y="1341.590909090909"/>
      <point x="685.2878787878788" y="1341.590909090909" type="curve" smooth="yes"/>
      <point x="896.030303030303" y="1341.590909090909"/>
      <point x="1012.5454545454545" y="1258.3333333333333"/>
      <point x="1012.5454545454545" y="1104.7878787878788" type="curve" smooth="yes"/>
      <point x="1012.5454545454545" y="966.0757575757576"/>
      <point x="937.5757575757575" y="874.1363636363636"/>
      <point x="755.2575757575758" y="799.3333333333334" type="curve"/>
      <point x="897.1060606060606" y="739.8484848484849" type="line"/>
      <point x="1110.469696969697" y="815.7121212121212"/>
      <point x="1207.0" y="951.0"/>
      <point x="1207.0" y="1125.7878787878788" type="curve" smooth="yes"/>
      <point x="1207.0" y="1358.1818181818182"/>
      <point x="1017.5151515151515" y="1498.7878787878788"/>
      <point x="689.939393939394" y="1498.7878787878788" type="curve" smooth="yes"/>
      <point x="337.3636363636364" y="1498.7878787878788"/>
      <point x="150.86363636363637" y="1341.439393939394"/>
      <point x="150.86363636363637" y="1102.2424242424242" type="curve" smooth="yes"/>
      <point x="150.86363636363637" y="885.6969696969697"/>
      <point x="283.1212121212121" y="740.1515151515151"/>
      <point x="658.2878787878788" y="660.9848484848485" type="curve" smooth="yes"/>
      <point x="954.469696969697" y="598.4848484848485"/>
      <point x="1047.8030303030303" y="525.8181818181819"/>
      <point x="1047.8030303030303" y="380.0" type="curve" smooth="yes"/>
      <point x="1047.8030303030303" y="225.9090909090909"/>
      <point x="927.7575757575758" y="138.4090909090909"/>
      <point x="688.530303030303" y="138.4090909090909" type="curve" smooth="yes"/>
      <point x="437.07575757575756" y="138.4090909090909"/>
      <point x="310.8484848484849" y="229.27272727272725"/>
      <point x="310.8484848484849" y="395.530303030303" type="curve" smooth="yes"/>
      <point x="310.8484848484849" y="533.469696969697"/>
      <point x="401.93939393939394" y="652.1060606060606"/>
      <point x="592.939393939394" y="706.060606060606" type="curve"/>
      <point x="435.92424242424244" y="764.3787878787879" type="line"/>
      <point x="224.5151515151515" y="699.5454545454545"/>
      <point x="102.27272727272728" y="560.4848484848485"/>
      <point x="102.27272727272728" y="370.27272727272725" type="curve" smooth="yes"/>
      <point x="102.27272727272728" y="130.72727272727272"/>
      <point x="290.3030303030303" y="-18.78787878787879"/>
    </contour>
  </outline>
</glyph>
<glyph name="nine" format="2">
  <advance width="1254.5"/>
  <unicode hex="0039"/>
  <outline>
    <contour>
      <point x="560.469696969697" y="1498.7878787878788" type="curve" smooth="yes"/>
      <point x="260.530303030303" y="1498.7878787878788"/>
      <point x="64.89393939393939" y="1338.8181818181818"/>
      <point x="64.89393939393939" y="1054.439393939394" type="curve" smooth="yes"/>
      <point x="64.89393939393939" y="756.2727272727273"/>
      <point x="260.5" y="616.5454545454545"/>
      <point x="554.1969696969697" y="616.5454545454545" type="curve" smooth="yes"/>
      <point x="703.0" y="616.5454545454545"/>
      <point x="859.5151515151515" y="665.0151515151515"/>
      <point x="949.8484848484849" y="744.530303030303" type="curve"/>
      <point x="949.8484848484849" y="906.5454545454545" type="line"/>
      <point x="856.7878787878788" y="817.2575757575758"/>
      <point x="712.8787878787879" y="778.6666666666666"/>
      <point x="593.4545454545455" y="778.6666666666666" type="curve" smooth="yes"/>
      <point x="389.72727272727275" y="778.6666666666666"/>
      <point x="267.45454545454544" y="866.7575757575758"/>
      <point x="267.45454545454544" y="1060.2878787878788" type="curve" smooth="yes"/>
      <point x="267.45454545454544" y="1250.0454545454545"/>
      <point x="387.66666666666663" y="1336.2727272727273"/>
      <point x="559.7727272727273" y="1336.2727272727273" type="curve" smooth="yes"/>
      <point x="778.3030303030303" y="1336.2727272727273"/>
      <point x="912.9242424242424" y="1208.1060606060605"/>
      <point x="912.9242424242424" y="816.7575757575758" type="curve" smooth="yes"/>
      <point x="912.9242424242424" y="732.2727272727273" type="line" smooth="yes"/>
      <point x="912.9242424242424" y="337.06060606060606"/>
      <point x="753.439393939394" y="151.4090909090909"/>
      <point x="429.8636363636364" y="151.4090909090909" type="curve" smooth="yes"/>
      <point x="335.42424242424244" y="151.4090909090909"/>
      <point x="226.57575757575756" y="165.87878787878788"/>
      <point x="138.1818181818182" y="200.07575757575756" type="curve"/>
      <point x="138.1818181818182" y="28.272727272727273" type="line"/>
      <point x="227.83333333333331" y="-6.3939393939393945"/>
      <point x="333.1515151515151" y="-18.78787878787879"/>
      <point x="441.3939393939394" y="-18.78787878787879" type="curve" smooth="yes"/>
      <point x="886.6212121212121" y="-18.78787878787879"/>
      <point x="1127.8939393939395" y="246.60606060606062"/>
      <point x="1127.8939393939395" y="789.3636363636364" type="curve" smooth="yes"/>
      <point x="1127.8939393939395" y="1292.0"/>
      <point x="903.3939393939394" y="1498.7878787878788"/>
    </contour>
  </outline>
</glyph>
<glyph name="colon" format="2">
  <advance width="519.2121212121212"/>
  <unicode hex="003A"/>
  <outline>
    <contour>
      <point x="259.6060606060606" y="-13.93939393939394" type="curve" smooth="yes"/>
      <point x="349.3787878787879" y="-13.93939393939394"/>
      <point x="407.09090909090907" y="40.196969696969695"/>
      <point x="407.09090909090907" y="123.10606060606061" type="curve" smooth="yes"/>
      <point x="407.09090909090907" y="206.0151515151515"/>
      <point x="350.95454545454544" y="261.3636363636364"/>
      <point x="259.6060606060606" y="261.3636363636364" type="curve" smooth="yes"/>
      <point x="168.25757575757575" y="261.3636363636364"/>
      <point x="112.12121212121212" y="207.59090909090907"/>
      <point x="112.12121212121212" y="123.10606060606061" type="curve" smooth="yes"/>
      <point x="112.12121212121212" y="38.621212121212125"/>
      <point x="169.83333333333334" y="-13.93939393939394"/>
    </contour>
    <contour>
      <point x="259.6060606060606" y="826.5151515151515" type="curve" smooth="yes"/>
      <point x="349.3787878787879" y="826.5151515151515"/>
      <point x="407.09090909090907" y="880.6515151515151"/>
      <point x="407.09090909090907" y="963.5606060606061" type="curve" smooth="yes"/>
      <point x="407.09090909090907" y="1046.469696969697"/>
      <point x="350.95454545454544" y="1101.8181818181818"/>
      <point x="259.6060606060606" y="1101.8181818181818" type="curve" smooth="yes"/>
      <point x="168.25757575757575" y="1101.8181818181818"/>
      <point x="112.12121212121212" y="1048.0454545454545"/>
      <point x="112.12121212121212" y="963.5606060606061" type="curve" smooth="yes"/>
      <point x="112.12121212121212" y="879.0757575757576"/>
      <point x="169.83333333333334" y="826.5151515151515"/>
    </contour>
  </outline>
</glyph>
<glyph name="semicolon" format="2">
  <advance width="519.2121212121212"/>
  <unicode hex="003B"/>
  <outline>
    <contour>
      <point x="160.75757575757575" y="-323.6363636363636" type="curve"/>
      <point x="285.5151515151515" y="-323.6363636363636" type="line"/>
      <point x="357.0" y="-210.72727272727272"/>
      <point x="405.9090909090909" y="-65.21212121212122"/>
      <point x="405.9090909090909" y="81.43939393939394" type="curve" smooth="yes"/>
      <point x="405.9090909090909" y="203.28787878787878"/>
      <point x="351.93939393939394" y="261.3636363636364"/>
      <point x="256.030303030303" y="261.3636363636364" type="curve" smooth="yes"/>
      <point x="167.04545454545456" y="261.3636363636364"/>
      <point x="112.12121212121212" y="208.1818181818182"/>
      <point x="112.12121212121212" y="124.31818181818181" type="curve" smooth="yes"/>
      <point x="112.12121212121212" y="39.83333333333333"/>
      <point x="170.22727272727272" y="-13.93939393939394"/>
      <point x="259.6060606060606" y="-13.93939393939394" type="curve" smooth="yes"/>
      <point x="288.1515151515151" y="-13.93939393939394" type="line"/>
      <point x="246.13636363636363" y="27.757575757575758" type="line"/>
      <point x="246.13636363636363" y="-86.84848484848484"/>
      <point x="214.4848484848485" y="-193.87878787878788"/>
    </contour>
    <contour>
      <point x="259.6060606060606" y="826.5151515151515" type="curve" smooth="yes"/>
      <point x="349.3787878787879" y="826.5151515151515"/>
      <point x="407.09090909090907" y="880.6515151515151"/>
      <point x="407.09090909090907" y="963.5606060606061" type="curve" smooth="yes"/>
      <point x="407.09090909090907" y="1046.469696969697"/>
      <point x="350.95454545454544" y="1101.8181818181818"/>
      <point x="259.6060606060606" y="1101.8181818181818" type="curve" smooth="yes"/>
      <point x="168.25757575757575" y="1101.8181818181818"/>
      <point x="112.12121212121212" y="1048.0454545454545"/>
      <point x="112.12121212121212" y="963.5606060606061" type="curve" smooth="yes"/>
      <point x="112.12121212121212" y="879.0757575757576"/>
      <point x="169.83333333333334" y="826.5151515151515"/>
    </contour>
  </outline>
</glyph>
<glyph name="less" format="2">
  <advance width="1112.969696969697"/>
  <unicode hex="003C"/>
  <outline>
    <contour>
      <point x="963.4242424242424" y="333.9090909090909" type="line"/>
      <point x="963.4242424242424" y="507.54545454545456" type="line"/>
      <point x="279.92424242424244" y="778.5" type="line"/>
      <point x="279.92424242424244" y="744.4545454545455" type="line"/>
      <point x="963.4242424242424" y="1012.4545454545455" type="line"/>
      <point x="963.4242424242424" y="1186.090909090909" type="line"/>
      <point x="149.54545454545453" y="858.0909090909091" type="line"/>
      <point x="149.54545454545453" y="661.9090909090909" type="line"/>
    </contour>
  </outline>
</glyph>
<glyph name="equal" format="2">
  <advance width="1112.969696969697"/>
  <unicode hex="003D"/>
  <outline>
    <contour>
      <point x="149.54545454545453" y="882.4242424242424" type="line"/>
      <point x="963.4242424242424" y="882.4242424242424" type="line"/>
      <point x="963.4242424242424" y="1051.2121212121212" type="line"/>
      <point x="149.54545454545453" y="1051.2121212121212" type="line"/>
    </contour>
    <contour>
      <point x="149.54545454545453" y="468.7878787878788" type="line"/>
      <point x="963.4242424242424" y="468.7878787878788" type="line"/>
      <point x="963.4242424242424" y="637.5757575757576" type="line"/>
      <point x="149.54545454545453" y="637.5757575757576" type="line"/>
    </contour>
  </outline>
</glyph>
<glyph name="greater" format="2">
  <advance width="1112.969696969697"/>
  <unicode hex="003E"/>
  <outline>
    <contour>
      <point x="149.54545454545453" y="333.9090909090909" type="line"/>
      <point x="963.4242424242424" y="661.9090909090909" type="line"/>
      <point x="963.4242424242424" y="858.0909090909091" type="line"/>
      <point x="149.54545454545453" y="1186.090909090909" type="line"/>
      <point x="149.54545454545453" y="1012.4545454545455" type="line"/>
      <point x="833.0454545454545" y="744.4545454545455" type="line"/>
      <point x="833.0454545454545" y="778.5" type="line"/>
      <point x="149.54545454545453" y="507.54545454545456" type="line"/>
    </contour>
  </outline>
</glyph>
<glyph name="question" format="2">
  <advance width="985.969696969697"/>
  <unicode hex="003F"/>
  <outline>
    <contour>
      <point x="381.4848484848485" y="391.3939393939394" type="line"/>
      <point x="515.9545454545455" y="391.3939393939394" type="line"/>
      <point x="533.2424242424242" y="674.9848484848485" type="line"/>
      <point x="806.0757575757576" y="766.2121212121212"/>
      <point x="925.2878787878788" y="893.8787878787879"/>
      <point x="925.2878787878788" y="1110.4545454545455" type="curve" smooth="yes"/>
      <point x="925.2878787878788" y="1356.590909090909"/>
      <point x="748.8181818181818" y="1498.7878787878788"/>
      <point x="412.1515151515151" y="1498.7878787878788" type="curve" smooth="yes"/>
      <point x="283.95454545454544" y="1498.7878787878788"/>
      <point x="144.87878787878788" y="1477.9242424242425"/>
      <point x="41.27272727272727" y="1443.409090909091" type="curve"/>
      <point x="41.27272727272727" y="1268.8484848484848" type="line"/>
      <point x="153.33333333333334" y="1306.969696969697"/>
      <point x="276.07575757575756" y="1325.8333333333333"/>
      <point x="391.54545454545456" y="1325.8333333333333" type="curve" smooth="yes"/>
      <point x="606.1666666666666" y="1325.8333333333333"/>
      <point x="712.4848484848485" y="1243.0454545454545"/>
      <point x="712.4848484848485" y="1096.4545454545455" type="curve" smooth="yes"/>
      <point x="712.4848484848485" y="950.2121212121212"/>
      <point x="626.8181818181819" y="858.4242424242424"/>
      <point x="344.07575757575756" y="785.5" type="curve"/>
    </contour>
    <contour>
      <point x="449.0151515151515" y="-13.93939393939394" type="curve" smooth="yes"/>
      <point x="540.0" y="-13.93939393939394"/>
      <point x="596.5" y="39.04545454545455"/>
      <point x="596.5" y="116.60606060606061" type="curve" smooth="yes"/>
      <point x="596.5" y="195.37878787878788"/>
      <point x="540.3636363636364" y="248.36363636363635"/>
      <point x="449.0151515151515" y="248.36363636363635" type="curve" smooth="yes"/>
      <point x="357.6666666666667" y="248.36363636363635"/>
      <point x="301.53030303030306" y="196.95454545454544"/>
      <point x="301.53030303030306" y="116.60606060606061" type="curve" smooth="yes"/>
      <point x="301.53030303030306" y="37.46969696969697"/>
      <point x="359.24242424242425" y="-13.93939393939394"/>
    </contour>
  </outline>
</glyph>
<glyph name="at" format="2">
  <advance width="2095.4545454545455"/>
  <unicode hex="0040"/>
  <outline>
    <contour>
      <point x="1097.3939393939395" y="-460.0" type="curve" smooth="yes"/>
      <point x="1250.3333333333333" y="-460.0"/>
      <point x="1402.3181818181818" y="-440.1818181818182"/>
      <point x="1539.878787878788" y="-404.7878787878788" type="curve"/>
      <point x="1539.878787878788" y="-256.8181818181818" type="line"/>
      <point x="1388.5" y="-294.93939393939394"/>
      <point x="1248.2121212121212" y="-313.24242424242425"/>
      <point x="1097.3939393939395" y="-313.24242424242425" type="curve" smooth="yes"/>
      <point x="539.969696969697" y="-313.24242424242425"/>
      <point x="276.22727272727275" y="-66.99999999999999"/>
      <point x="276.22727272727275" y="522.4242424242424" type="curve" smooth="yes"/>
      <point x="276.22727272727275" y="1102.1515151515152"/>
      <point x="538.1515151515151" y="1351.2424242424242"/>
      <point x="1054.560606060606" y="1351.2424242424242" type="curve" smooth="yes"/>
      <point x="1570.6515151515152" y="1351.2424242424242"/>
      <point x="1829.1363636363635" y="1108.939393939394"/>
      <point x="1831.1060606060605" y="564.2424242424242" type="curve" smooth="yes"/>
      <point x="1832.4848484848485" y="231.8181818181818"/>
      <point x="1738.1212121212122" y="126.0"/>
      <point x="1626.2121212121212" y="126.0" type="curve" smooth="yes"/>
      <point x="1545.030303030303" y="126.0"/>
      <point x="1501.030303030303" y="167.030303030303"/>
      <point x="1501.030303030303" y="278.54545454545456" type="curve" smooth="yes"/>
      <point x="1501.030303030303" y="682.8333333333334" type="line" smooth="yes"/>
      <point x="1501.030303030303" y="994.2727272727273"/>
      <point x="1346.4242424242425" y="1096.7878787878788"/>
      <point x="1037.3939393939395" y="1096.7878787878788" type="curve" smooth="yes"/>
      <point x="926.1818181818182" y="1096.7878787878788"/>
      <point x="797.439393939394" y="1077.909090909091"/>
      <point x="695.7424242424242" y="1042.3333333333333" type="curve"/>
      <point x="695.3484848484849" y="876.0454545454545" type="line"/>
      <point x="800.8333333333334" y="913.1818181818182"/>
      <point x="917.4545454545455" y="929.7424242424242"/>
      <point x="1005.6969696969697" y="929.7424242424242" type="curve" smooth="yes"/>
      <point x="1196.8939393939395" y="929.7424242424242"/>
      <point x="1288.8484848484848" y="876.469696969697"/>
      <point x="1288.8484848484848" y="689.9090909090909" type="curve" smooth="yes"/>
      <point x="1288.8484848484848" y="250.9090909090909" type="line"/>
      <point x="1217.939393939394" y="172.9090909090909"/>
      <point x="1113.560606060606" y="137.84848484848484"/>
      <point x="1023.8484848484849" y="137.84848484848484" type="curve" smooth="yes"/>
      <point x="895.3484848484848" y="137.84848484848484"/>
      <point x="823.6818181818182" y="194.9090909090909"/>
      <point x="823.6818181818182" y="304.6060606060606" type="curve" smooth="yes"/>
      <point x="823.6818181818182" y="411.93939393939394"/>
      <point x="891.6515151515152" y="465.8333333333333"/>
      <point x="1047.4242424242425" y="482.8484848484849" type="curve" smooth="yes"/>
      <point x="1354.681818181818" y="515.3484848484849" type="line"/>
      <point x="1339.590909090909" y="642.0151515151515" type="line"/>
      <point x="1031.1818181818182" y="609.5151515151515" type="line" smooth="yes"/>
      <point x="735.3030303030303" y="582.560606060606"/>
      <point x="606.6818181818182" y="477.0151515151515"/>
      <point x="606.6818181818182" y="284.43939393939394" type="curve" smooth="yes"/>
      <point x="606.6818181818182" y="98.13636363636364"/>
      <point x="737.0" y="-18.363636363636363"/>
      <point x="964.0454545454545" y="-18.363636363636363" type="curve" smooth="yes"/>
      <point x="1100.0454545454545" y="-18.363636363636363"/>
      <point x="1227.530303030303" y="30.96969696969697"/>
      <point x="1293.2727272727273" y="129.57575757575756" type="curve"/>
      <point x="1307.8939393939395" y="129.57575757575756" type="line"/>
      <point x="1351.2575757575758" y="35.39393939393939"/>
      <point x="1441.3939393939395" y="-18.363636363636363"/>
      <point x="1580.651515151515" y="-18.363636363636363" type="curve" smooth="yes"/>
      <point x="1815.4545454545455" y="-18.363636363636363"/>
      <point x="1986.8333333333335" y="145.45454545454547"/>
      <point x="1987.7424242424242" y="571.030303030303" type="curve" smooth="yes"/>
      <point x="1988.651515151515" y="1185.2121212121212"/>
      <point x="1658.060606060606" y="1498.0"/>
      <point x="1054.560606060606" y="1498.0" type="curve" smooth="yes"/>
      <point x="452.25757575757575" y="1498.0"/>
      <point x="107.71212121212122" y="1185.2121212121212"/>
      <point x="107.71212121212122" y="520.0" type="curve" smooth="yes"/>
      <point x="107.71212121212122" y="-148.24242424242425"/>
      <point x="453.77272727272725" y="-459.09090909090907"/>
    </contour>
  </outline>
</glyph>
<glyph name="B" format="2">
  <advance width="1347.151515151515"/>
  <unicode hex="0042"/>
  <anchor x="691.6212121212121" y="0.0" name="bottom"/>
  <anchor x="691.6212121212121" y="1480.0" name="top"/>
  <outline>
    <contour>
      <point x="574.530303030303" y="-13.93939393939394" type="curve" smooth="yes"/>
      <point x="1089.969696969697" y="-13.93939393939394"/>
      <point x="1275.3030303030303" y="137.9848484848485"/>
      <point x="1275.3030303030303" y="409.1212121212121" type="curve" smooth="yes"/>
      <point x="1275.3030303030303" y="612.2727272727273"/>
      <point x="1160.0151515151515" y="742.8181818181819"/>
      <point x="937.5909090909091" y="769.5151515151515" type="curve"/>
      <point x="934.8636363636364" y="755.3939393939394" type="line"/>
      <point x="1137.6666666666667" y="788.0909090909091"/>
      <point x="1233.5757575757575" y="921.5909090909091"/>
      <point x="1233.5757575757575" y="1094.2121212121212" type="curve" smooth="yes"/>
      <point x="1233.5757575757575" y="1360.590909090909"/>
      <point x="1054.2272727272727" y="1496.3636363636363"/>
      <point x="625.469696969697" y="1496.3636363636363" type="curve" smooth="yes"/>
      <point x="460.25757575757575" y="1496.3636363636363"/>
      <point x="306.8484848484849" y="1478.2575757575758"/>
      <point x="170.1060606060606" y="1448.9242424242425" type="curve"/>
      <point x="170.1060606060606" y="12.803030303030305" type="line"/>
      <point x="307.1363636363636" y="-5.090909090909091"/>
      <point x="447.56060606060606" y="-13.93939393939394"/>
    </contour>
    <contour>
      <point x="625.7727272727273" y="150.15151515151513" type="curve" smooth="yes"/>
      <point x="536.6666666666666" y="150.15151515151513"/>
      <point x="465.21212121212125" y="153.37878787878788"/>
      <point x="386.030303030303" y="164.030303030303" type="curve"/>
      <point x="386.030303030303" y="1310.3181818181818" type="line"/>
      <point x="459.969696969697" y="1324.060606060606"/>
      <point x="539.8939393939394" y="1332.2727272727273"/>
      <point x="648.2272727272727" y="1332.2727272727273" type="curve" smooth="yes"/>
      <point x="921.1212121212121" y="1332.2727272727273"/>
      <point x="1025.2272727272727" y="1259.6818181818182"/>
      <point x="1025.2272727272727" y="1085.5454545454545" type="curve" smooth="yes"/>
      <point x="1025.2272727272727" y="920.0757575757576"/>
      <point x="924.030303030303" y="842.060606060606"/>
      <point x="681.7575757575758" y="842.060606060606" type="curve" smooth="yes"/>
      <point x="357.8181818181818" y="842.060606060606" type="line"/>
      <point x="357.8181818181818" y="675.0151515151515" type="line"/>
      <point x="708.560606060606" y="675.0151515151515" type="line" smooth="yes"/>
      <point x="960.4242424242424" y="675.0151515151515"/>
      <point x="1070.1818181818182" y="594.7727272727273"/>
      <point x="1070.1818181818182" y="416.8333333333333" type="curve" smooth="yes"/>
      <point x="1070.1818181818182" y="239.43939393939394"/>
      <point x="966.6363636363636" y="150.15151515151513"/>
    </contour>
  </outline>
</glyph>
<glyph name="F" format="2">
  <advance width="1241.4848484848485"/>
  <unicode hex="0046"/>
  <outline>
    <contour>
      <point x="170.1060606060606" y="0.0" type="line"/>
      <point x="390.56060606060606" y="0.0" type="line"/>
      <point x="390.56060606060606" y="1300.3484848484848" type="line"/>
      <point x="1179.2272727272727" y="1300.3484848484848" type="line"/>
      <point x="1179.2272727272727" y="1480.0" type="line"/>
      <point x="170.1060606060606" y="1480.0" type="line"/>
    </contour>
    <contour>
      <point x="310.6666666666667" y="649.6060606060606" type="line"/>
      <point x="1077.3939393939395" y="649.6060606060606" type="line"/>
      <point x="1077.3939393939395" y="829.2575757575758" type="line"/>
      <point x="310.6666666666667" y="829.2575757575758" type="line"/>
    </contour>
  </outline>
</glyph>
<glyph name="H" format="2">
  <advance width="1565.7878787878788"/>
  <unicode hex="0048"/>
  <anchor x="783.2878787878788" y="0.0" name="bottom"/>
  <anchor x="783.2878787878788" y="1170.1363636363637" name="center"/>
  <anchor x="783.2878787878788" y="1520.0" name="top"/>
  <anchor x="42.121212121212125" y="1480.0" name="topleft"/>
  <outline>
    <contour>
      <point x="170.1060606060606" y="0.0" type="line"/>
      <point x="390.56060606060606" y="0.0" type="line"/>
      <point x="390.56060606060606" y="661.6212121212121" type="line"/>
      <point x="1175.2272727272727" y="661.6212121212121" type="line"/>
      <point x="1175.2272727272727" y="0.0" type="line"/>
      <point x="1395.6818181818182" y="0.0" type="line"/>
      <point x="1395.6818181818182" y="1480.0" type="line"/>
      <point x="1175.2272727272727" y="1480.0" type="line"/>
      <point x="1175.2272727272727" y="855.6515151515151" type="line"/>
      <point x="390.56060606060606" y="855.6515151515151" type="line"/>
      <point x="390.56060606060606" y="1480.0" type="line"/>
      <point x="170.1060606060606" y="1480.0" type="line"/>
    </contour>
  </outline>
</glyph>
<glyph name="I" format="2">
  <advance width="560.6666666666666"/>
  <unicode hex="0049"/>
  <anchor x="279.74242424242425" y="0.0" name="bottom"/>
  <anchor x="390.56060606060606" y="0.0" name="ogonek"/>
  <anchor x="280.3333333333333" y="1520.0" name="top"/>
  <outline>
    <contour>
      <point x="170.1060606060606" y="0.0" type="line"/>
      <point x="390.56060606060606" y="0.0" type="line"/>
      <point x="390.56060606060606" y="1480.0" type="line"/>
      <point x="170.1060606060606" y="1480.0" type="line"/>
    </contour>
  </outline>
</glyph>
<glyph name="J" format="2">
  <advance width="560.6666666666666"/>
  <unicode hex="004A"/>
  <anchor x="425.71212121212125" y="0.0" name="bottom"/>
  <anchor x="280.92424242424244" y="1520.0" name="top"/>
  <outline>
    <contour>
      <point x="133.3181818181818" y="-346.3030303030303" type="line"/>
      <point x="317.92424242424244" y="-142.24242424242425"/>
      <point x="382.9848484848485" y="40.515151515151516"/>
      <point x="390.56060606060606" y="278.09090909090907" type="curve"/>
      <point x="390.56060606060606" y="1480.0" type="line"/>
      <point x="171.28787878787878" y="1480.0" type="line"/>
      <point x="171.28787878787878" y="292.6969696969697" type="line" smooth="yes"/>
      <point x="171.28787878787878" y="69.12121212121212"/>
      <point x="120.12121212121212" y="-87.18181818181819"/>
      <point x="-7.5606060606060606" y="-250.33333333333334" type="curve"/>
    </contour>
  </outline>
</glyph>
<glyph name="K" format="2">
  <advance width="1339.0"/>
  <unicode hex="004B"/>
  <anchor x="696.2272727272727" y="0.0" name="bottom"/>
  <anchor x="693.2727272727273" y="1480.0" name="top"/>
  <outline>
    <contour>
      <point x="1112.7878787878788" y="0.0" type="line"/>
      <point x="1358.8333333333335" y="0.0" type="line"/>
      <point x="757.1666666666667" y="789.3636363636364" type="line"/>
      <point x="753.2272727272727" y="731.4848484848485" type="line"/>
      <point x="1315.060606060606" y="1480.0" type="line"/>
      <point x="1076.7272727272727" y="1480.0" type="line"/>
      <point x="533.560606060606" y="756.030303030303" type="line"/>
    </contour>
    <contour>
      <point x="170.1060606060606" y="0.0" type="line"/>
      <point x="390.56060606060606" y="0.0" type="line"/>
      <point x="390.56060606060606" y="1480.0" type="line"/>
      <point x="170.1060606060606" y="1480.0" type="line"/>
    </contour>
    <contour>
      <point x="356.83333333333337" y="661.6212121212121" type="line"/>
      <point x="630.560606060606" y="661.6212121212121" type="line"/>
      <point x="630.560606060606" y="855.3484848484849" type="line"/>
      <point x="356.83333333333337" y="855.3484848484849" type="line"/>
    </contour>
  </outline>
</glyph>
<glyph name="M" format="2">
  <advance width="1892.6666666666665"/>
  <unicode hex="004D"/>
  <anchor x="958.3484848484849" y="0.0" name="bottom"/>
  <anchor x="958.3484848484849" y="1480.0" name="top"/>
  <outline>
    <contour>
      <point x="174.1060606060606" y="0.0" type="line"/>
      <point x="381.1363636363636" y="0.0" type="line"/>
      <point x="381.1363636363636" y="1295.3636363636365" type="line"/>
      <point x="316.3333333333333" y="1295.3636363636365" type="line"/>
      <point x="850.4242424242425" y="207.87878787878788" type="line"/>
      <point x="1042.2424242424242" y="207.87878787878788" type="line"/>
      <point x="1566.6515151515152" y="1295.3636363636365" type="line"/>
      <point x="1511.530303030303" y="1295.3636363636365" type="line"/>
      <point x="1511.530303030303" y="0.0" type="line"/>
      <point x="1718.560606060606" y="0.0" type="line"/>
      <point x="1718.560606060606" y="1480.0" type="line"/>
      <point x="1454.969696969697" y="1480.0" type="line"/>
      <point x="931.1515151515151" y="382.8787878787879" type="line"/>
      <point x="969.4545454545455" y="382.8787878787879" type="line"/>
      <point x="437.6969696969697" y="1480.0" type="line"/>
      <point x="174.1060606060606" y="1480.0" type="line"/>
    </contour>
  </outline>
</glyph>
<glyph name="P" format="2">
  <advance width="1328.378787878788"/>
  <unicode hex="0050"/>
  <outline>
    <contour>
      <point x="170.1060606060606" y="0.0" type="line"/>
      <point x="390.56060606060606" y="0.0" type="line"/>
      <point x="390.56060606060606" y="475.74242424242425" type="line"/>
      <point x="459.3787878787879" y="470.2878787878788"/>
      <point x="517.5757575757575" y="467.3787878787879"/>
      <point x="586.7575757575758" y="467.3787878787879" type="curve" smooth="yes"/>
      <point x="1031.7121212121212" y="467.3787878787879"/>
      <point x="1238.6818181818182" y="647.4090909090909"/>
      <point x="1238.6818181818182" y="983.2878787878788" type="curve" smooth="yes"/>
      <point x="1238.6818181818182" y="1338.7878787878788"/>
      <point x="1019.030303030303" y="1496.3636363636363"/>
      <point x="597.3787878787879" y="1496.3636363636363" type="curve" smooth="yes"/>
      <point x="441.3484848484849" y="1496.3636363636363"/>
      <point x="308.6212121212121" y="1481.2121212121212"/>
      <point x="170.1060606060606" y="1454.5454545454545" type="curve"/>
    </contour>
    <contour>
      <point x="589.2424242424242" y="634.6212121212121" type="curve" smooth="yes"/>
      <point x="514.4545454545455" y="634.6212121212121"/>
      <point x="455.28787878787875" y="638.439393939394"/>
      <point x="390.56060606060606" y="647.2727272727273" type="curve"/>
      <point x="390.56060606060606" y="1310.8181818181818" type="line"/>
      <point x="458.5909090909091" y="1322.878787878788"/>
      <point x="528.0757575757575" y="1329.121212121212"/>
      <point x="614.7121212121212" y="1329.121212121212" type="curve" smooth="yes"/>
      <point x="888.8636363636364" y="1329.121212121212"/>
      <point x="1022.3030303030303" y="1224.3636363636365"/>
      <point x="1022.3030303030303" y="981.3787878787879" type="curve" smooth="yes"/>
      <point x="1022.3030303030303" y="744.530303030303"/>
      <point x="895.530303030303" y="634.6212121212121"/>
    </contour>
  </outline>
</glyph>
<glyph name="Q" format="2">
  <advance width="1587.3939393939395"/>
  <unicode hex="0051"/>
  <outline>
    <contour>
      <point x="1423.651515151515" y="-260.3636363636364" type="curve"/>
      <point x="1457.0757575757575" y="-85.63636363636364" type="line"/>
      <point x="1210.7575757575758" y="-62.04545454545455"/>
      <point x="949.560606060606" y="-18.13636363636364"/>
      <point x="744.1969696969697" y="62.04545454545455" type="curve"/>
      <point x="682.2121212121212" y="6.77272727272727" type="line"/>
      <point x="1210.530303030303" y="-55.621212121212125"/>
      <point x="1479.6818181818182" y="222.71212121212122"/>
      <point x="1479.6818181818182" y="740.0" type="curve" smooth="yes"/>
      <point x="1479.6818181818182" y="1262.2878787878788"/>
      <point x="1205.2424242424242" y="1498.7878787878788"/>
      <point x="793.6969696969697" y="1498.7878787878788" type="curve" smooth="yes"/>
      <point x="382.1515151515151" y="1498.7878787878788"/>
      <point x="107.71212121212122" y="1258.0151515151515"/>
      <point x="107.71212121212122" y="734.0909090909091" type="curve" smooth="yes"/>
      <point x="107.71212121212122" y="167.03030303030303"/>
      <point x="398.27272727272725" y="-136.1818181818182"/>
    </contour>
    <contour>
      <point x="793.6969696969697" y="162.75757575757575" type="curve" smooth="yes"/>
      <point x="512.5454545454545" y="162.75757575757575"/>
      <point x="334.1363636363636" y="322.6212121212121"/>
      <point x="334.1363636363636" y="745.5757575757576" type="curve" smooth="yes"/>
      <point x="334.1363636363636" y="1156.1969696969697"/>
      <point x="515.5" y="1317.2424242424242"/>
      <point x="793.6969696969697" y="1317.2424242424242" type="curve" smooth="yes"/>
      <point x="1071.8939393939395" y="1317.2424242424242"/>
      <point x="1253.2575757575758" y="1154.4242424242425"/>
      <point x="1253.2575757575758" y="734.4242424242424" type="curve" smooth="yes"/>
      <point x="1253.2575757575758" y="325.57575757575756"/>
      <point x="1073.6666666666667" y="162.75757575757575"/>
    </contour>
  </outline>
</glyph>
<glyph name="S" format="2">
  <advance width="1166.3030303030303"/>
  <unicode hex="0053"/>
  <anchor x="592.9090909090909" y="0.0" name="bottom"/>
  <anchor x="592.9090909090909" y="1520.0" name="top"/>
  <outline>
    <contour>
      <point x="513.8030303030303" y="-18.78787878787879" type="curve" smooth="yes"/>
      <point x="877.2727272727273" y="-18.78787878787879"/>
      <point x="1088.7575757575758" y="140.24242424242425"/>
      <point x="1088.7575757575758" y="414.1060606060606" type="curve" smooth="yes"/>
      <point x="1088.7575757575758" y="631.6515151515151"/>
      <point x="960.6212121212121" y="760.3939393939394"/>
      <point x="651.6818181818182" y="828.1515151515151" type="curve" smooth="yes"/>
      <point x="556.7121212121212" y="849.4545454545455" type="line" smooth="yes"/>
      <point x="362.8787878787879" y="893.9393939393939"/>
      <point x="297.66666666666663" y="955.9242424242424"/>
      <point x="297.66666666666663" y="1083.8333333333333" type="curve" smooth="yes"/>
      <point x="297.66666666666663" y="1231.621212121212"/>
      <point x="405.6818181818182" y="1319.530303030303"/>
      <point x="665.7121212121212" y="1319.530303030303" type="curve" smooth="yes"/>
      <point x="787.590909090909" y="1319.530303030303"/>
      <point x="912.0909090909091" y="1301.9545454545455"/>
      <point x="1018.909090909091" y="1269.2121212121212" type="curve"/>
      <point x="1018.909090909091" y="1451.2575757575758" type="line"/>
      <point x="917.1969696969697" y="1481.3030303030303"/>
      <point x="791.0" y="1498.7878787878788"/>
      <point x="659.8636363636364" y="1498.7878787878788" type="curve" smooth="yes"/>
      <point x="271.54545454545456" y="1498.7878787878788"/>
      <point x="77.54545454545455" y="1338.530303030303"/>
      <point x="77.54545454545455" y="1073.7272727272727" type="curve" smooth="yes"/>
      <point x="77.54545454545455" y="854.3030303030303"/>
      <point x="206.6818181818182" y="724.4242424242425"/>
      <point x="488.56060606060606" y="662.2575757575758" type="curve" smooth="yes"/>
      <point x="583.530303030303" y="640.9545454545455" type="line" smooth="yes"/>
      <point x="792.8636363636364" y="593.4848484848485"/>
      <point x="868.6363636363636" y="534.1515151515151"/>
      <point x="868.6363636363636" y="401.95454545454544" type="curve" smooth="yes"/>
      <point x="868.6363636363636" y="245.9090909090909"/>
      <point x="762.1212121212121" y="160.46969696969697"/>
      <point x="515.8181818181818" y="160.46969696969697" type="curve" smooth="yes"/>
      <point x="392.530303030303" y="160.46969696969697"/>
      <point x="238.1969696969697" y="181.9090909090909"/>
      <point x="104.78787878787878" y="226.71212121212122" type="curve"/>
      <point x="104.78787878787878" y="44.66666666666667" type="line"/>
      <point x="229.8030303030303" y="3.166666666666667"/>
      <point x="374.1212121212121" y="-18.78787878787879"/>
    </contour>
  </outline>
</glyph>
<glyph name="T" format="2">
  <advance width="1283.378787878788"/>
  <unicode hex="0054"/>
  <anchor x="641.7878787878788" y="0.0" name="bottom"/>
  <anchor x="641.7878787878788" y="760.6060606060606" name="center"/>
  <anchor x="641.7878787878788" y="1520.0" name="top"/>
  <outline>
    <contour>
      <point x="531.3636363636364" y="0.0" type="line"/>
      <point x="752.0151515151515" y="0.0" type="line"/>
      <point x="752.0151515151515" y="1297.1969696969697" type="line"/>
      <point x="1266.1818181818182" y="1297.1969696969697" type="line"/>
      <point x="1266.1818181818182" y="1480.0" type="line"/>
      <point x="17.196969696969695" y="1480.0" type="line"/>
      <point x="17.196969696969695" y="1297.1969696969697" type="line"/>
      <point x="531.3636363636364" y="1297.1969696969697" type="line"/>
    </contour>
  </outline>
</glyph>
<glyph name="V" format="2">
  <advance width="1440.151515151515"/>
  <unicode hex="0056"/>
  <outline>
    <contour>
      <point x="560.4090909090909" y="0.0" type="line"/>
      <point x="879.7424242424242" y="0.0" type="line"/>
      <point x="1427.7272727272727" y="1480.0" type="line"/>
      <point x="1209.2878787878788" y="1480.0" type="line"/>
      <point x="700.9848484848485" y="96.92424242424242" type="line"/>
      <point x="751.2575757575758" y="96.92424242424242" type="line"/>
      <point x="246.0909090909091" y="1480.0" type="line"/>
      <point x="12.424242424242426" y="1480.0" type="line"/>
    </contour>
  </outline>
</glyph>
<glyph name="W" format="2">
  <advance width="2311.939393939394"/>
  <unicode hex="0057"/>
  <anchor x="1156.7272727272727" y="0.0" name="bottom"/>
  <anchor x="1156.7272727272727" y="1520.0" name="top"/>
  <outline>
    <contour>
      <point x="492.8636363636364" y="0.0" type="line"/>
      <point x="777.1363636363636" y="0.0" type="line"/>
      <point x="1188.651515151515" y="1351.8484848484848" type="line"/>
      <point x="1129.1818181818182" y="1351.8484848484848" type="line"/>
      <point x="1534.8030303030303" y="0.0" type="line"/>
      <point x="1819.0757575757575" y="0.0" type="line"/>
      <point x="2257.787878787879" y="1480.0" type="line"/>
      <point x="2046.0757575757575" y="1480.0" type="line"/>
      <point x="1646.1060606060605" y="107.56060606060605" type="line"/>
      <point x="1693.4242424242425" y="107.56060606060605" type="line"/>
      <point x="1287.2272727272727" y="1480.0" type="line"/>
      <point x="1034.8636363636365" y="1480.0" type="line"/>
      <point x="622.2878787878788" y="107.56060606060605" type="line"/>
      <point x="674.530303030303" y="107.56060606060605" type="line"/>
      <point x="278.4090909090909" y="1480.0" type="line"/>
      <point x="53.24242424242424" y="1480.0" type="line"/>
    </contour>
  </outline>
</glyph>
<glyph name="X" format="2">
  <advance width="1382.2575757575758"/>
  <unicode hex="0058"/>
  <outline>
    <contour>
      <point x="1133.151515151515" y="0.0" type="line"/>
      <point x="1384.0454545454545" y="0.0" type="line"/>
      <point x="820.1818181818182" y="761.0" type="line"/>
      <point x="691.6212121212121" y="916.0757575757575" type="line"/>
      <point x="272.27272727272725" y="1480.0" type="line"/>
      <point x="21.090909090909093" y="1480.0" type="line"/>
      <point x="559.1969696969697" y="757.530303030303" type="line"/>
      <point x="687.7575757575758" y="602.7424242424242" type="line"/>
    </contour>
    <contour>
      <point x="-3.0909090909090864" y="0.0" type="line"/>
      <point x="242.45454545454544" y="0.0" type="line"/>
      <point x="687.7575757575758" y="602.7424242424242" type="line"/>
      <point x="820.1818181818182" y="761.0" type="line"/>
      <point x="1354.5454545454545" y="1480.0" type="line"/>
      <point x="1111.2878787878788" y="1480.0" type="line"/>
      <point x="691.6212121212121" y="916.0757575757575" type="line"/>
      <point x="559.1969696969697" y="757.530303030303" type="line"/>
    </contour>
  </outline>
</glyph>
<glyph name="Z" format="2">
  <advance width="1262.2272727272727"/>
  <unicode hex="005A"/>
  <anchor x="630.969696969697" y="0.0" name="bottom"/>
  <anchor x="631.7575757575758" y="1520.0" name="top"/>
  <outline>
    <contour>
      <point x="68.27272727272728" y="0.0" type="line"/>
      <point x="1193.9545454545455" y="0.0" type="line"/>
      <point x="1193.9545454545455" y="181.59090909090907" type="line"/>
      <point x="315.8939393939394" y="181.59090909090907" type="line"/>
      <point x="323.77272727272725" y="134.24242424242425" type="line"/>
      <point x="1182.1363636363635" y="1359.0454545454545" type="line"/>
      <point x="1182.1363636363635" y="1480.0" type="line"/>
      <point x="80.0909090909091" y="1480.0" type="line"/>
      <point x="80.0909090909091" y="1298.409090909091" type="line"/>
      <point x="934.5151515151515" y="1298.409090909091" type="line"/>
      <point x="926.6363636363636" y="1345.7575757575758" type="line"/>
      <point x="68.27272727272728" y="120.95454545454545" type="line"/>
    </contour>
  </outline>
</glyph>
<glyph name="bracketleft" format="2">
  <advance width="716.4242424242425"/>
  <unicode hex="005B"/>
  <outline>
    <contour>
      <point x="190.1060606060606" y="-440.0" type="line"/>
      <point x="744.2121212121212" y="-440.0" type="line"/>
      <point x="744.2121212121212" y="-265.3030303030303" type="line"/>
      <point x="406.4242424242424" y="-265.3030303030303" type="line"/>
      <point x="406.4242424242424" y="1441.3030303030303" type="line"/>
      <point x="750.1212121212121" y="1441.3030303030303" type="line"/>
      <point x="750.1212121212121" y="1616.0" type="line"/>
      <point x="190.1060606060606" y="1616.0" type="line"/>
    </contour>
  </outline>
</glyph>
<glyph name="backslash" format="2">
  <advance width="733.2272727272727"/>
  <unicode hex="005C"/>
  <outline>
    <contour>
      <point x="515.7727272727273" y="-240.0" type="line"/>
      <point x="733.2272727272727" y="-240.0" type="line"/>
      <point x="217.45454545454544" y="1616.0" type="line"/>
      <point x="0.0" y="1616.0" type="line"/>
    </contour>
  </outline>
</glyph>
<glyph name="bracketright" format="2">
  <advance width="716.4242424242425"/>
  <unicode hex="005D"/>
  <outline>
    <contour>
      <point x="-27.78787878787879" y="-440.0" type="line"/>
      <point x="526.3181818181819" y="-440.0" type="line"/>
      <point x="526.3181818181819" y="1616.0" type="line"/>
      <point x="-33.696969696969695" y="1616.0" type="line"/>
      <point x="-33.696969696969695" y="1441.3030303030303" type="line"/>
      <point x="310.0" y="1441.3030303030303" type="line"/>
      <point x="310.0" y="-265.3030303030303" type="line"/>
      <point x="-27.78787878787879" y="-265.3030303030303" type="line"/>
    </contour>
  </outline>
</glyph>
<glyph name="underscore" format="2">
  <advance width="1230.121212121212"/>
  <unicode hex="005F"/>
  <outline>
    <contour>
      <point x="93.56060606060606" y="-175.28787878787878" type="line"/>
      <point x="1136.560606060606" y="-175.28787878787878" type="line"/>
      <point x="1136.560606060606" y="-0.5909090909090908" type="line"/>
      <point x="93.56060606060606" y="-0.5909090909090908" type="line"/>
    </contour>
  </outline>
</glyph>
<glyph name="b" format="2">
  <advance width="1245.621212121212"/>
  <unicode hex="0062"/>
  <anchor x="625.4545454545455" y="0.0" name="bottom"/>
  <anchor x="261.1212121212121" y="1616.0" name="top"/>
  <outline>
    <contour>
      <point x="546.409090909091" y="-19.37878787878788" type="curve" smooth="yes"/>
      <point x="945.6515151515152" y="-19.575757575757574"/>
      <point x="1150.6666666666665" y="177.54545454545453"/>
      <point x="1150.6666666666665" y="566.5" type="curve" smooth="yes"/>
      <point x="1150.6666666666665" y="949.8787878787879"/>
      <point x="949.0" y="1104.6666666666667"/>
      <point x="703.1363636363636" y="1104.6666666666667" type="curve" smooth="yes"/>
      <point x="565.2272727272727" y="1104.6666666666667"/>
      <point x="455.22727272727275" y="1054.6666666666667"/>
      <point x="380.5" y="975.439393939394" type="curve"/>
      <point x="369.18181818181813" y="975.439393939394" type="line"/>
      <point x="369.18181818181813" y="1616.0" type="line"/>
      <point x="152.86363636363637" y="1616.0" type="line"/>
      <point x="152.86363636363637" y="35.66666666666667" type="line"/>
      <point x="274.7121212121212" y="-1.9090909090909092"/>
      <point x="413.6969696969697" y="-19.37878787878788"/>
    </contour>
    <contour>
      <point x="565.6060606060606" y="149.83333333333331" type="curve" smooth="yes"/>
      <point x="489.57575757575756" y="149.83333333333331"/>
      <point x="420.1818181818182" y="160.5909090909091"/>
      <point x="369.18181818181813" y="175.16666666666666" type="curve"/>
      <point x="369.18181818181813" y="813.7121212121212" type="line"/>
      <point x="437.8333333333333" y="891.2727272727273"/>
      <point x="535.7727272727273" y="925.2121212121212"/>
      <point x="633.5454545454545" y="925.2121212121212" type="curve" smooth="yes"/>
      <point x="807.6818181818181" y="925.2121212121212"/>
      <point x="932.9090909090909" y="834.7575757575758"/>
      <point x="932.9090909090909" y="548.8484848484849" type="curve" smooth="yes"/>
      <point x="932.9090909090909" y="270.33333333333337"/>
      <point x="808.5" y="149.83333333333331"/>
    </contour>
  </outline>
</glyph>
<glyph name="f" format="2">
  <advance width="798.4848484848485"/>
  <unicode hex="0066"/>
  <outline>
    <contour>
      <point x="233.13636363636363" y="0.0" type="line"/>
      <point x="448.8636363636364" y="0.0" type="line"/>
      <point x="448.8636363636364" y="1213.2575757575758" type="line" smooth="yes"/>
      <point x="448.8636363636364" y="1389.7424242424242"/>
      <point x="531.7727272727273" y="1460.878787878788"/>
      <point x="711.1515151515151" y="1460.878787878788" type="curve" smooth="yes"/>
      <point x="754.939393939394" y="1460.878787878788"/>
      <point x="799.3787878787879" y="1456.7575757575758"/>
      <point x="845.2575757575758" y="1449.4242424242425" type="curve"/>
      <point x="845.2575757575758" y="1623.3939393939395" type="line"/>
      <point x="792.6363636363636" y="1631.3939393939395"/>
      <point x="740.3939393939394" y="1636.0"/>
      <point x="683.8333333333334" y="1636.0" type="curve" smooth="yes"/>
      <point x="390.4848484848485" y="1636.0"/>
      <point x="233.13636363636363" y="1482.7121212121212"/>
      <point x="233.13636363636363" y="1203.2272727272727" type="curve" smooth="yes"/>
    </contour>
    <contour>
      <point x="26.772727272727273" y="913.1818181818182" type="line"/>
      <point x="799.4242424242424" y="913.1818181818182" type="line"/>
      <point x="799.4242424242424" y="1087.878787878788" type="line"/>
      <point x="26.772727272727273" y="1087.878787878788" type="line"/>
    </contour>
  </outline>
</glyph>
<glyph name="h" format="2">
  <advance width="1246.4545454545455"/>
  <unicode hex="0068"/>
  <anchor x="630.3030303030303" y="0.0" name="bottom"/>
  <anchor x="630.3030303030303" y="543.939393939394" name="center"/>
  <anchor x="152.86363636363637" y="1353.6363636363637" name="stroke"/>
  <anchor x="630.3030303030303" y="1616.0" name="top"/>
  <outline>
    <contour>
      <point x="152.86363636363637" y="0.0" type="line"/>
      <point x="369.18181818181813" y="0.0" type="line"/>
      <point x="369.18181818181813" y="787.4090909090909" type="line"/>
      <point x="446.1969696969697" y="877.060606060606"/>
      <point x="560.5454545454545" y="916.3181818181819"/>
      <point x="663.969696969697" y="916.3181818181819" type="curve" smooth="yes"/>
      <point x="801.469696969697" y="916.3181818181819"/>
      <point x="889.7272727272727" y="856.9545454545455"/>
      <point x="889.7272727272727" y="676.3181818181818" type="curve" smooth="yes"/>
      <point x="889.7272727272727" y="0.0" type="line"/>
      <point x="1106.0454545454545" y="0.0" type="line"/>
      <point x="1106.0454545454545" y="687.8484848484849" type="line" smooth="yes"/>
      <point x="1106.0454545454545" y="989.1060606060606"/>
      <point x="947.2424242424242" y="1104.6666666666667"/>
      <point x="729.3030303030303" y="1104.6666666666667" type="curve" smooth="yes"/>
      <point x="594.4545454545455" y="1104.6666666666667"/>
      <point x="472.16666666666663" y="1059.121212121212"/>
      <point x="380.5" y="971.1969696969697" type="curve"/>
      <point x="369.18181818181813" y="971.1969696969697" type="line"/>
      <point x="369.18181818181813" y="1616.0" type="line"/>
      <point x="152.86363636363637" y="1616.0" type="line"/>
    </contour>
  </outline>
</glyph>
<glyph name="j" format="2">
  <advance width="522.2424242424242"/>
  <unicode hex="006A"/>
  <anchor x="258.1666666666667" y="1205.4545454545455" name="_top"/>
  <anchor x="258.1666666666667" y="1205.4545454545455" name="top"/>
  <outline>
    <contour>
      <point x="113.7121212121212" y="-466.3030303030303" type="line"/>
      <point x="296.93939393939394" y="-262.24242424242425"/>
      <point x="369.3787878787879" y="-71.57575757575758"/>
      <point x="369.3787878787879" y="181.15151515151516" type="curve" smooth="yes"/>
      <point x="369.3787878787879" y="1087.878787878788" type="line"/>
      <point x="152.86363636363637" y="1087.878787878788" type="line"/>
      <point x="152.86363636363637" y="171.5151515151515" type="line" smooth="yes"/>
      <point x="152.86363636363637" y="-52.06060606060606"/>
      <point x="101.6969696969697" y="-208.36363636363637"/>
      <point x="-25.984848484848484" y="-371.5151515151515" type="curve"/>
    </contour>
    <contour>
      <point x="258.1666666666667" y="1305.1818181818182" type="curve" smooth="yes"/>
      <point x="352.07575757575756" y="1305.1818181818182"/>
      <point x="399.74242424242425" y="1349.2727272727273"/>
      <point x="399.74242424242425" y="1425.878787878788" type="curve" smooth="yes"/>
      <point x="399.74242424242425" y="1502.4848484848485"/>
      <point x="352.07575757575756" y="1547.7878787878788"/>
      <point x="258.1666666666667" y="1547.7878787878788" type="curve" smooth="yes"/>
      <point x="164.25757575757575" y="1547.7878787878788"/>
      <point x="116.5909090909091" y="1502.4848484848485"/>
      <point x="116.5909090909091" y="1425.878787878788" type="curve" smooth="yes"/>
      <point x="116.5909090909091" y="1349.2727272727273"/>
      <point x="164.25757575757575" y="1305.1818181818182"/>
    </contour>
  </outline>
</glyph>
<glyph name="k" format="2">
  <advance width="1155.409090909091"/>
  <unicode hex="006B"/>
  <anchor x="610.530303030303" y="0.0" name="bottom"/>
  <anchor x="261.1212121212121" y="1616.0" name="top"/>
  <outline>
    <contour>
      <point x="936.030303030303" y="0.0" type="line"/>
      <point x="1177.3333333333333" y="0.0" type="line"/>
      <point x="715.1969696969697" y="589.4848484848485" type="line"/>
      <point x="715.1969696969697" y="533.4242424242424" type="line"/>
      <point x="1143.1666666666665" y="1087.878787878788" type="line"/>
      <point x="906.1060606060606" y="1087.878787878788" type="line"/>
      <point x="489.75757575757575" y="557.5151515151515" type="line"/>
    </contour>
    <contour>
      <point x="346.8787878787879" y="468.3939393939394" type="line"/>
      <point x="575.4242424242424" y="468.3939393939394" type="line"/>
      <point x="575.4242424242424" y="646.6363636363636" type="line"/>
      <point x="346.8787878787879" y="646.6363636363636" type="line"/>
    </contour>
    <contour>
      <point x="152.86363636363637" y="0.0" type="line"/>
      <point x="369.18181818181813" y="0.0" type="line"/>
      <point x="369.18181818181813" y="1616.0" type="line"/>
      <point x="152.86363636363637" y="1616.0" type="line"/>
    </contour>
  </outline>
</glyph>
<glyph name="l" format="2">
  <advance width="522.0454545454545"/>
  <unicode hex="006C"/>
  <anchor x="260.530303030303" y="0.0" name="bottom"/>
  <anchor x="485.3939393939394" y="1616.0" name="caronalt"/>
  <anchor x="590.090909090909" y="794.0" name="periodcentered"/>
  <anchor x="261.1212121212121" y="714.0" name="slash"/>
  <anchor x="261.1212121212121" y="1616.0" name="top"/>
  <outline>
    <contour>
      <point x="152.86363636363637" y="0.0" type="line"/>
      <point x="369.18181818181813" y="0.0" type="line"/>
      <point x="369.18181818181813" y="1616.0" type="line"/>
      <point x="152.86363636363637" y="1616.0" type="line"/>
    </contour>
  </outline>
</glyph>
<glyph name="n" format="2">
  <advance width="1246.4545454545455"/>
  <unicode hex="006E"/>
  <anchor x="13.318181818181818" y="1200.0" name="apostrophe"/>
  <anchor x="630.3030303030303" y="0.0" name="bottom"/>
  <anchor x="630.3030303030303" y="1200.0" name="top"/>
  <outline>
    <contour>
      <point x="152.86363636363637" y="0.0" type="line"/>
      <point x="369.18181818181813" y="0.0" type="line"/>
      <point x="369.18181818181813" y="788.3181818181819" type="line"/>
      <point x="448.0151515151515" y="880.6969696969697"/>
      <point x="565.6060606060606" y="917.530303030303"/>
      <point x="663.969696969697" y="917.530303030303" type="curve" smooth="yes"/>
      <point x="804.1969696969697" y="917.530303030303"/>
      <point x="889.7272727272727" y="855.3333333333334"/>
      <point x="889.7272727272727" y="675.0909090909091" type="curve" smooth="yes"/>
      <point x="889.7272727272727" y="0.0" type="line"/>
      <point x="1106.0454545454545" y="0.0" type="line"/>
      <point x="1106.0454545454545" y="685.1212121212121" type="line" smooth="yes"/>
      <point x="1106.0454545454545" y="988.0"/>
      <point x="947.2424242424242" y="1104.6666666666667"/>
      <point x="719.7272727272727" y="1104.6666666666667" type="curve" smooth="yes"/>
      <point x="581.2727272727273" y="1104.6666666666667"/>
      <point x="453.25757575757575" y="1056.409090909091"/>
      <point x="359.4242424242424" y="968.7878787878788" type="curve"/>
      <point x="347.0909090909091" y="968.7878787878788" type="line"/>
      <point x="332.4242424242424" y="1087.878787878788" type="line"/>
      <point x="152.86363636363637" y="1087.878787878788" type="line"/>
    </contour>
  </outline>
</glyph>
<glyph name="p" format="2">
  <advance width="1245.621212121212"/>
  <unicode hex="0070"/>
  <outline>
    <contour>
      <point x="152.86363636363637" y="-440.0" type="line"/>
      <point x="369.18181818181813" y="-440.0" type="line"/>
      <point x="369.18181818181813" y="-4.59090909090909" type="line"/>
      <point x="424.5454545454545" y="-12.136363636363637"/>
      <point x="493.27272727272725" y="-19.37878787878788"/>
      <point x="561.5909090909091" y="-19.37878787878788" type="curve" smooth="yes"/>
      <point x="944.1818181818182" y="-19.37878787878788"/>
      <point x="1150.6666666666665" y="179.5151515151515"/>
      <point x="1150.6666666666665" y="564.9242424242424" type="curve" smooth="yes"/>
      <point x="1150.6666666666665" y="955.3939393939394"/>
      <point x="941.7878787878788" y="1104.6666666666667"/>
      <point x="685.1060606060605" y="1104.6666666666667" type="curve" smooth="yes"/>
      <point x="547.3030303030303" y="1104.6666666666667"/>
      <point x="434.6212121212121" y="1050.3333333333333"/>
      <point x="361.0" y="967.0757575757576" type="curve"/>
      <point x="349.57575757575756" y="967.0757575757576" type="line"/>
      <point x="335.3787878787879" y="1087.878787878788" type="line"/>
      <point x="152.86363636363637" y="1087.878787878788" type="line"/>
    </contour>
    <contour>
      <point x="556.8181818181818" y="150.4242424242424" type="curve" smooth="yes"/>
      <point x="490.1666666666667" y="150.4242424242424"/>
      <point x="420.1818181818182" y="158.75757575757575"/>
      <point x="369.18181818181813" y="171.03030303030303" type="curve"/>
      <point x="369.18181818181813" y="804.1060606060606" type="line"/>
      <point x="436.8484848484849" y="890.4848484848485"/>
      <point x="535.4545454545455" y="925.4090909090909"/>
      <point x="631.3787878787879" y="925.4090909090909" type="curve" smooth="yes"/>
      <point x="807.090909090909" y="925.4090909090909"/>
      <point x="932.9090909090909" y="834.9545454545455"/>
      <point x="932.9090909090909" y="547.8636363636364" type="curve" smooth="yes"/>
      <point x="932.9090909090909" y="270.92424242424244"/>
      <point x="808.5" y="150.4242424242424"/>
    </contour>
  </outline>
</glyph>
<glyph name="q" format="2">
  <advance width="1245.621212121212"/>
  <unicode hex="0071"/>
  <outline>
    <contour>
      <point x="876.439393939394" y="-440.0" type="line"/>
      <point x="1092.7575757575758" y="-440.0" type="line"/>
      <point x="1092.7575757575758" y="1049.621212121212" type="line"/>
      <point x="976.8333333333334" y="1085.121212121212"/>
      <point x="831.9242424242425" y="1104.6666666666667"/>
      <point x="699.2121212121212" y="1104.6666666666667" type="curve" smooth="yes"/>
      <point x="299.969696969697" y="1104.6666666666667"/>
      <point x="94.95454545454545" y="907.7424242424242"/>
      <point x="94.95454545454545" y="518.7878787878788" type="curve" smooth="yes"/>
      <point x="94.95454545454545" y="135.4090909090909"/>
      <point x="296.6212121212121" y="-19.37878787878788"/>
      <point x="542.4848484848485" y="-19.37878787878788" type="curve" smooth="yes"/>
      <point x="680.3939393939394" y="-19.37878787878788"/>
      <point x="790.3939393939394" y="30.62121212121212"/>
      <point x="865.1212121212121" y="109.84848484848484" type="curve"/>
      <point x="876.439393939394" y="109.84848484848484" type="line"/>
    </contour>
    <contour>
      <point x="612.0757575757576" y="160.07575757575756" type="curve" smooth="yes"/>
      <point x="437.9393939393939" y="160.07575757575756"/>
      <point x="312.71212121212125" y="250.53030303030303"/>
      <point x="312.71212121212125" y="536.439393939394" type="curve" smooth="yes"/>
      <point x="312.71212121212125" y="814.9545454545455"/>
      <point x="439.8787878787879" y="935.4545454545455"/>
      <point x="679.8181818181818" y="935.4545454545455" type="curve" smooth="yes"/>
      <point x="756.439393939394" y="935.4545454545455"/>
      <point x="825.439393939394" y="925.6060606060606"/>
      <point x="876.439393939394" y="912.439393939394" type="curve"/>
      <point x="876.439393939394" y="271.57575757575756" type="line"/>
      <point x="807.7878787878788" y="194.0151515151515"/>
      <point x="708.030303030303" y="160.07575757575756"/>
    </contour>
  </outline>
</glyph>
<glyph name="v" format="2">
  <advance width="1168.878787878788"/>
  <unicode hex="0076"/>
  <anchor x="585.5" y="0.0" name="bottom"/>
  <anchor x="585.5" y="1200.0" name="top"/>
  <outline>
    <contour>
      <point x="449.06060606060606" y="0.0" type="line"/>
      <point x="719.2272727272727" y="0.0" type="line"/>
      <point x="1154.909090909091" y="1087.878787878788" type="line"/>
      <point x="940.6060606060606" y="1087.878787878788" type="line"/>
      <point x="582.1363636363636" y="163.06060606060606" type="line"/>
      <point x="601.6818181818182" y="163.06060606060606" type="line"/>
      <point x="243.2121212121212" y="1087.878787878788" type="line"/>
      <point x="13.96969696969697" y="1087.878787878788" type="line"/>
    </contour>
  </outline>
</glyph>
<glyph name="w" format="2">
  <advance width="1834.5454545454545"/>
  <unicode hex="0077"/>
  <anchor x="918.5757575757575" y="0.0" name="bottom"/>
  <anchor x="918.8787878787879" y="1200.0" name="top"/>
  <outline>
    <contour>
      <point x="395.04545454545456" y="0.0" type="line"/>
      <point x="644.2575757575758" y="0.0" type="line"/>
      <point x="928.3484848484848" y="916.2424242424242" type="line"/>
      <point x="910.2424242424242" y="916.2424242424242" type="line"/>
      <point x="1191.9848484848485" y="0.0" type="line"/>
      <point x="1441.1969696969697" y="0.0" type="line"/>
      <point x="1768.5454545454545" y="1087.878787878788" type="line"/>
      <point x="1566.4545454545455" y="1087.878787878788" type="line"/>
      <point x="1299.939393939394" y="192.65151515151516" type="line"/>
      <point x="1319.4848484848485" y="192.65151515151516" type="line"/>
      <point x="1046.4242424242425" y="1087.878787878788" type="line"/>
      <point x="797.2121212121212" y="1087.878787878788" type="line"/>
      <point x="523.2878787878788" y="193.04545454545453" type="line"/>
      <point x="539.0909090909091" y="193.04545454545453" type="line"/>
      <point x="276.59090909090907" y="1087.878787878788" type="line"/>
      <point x="66.0" y="1087.878787878788" type="line"/>
    </contour>
  </outline>
</glyph>
<glyph name="x" format="2">
  <advance width="1121.5151515151515"/>
  <unicode hex="0078"/>
  <anchor x="561.8181818181818" y="0.0" name="bottom"/>
  <anchor x="562.0151515151515" y="1200.0" name="top"/>
  <outline>
    <contour>
      <point x="863.2272727272727" y="0.0" type="line"/>
      <point x="1108.8181818181818" y="0.0" type="line"/>
      <point x="688.2272727272727" y="551.3181818181819" type="line"/>
      <point x="563.9848484848485" y="698.7575757575758" type="line"/>
      <point x="268.3181818181818" y="1087.878787878788" type="line"/>
      <point x="22.72727272727273" y="1087.878787878788" type="line"/>
      <point x="432.8181818181818" y="547.939393939394" type="line"/>
      <point x="559.2272727272727" y="401.1969696969697" type="line"/>
    </contour>
    <contour>
      <point x="14.621212121212123" y="0.0" type="line"/>
      <point x="254.59090909090907" y="0.0" type="line"/>
      <point x="559.2272727272727" y="401.1969696969697" type="line"/>
      <point x="688.2272727272727" y="551.3181818181819" type="line"/>
      <point x="1096.939393939394" y="1087.878787878788" type="line"/>
      <point x="858.7878787878788" y="1087.878787878788" type="line"/>
      <point x="563.9848484848485" y="698.7575757575758" type="line"/>
      <point x="432.8181818181818" y="547.939393939394" type="line"/>
    </contour>
  </outline>
</glyph>
<glyph name="braceleft" format="2">
  <advance width="756.4242424242425"/>
  <unicode hex="007B"/>
  <outline>
    <contour>
      <point x="636.439393939394" y="-460.0" type="curve" smooth="yes"/>
      <point x="694.8181818181818" y="-460.0"/>
      <point x="748.5" y="-455.2121212121212"/>
      <point x="790.1212121212121" y="-448.42424242424244" type="curve"/>
      <point x="790.1212121212121" y="-281.72727272727275" type="line"/>
      <point x="666.7121212121212" y="-281.72727272727275" type="line" smooth="yes"/>
      <point x="520.0757575757575" y="-281.72727272727275"/>
      <point x="446.4242424242424" y="-223.9090909090909"/>
      <point x="446.4242424242424" y="-76.36363636363636" type="curve" smooth="yes"/>
      <point x="446.4242424242424" y="371.3939393939394" type="line" smooth="yes"/>
      <point x="446.4242424242424" y="537.0909090909091"/>
      <point x="373.6363636363636" y="623.2727272727273"/>
      <point x="199.1818181818182" y="639.030303030303" type="curve"/>
      <point x="199.1818181818182" y="612.8484848484849" type="line"/>
      <point x="373.6363636363636" y="628.6060606060606"/>
      <point x="446.4242424242424" y="714.7878787878788"/>
      <point x="446.4242424242424" y="880.4848484848485" type="curve" smooth="yes"/>
      <point x="446.4242424242424" y="1252.3636363636363" type="line" smooth="yes"/>
      <point x="446.4242424242424" y="1399.909090909091"/>
      <point x="520.0757575757575" y="1457.7272727272727"/>
      <point x="666.7121212121212" y="1457.7272727272727" type="curve" smooth="yes"/>
      <point x="790.1212121212121" y="1457.7272727272727" type="line"/>
      <point x="790.1212121212121" y="1624.4242424242425" type="line"/>
      <point x="748.5" y="1631.2121212121212"/>
      <point x="694.8181818181818" y="1636.0"/>
      <point x="636.439393939394" y="1636.0" type="curve" smooth="yes"/>
      <point x="367.4848484848485" y="1636.0"/>
      <point x="230.1060606060606" y="1508.3333333333333"/>
      <point x="230.1060606060606" y="1258.6666666666667" type="curve" smooth="yes"/>
      <point x="230.1060606060606" y="873.7575757575758" type="line" smooth="yes"/>
      <point x="230.1060606060606" y="764.1363636363636"/>
      <point x="174.4090909090909" y="713.2878787878788"/>
      <point x="70.84848484848484" y="713.2878787878788" type="curve" smooth="yes"/>
      <point x="30.454545454545453" y="713.2878787878788" type="line"/>
      <point x="30.454545454545453" y="538.5909090909091" type="line"/>
      <point x="70.84848484848484" y="538.5909090909091" type="line" smooth="yes"/>
      <point x="174.4090909090909" y="538.5909090909091"/>
      <point x="230.1060606060606" y="487.74242424242425"/>
      <point x="230.1060606060606" y="378.1212121212121" type="curve" smooth="yes"/>
      <point x="230.1060606060606" y="-82.66666666666667" type="line" smooth="yes"/>
      <point x="230.1060606060606" y="-332.3333333333333"/>
      <point x="367.4848484848485" y="-460.0"/>
    </contour>
  </outline>
</glyph>
<glyph name="bar" format="2">
  <advance width="539.0"/>
  <unicode hex="007C"/>
  <outline>
    <contour>
      <point x="170.1060606060606" y="-440.0" type="line"/>
      <point x="368.8939393939394" y="-440.0" type="line"/>
      <point x="368.8939393939394" y="1616.0" type="line"/>
      <point x="170.1060606060606" y="1616.0" type="line"/>
    </contour>
  </outline>
</glyph>
<glyph name="braceright" format="2">
  <advance width="756.4242424242425"/>
  <unicode hex="007D"/>
  <outline>
    <contour>
      <point x="119.98484848484848" y="-460.0" type="curve" smooth="yes"/>
      <point x="388.93939393939394" y="-460.0"/>
      <point x="526.3181818181819" y="-332.3333333333333"/>
      <point x="526.3181818181819" y="-82.66666666666667" type="curve" smooth="yes"/>
      <point x="526.3181818181819" y="378.1212121212121" type="line" smooth="yes"/>
      <point x="526.3181818181819" y="487.74242424242425"/>
      <point x="582.0151515151515" y="538.5909090909091"/>
      <point x="685.5757575757576" y="538.5909090909091" type="curve" smooth="yes"/>
      <point x="725.969696969697" y="538.5909090909091" type="line"/>
      <point x="725.969696969697" y="713.2878787878788" type="line"/>
      <point x="685.5757575757576" y="713.2878787878788" type="line" smooth="yes"/>
      <point x="582.0151515151515" y="713.2878787878788"/>
      <point x="526.3181818181819" y="764.1363636363636"/>
      <point x="526.3181818181819" y="873.7575757575758" type="curve" smooth="yes"/>
      <point x="526.3181818181819" y="1258.6666666666667" type="line" smooth="yes"/>
      <point x="526.3181818181819" y="1508.3333333333333"/>
      <point x="388.93939393939394" y="1636.0"/>
      <point x="119.98484848484848" y="1636.0" type="curve" smooth="yes"/>
      <point x="61.6060606060606" y="1636.0"/>
      <point x="7.924242424242422" y="1631.2121212121212"/>
      <point x="-33.696969696969695" y="1624.4242424242425" type="curve"/>
      <point x="-33.696969696969695" y="1457.7272727272727" type="line"/>
      <point x="89.71212121212122" y="1457.7272727272727" type="line" smooth="yes"/>
      <point x="236.34848484848484" y="1457.7272727272727"/>
      <point x="310.0" y="1399.909090909091"/>
      <point x="310.0" y="1252.3636363636363" type="curve" smooth="yes"/>
      <point x="310.0" y="880.4848484848485" type="line" smooth="yes"/>
      <point x="310.0" y="714.7878787878788"/>
      <point x="383.3787878787879" y="628.6060606060606"/>
      <point x="557.2424242424242" y="612.8484848484849" type="curve"/>
      <point x="557.2424242424242" y="639.030303030303" type="line"/>
      <point x="383.3787878787879" y="623.2727272727273"/>
      <point x="310.0" y="537.0909090909091"/>
      <point x="310.0" y="371.3939393939394" type="curve" smooth="yes"/>
      <point x="310.0" y="-76.36363636363636" type="line" smooth="yes"/>
      <point x="310.0" y="-223.9090909090909"/>
      <point x="236.34848484848484" y="-281.72727272727275"/>
      <point x="89.71212121212122" y="-281.72727272727275" type="curve" smooth="yes"/>
      <point x="-33.696969696969695" y="-281.72727272727275" type="line"/>
      <point x="-33.696969696969695" y="-448.42424242424244" type="line"/>
      <point x="7.924242424242422" y="-455.2121212121212"/>
      <point x="61.6060606060606" y="-460.0"/>
    </contour>
  </outline>
</glyph>
<glyph name="asciitilde" format="2">
  <advance width="1112.969696969697"/>
  <unicode hex="007E"/>
  <outline>
    <contour>
      <point x="743.8484848484849" y="614.7575757575758" type="curve" smooth="yes"/>
      <point x="835.8333333333334" y="614.7575757575758"/>
      <point x="908.9848484848485" y="645.969696969697"/>
      <point x="963.4242424242424" y="709.4848484848485" type="curve"/>
      <point x="963.4242424242424" y="889.969696969697" type="line"/>
      <point x="897.6060606060606" y="815.6060606060606"/>
      <point x="829.469696969697" y="781.1818181818181"/>
      <point x="744.2121212121212" y="781.1818181818181" type="curve" smooth="yes"/>
      <point x="628.0" y="781.1818181818181"/>
      <point x="515.3030303030303" y="897.969696969697"/>
      <point x="369.1212121212121" y="897.969696969697" type="curve" smooth="yes"/>
      <point x="277.1363636363636" y="897.969696969697"/>
      <point x="203.9848484848485" y="866.7575757575758"/>
      <point x="149.54545454545453" y="803.2424242424242" type="curve"/>
      <point x="149.54545454545453" y="622.7575757575758" type="line"/>
      <point x="215.36363636363637" y="697.1212121212121"/>
      <point x="283.5" y="731.5454545454545"/>
      <point x="368.75757575757575" y="731.5454545454545" type="curve" smooth="yes"/>
      <point x="484.969696969697" y="731.5454545454545"/>
      <point x="597.6666666666666" y="614.7575757575758"/>
    </contour>
  </outline>
</glyph>
<glyph name="exclamdown" format="2">
  <advance width="559.2121212121212"/>
  <unicode hex="00A1"/>
  <outline>
    <contour>
      <point x="213.45454545454544" y="673.7878787878788" type="line"/>
      <point x="165.21212121212122" y="149.62121212121212" type="line"/>
      <point x="165.21212121212122" y="-380.0" type="line"/>
      <point x="394.0" y="-380.0" type="line"/>
      <point x="394.0" y="149.62121212121212" type="line"/>
      <point x="347.92424242424244" y="673.7878787878788" type="line"/>
    </contour>
    <contour>
      <point x="279.6060606060606" y="1101.8181818181818" type="curve" smooth="yes"/>
      <point x="189.83333333333334" y="1101.8181818181818"/>
      <point x="132.12121212121212" y="1049.2575757575758"/>
      <point x="132.12121212121212" y="964.7727272727273" type="curve" smooth="yes"/>
      <point x="132.12121212121212" y="880.2878787878788"/>
      <point x="188.25757575757575" y="826.5151515151515"/>
      <point x="279.6060606060606" y="826.5151515151515" type="curve" smooth="yes"/>
      <point x="370.95454545454544" y="826.5151515151515"/>
      <point x="427.09090909090907" y="881.8636363636364"/>
      <point x="427.09090909090907" y="964.7727272727273" type="curve" smooth="yes"/>
      <point x="427.09090909090907" y="1047.6818181818182"/>
      <point x="369.3787878787879" y="1101.8181818181818"/>
    </contour>
  </outline>
</glyph>
<glyph name="cent" format="2">
  <advance width="983.0"/>
  <unicode hex="00A2"/>
  <outline>
    <contour>
      <point x="637.0151515151515" y="-19.575757575757574" type="curve" smooth="yes"/>
      <point x="738.530303030303" y="-19.575757575757574"/>
      <point x="838.1212121212121" y="-3.0757575757575757"/>
      <point x="925.0909090909091" y="26.984848484848484" type="curve"/>
      <point x="925.0909090909091" y="201.74242424242425" type="line"/>
      <point x="819.3030303030303" y="170.15151515151513"/>
      <point x="740.9848484848485" y="157.12121212121212"/>
      <point x="663.8030303030303" y="157.12121212121212" type="curve" smooth="yes"/>
      <point x="437.3939393939394" y="157.12121212121212"/>
      <point x="317.6363636363636" y="268.2121212121212"/>
      <point x="317.6363636363636" y="545.5757575757576" type="curve" smooth="yes"/>
      <point x="317.6363636363636" y="817.3181818181819"/>
      <point x="435.9545454545455" y="927.969696969697"/>
      <point x="693.8939393939394" y="927.969696969697" type="curve" smooth="yes"/>
      <point x="773.6969696969697" y="927.969696969697"/>
      <point x="844.9242424242424" y="917.939393939394"/>
      <point x="925.0909090909091" y="899.5757575757576" type="curve"/>
      <point x="925.0909090909091" y="1074.3333333333333" type="line"/>
      <point x="845.5454545454545" y="1094.7575757575758"/>
      <point x="764.060606060606" y="1104.6666666666667"/>
      <point x="673.7424242424242" y="1104.6666666666667" type="curve" smooth="yes"/>
      <point x="299.1060606060606" y="1104.6666666666667"/>
      <point x="94.95454545454545" y="925.0757575757576"/>
      <point x="94.95454545454545" y="542.560606060606" type="curve" smooth="yes"/>
      <point x="94.95454545454545" y="160.5151515151515"/>
      <point x="287.8181818181818" y="-19.575757575757574"/>
    </contour>
    <contour>
      <point x="523.0757575757576" y="-240.0" type="line"/>
      <point x="711.560606060606" y="-240.0" type="line"/>
      <point x="711.560606060606" y="23.636363636363637" type="line"/>
      <point x="523.0757575757576" y="23.636363636363637" type="line"/>
    </contour>
    <contour>
      <point x="523.0757575757576" y="1064.2424242424242" type="line"/>
      <point x="711.560606060606" y="1064.2424242424242" type="line"/>
      <point x="711.560606060606" y="1327.878787878788" type="line"/>
      <point x="523.0757575757576" y="1327.878787878788" type="line"/>
    </contour>
  </outline>
</glyph>
<glyph name="sterling" format="2">
  <advance width="1380.1060606060605"/>
  <unicode hex="00A3"/>
  <outline>
    <contour>
      <point x="304.54545454545456" y="68.24242424242425" type="line"/>
      <point x="517.909090909091" y="68.24242424242425" type="line"/>
      <point x="517.909090909091" y="1024.2121212121212" type="line" smooth="yes"/>
      <point x="517.909090909091" y="1240.090909090909"/>
      <point x="637.560606060606" y="1319.530303030303"/>
      <point x="906.2575757575758" y="1319.530303030303" type="curve" smooth="yes"/>
      <point x="1020.6515151515151" y="1319.530303030303"/>
      <point x="1145.151515151515" y="1302.7424242424242"/>
      <point x="1251.969696969697" y="1270.9848484848485" type="curve"/>
      <point x="1251.969696969697" y="1453.030303030303" type="line"/>
      <point x="1150.2575757575758" y="1482.090909090909"/>
      <point x="1024.4545454545455" y="1498.7878787878788"/>
      <point x="897.5454545454545" y="1498.7878787878788" type="curve" smooth="yes"/>
      <point x="504.6060606060606" y="1498.7878787878788"/>
      <point x="304.54545454545456" y="1340.5"/>
      <point x="304.54545454545456" y="1015.5454545454545" type="curve" smooth="yes"/>
    </contour>
    <contour>
      <point x="80.0" y="0.0" type="line"/>
      <point x="1298.5" y="0.0" type="line"/>
      <point x="1298.5" y="175.0909090909091" type="line"/>
      <point x="80.0" y="175.0909090909091" type="line"/>
    </contour>
    <contour>
      <point x="80.0" y="668.560606060606" type="line"/>
      <point x="1053.1818181818182" y="668.560606060606" type="line"/>
      <point x="1053.1818181818182" y="831.439393939394" type="line"/>
      <point x="80.0" y="831.439393939394" type="line"/>
    </contour>
  </outline>
</glyph>
<glyph name="currency" format="2">
  <advance width="1240.6060606060605"/>
  <unicode hex="00A4"/>
  <outline>
    <contour>
      <point x="396.3030303030303" y="884.8484848484849" type="line"/>
      <point x="475.4545454545455" y="962.7878787878788" type="line"/>
      <point x="337.5151515151515" y="1130.3030303030303" type="line"/>
      <point x="228.5151515151515" y="1242.5151515151515" type="line"/>
      <point x="116.57575757575758" y="1130.5757575757575" type="line"/>
      <point x="230.0" y="1021.5757575757576" type="line"/>
    </contour>
    <contour>
      <point x="844.3030303030303" y="884.8484848484849" type="line"/>
      <point x="1010.6060606060606" y="1021.5757575757576" type="line"/>
      <point x="1124.030303030303" y="1130.5757575757575" type="line"/>
      <point x="1012.0909090909091" y="1242.5151515151515" type="line"/>
      <point x="903.0909090909091" y="1130.3030303030303" type="line"/>
      <point x="765.1515151515151" y="962.7878787878788" type="line"/>
    </contour>
    <contour>
      <point x="1010.8787878787879" y="237.4848484848485" type="line"/>
      <point x="1122.8181818181818" y="349.42424242424244" type="line"/>
      <point x="1010.6060606060606" y="458.42424242424244" type="line"/>
      <point x="850.3636363636364" y="589.0909090909091" type="line"/>
      <point x="771.2121212121212" y="508.72727272727275" type="line"/>
      <point x="901.8787878787879" y="349.6969696969697" type="line"/>
    </contour>
    <contour>
      <point x="229.72727272727272" y="237.4848484848485" type="line"/>
      <point x="338.72727272727275" y="349.6969696969697" type="line"/>
      <point x="469.3939393939394" y="508.72727272727275" type="line"/>
      <point x="390.24242424242425" y="589.0909090909091" type="line"/>
      <point x="230.0" y="458.42424242424244" type="line"/>
      <point x="117.78787878787878" y="349.42424242424244" type="line"/>
    </contour>
    <contour>
      <point x="620.3030303030303" y="388.42424242424244" type="curve" smooth="yes"/>
      <point x="820.3030303030303" y="388.42424242424244"/>
      <point x="963.3333333333333" y="528.7878787878788"/>
      <point x="963.3333333333333" y="740.0" type="curve" smooth="yes"/>
      <point x="963.3333333333333" y="949.2121212121212"/>
      <point x="820.3030303030303" y="1089.5757575757575"/>
      <point x="620.3030303030303" y="1089.5757575757575" type="curve" smooth="yes"/>
      <point x="419.0909090909091" y="1089.5757575757575"/>
      <point x="277.27272727272725" y="949.2121212121212"/>
      <point x="277.27272727272725" y="740.0" type="curve" smooth="yes"/>
      <point x="277.27272727272725" y="528.7878787878788"/>
      <point x="419.0909090909091" y="388.42424242424244"/>
    </contour>
    <contour>
      <point x="620.3030303030303" y="514.2424242424242" type="curve" smooth="yes"/>
      <point x="496.9090909090909" y="514.2424242424242"/>
      <point x="410.1818181818182" y="598.1818181818181"/>
      <point x="410.1818181818182" y="740.0" type="curve" smooth="yes"/>
      <point x="410.1818181818182" y="881.8181818181819"/>
      <point x="496.9090909090909" y="965.7575757575758"/>
      <point x="622.3030303030303" y="965.7575757575758" type="curve" smooth="yes"/>
      <point x="753.7575757575758" y="965.7575757575758"/>
      <point x="830.4242424242424" y="871.3939393939394"/>
      <point x="830.4242424242424" y="740.0" type="curve" smooth="yes"/>
      <point x="830.4242424242424" y="596.969696969697"/>
      <point x="743.6969696969697" y="514.2424242424242"/>
    </contour>
  </outline>
</glyph>
<glyph name="yen" format="2">
  <advance width="1312.5"/>
  <unicode hex="00A5"/>
  <outline>
    <contour>
      <point x="547.3030303030303" y="0.0" type="line"/>
      <point x="767.7575757575758" y="0.0" type="line"/>
      <point x="767.7575757575758" y="733.2878787878788" type="line"/>
      <point x="721.1818181818182" y="578.1363636363636" type="line"/>
      <point x="1324.439393939394" y="1480.0" type="line"/>
      <point x="1099.439393939394" y="1480.0" type="line"/>
      <point x="626.3484848484849" y="778.469696969697" type="line"/>
      <point x="697.6212121212121" y="778.469696969697" type="line"/>
      <point x="222.07575757575756" y="1480.0" type="line"/>
      <point x="-18.43939393939394" y="1480.0" type="line"/>
      <point x="593.8787878787879" y="578.1363636363636" type="line"/>
      <point x="547.3030303030303" y="735.6515151515151" type="line"/>
    </contour>
    <contour>
      <point x="221.24242424242425" y="284.3484848484849" type="line"/>
      <point x="1093.8181818181818" y="284.3484848484849" type="line"/>
      <point x="1093.8181818181818" y="420.04545454545456" type="line"/>
      <point x="221.24242424242425" y="420.04545454545456" type="line"/>
    </contour>
    <contour>
      <point x="221.24242424242425" y="627.9545454545455" type="line"/>
      <point x="1093.8181818181818" y="627.9545454545455" type="line"/>
      <point x="1093.8181818181818" y="763.6515151515151" type="line"/>
      <point x="221.24242424242425" y="763.6515151515151" type="line"/>
    </contour>
  </outline>
</glyph>
<glyph name="brokenbar" format="2">
  <advance width="539.0"/>
  <unicode hex="00A6"/>
  <outline>
    <contour>
      <point x="170.1060606060606" y="836.0" type="line"/>
      <point x="368.8939393939394" y="836.0" type="line"/>
      <point x="368.8939393939394" y="1616.0" type="line"/>
      <point x="170.1060606060606" y="1616.0" type="line"/>
    </contour>
    <contour>
      <point x="170.1060606060606" y="-440.0" type="line"/>
      <point x="368.8939393939394" y="-440.0" type="line"/>
      <point x="368.8939393939394" y="340.0" type="line"/>
      <point x="170.1060606060606" y="340.0" type="line"/>
    </contour>
  </outline>
</glyph>
<glyph name="section" format="2">
  <advance width="1124.969696969697"/>
  <unicode hex="00A7"/>
  <outline>
    <contour>
      <point x="487.3484848484849" y="-19.575757575757574" type="curve" smooth="yes"/>
      <point x="810.2272727272727" y="-19.575757575757574"/>
      <point x="964.6515151515152" y="106.66666666666667"/>
      <point x="964.6515151515152" y="307.1969696969697" type="curve" smooth="yes"/>
      <point x="964.6515151515152" y="463.8787878787879"/>
      <point x="870.3030303030303" y="549.8939393939394"/>
      <point x="671.060606060606" y="588.5454545454545" type="curve" smooth="yes"/>
      <point x="471.3636363636364" y="625.4242424242424" type="line" smooth="yes"/>
      <point x="345.8030303030303" y="650.0454545454545"/>
      <point x="305.9090909090909" y="708.1515151515151"/>
      <point x="305.9090909090909" y="786.469696969697" type="curve" smooth="yes"/>
      <point x="305.9090909090909" y="842.7575757575758"/>
      <point x="331.43939393939394" y="893.3636363636364"/>
      <point x="390.8484848484849" y="937.030303030303" type="curve"/>
      <point x="272.969696969697" y="1019.5151515151515" type="line"/>
      <point x="177.1060606060606" y="962.6666666666666"/>
      <point x="122.3939393939394" y="879.5151515151515"/>
      <point x="122.3939393939394" y="774.1212121212121" type="curve" smooth="yes"/>
      <point x="122.3939393939394" y="610.1818181818182"/>
      <point x="218.78787878787878" y="514.8787878787879"/>
      <point x="409.74242424242425" y="477.8181818181818" type="curve" smooth="yes"/>
      <point x="608.8484848484849" y="441.3333333333333" type="line" smooth="yes"/>
      <point x="723.7878787878788" y="419.07575757575756"/>
      <point x="764.7272727272727" y="376.7878787878788"/>
      <point x="764.7272727272727" y="292.9090909090909" type="curve" smooth="yes"/>
      <point x="764.7272727272727" y="194.42424242424244"/>
      <point x="693.6363636363636" y="133.87878787878788"/>
      <point x="487.3181818181818" y="133.87878787878788" type="curve" smooth="yes"/>
      <point x="377.5909090909091" y="133.87878787878788"/>
      <point x="273.27272727272725" y="145.75757575757575"/>
      <point x="156.10606060606062" y="178.1818181818182" type="curve"/>
      <point x="156.10606060606062" y="23.515151515151516" type="line"/>
      <point x="259.75757575757575" y="-6.090909090909091"/>
      <point x="375.5" y="-19.575757575757574"/>
    </contour>
    <contour>
      <point x="848.7727272727273" y="457.27272727272725" type="line"/>
      <point x="944.4242424242425" y="514.6060606060606"/>
      <point x="1002.5757575757575" y="597.2121212121212"/>
      <point x="1002.5757575757575" y="708.1818181818181" type="curve" smooth="yes"/>
      <point x="1002.5757575757575" y="874.1212121212121"/>
      <point x="908.2272727272727" y="963.7121212121212"/>
      <point x="711.1515151515151" y="1000.7878787878788" type="curve" smooth="yes"/>
      <point x="506.1363636363636" y="1036.4848484848485" type="line" smooth="yes"/>
      <point x="391.8030303030303" y="1058.7424242424242"/>
      <point x="354.3333333333333" y="1109.3333333333333"/>
      <point x="354.3333333333333" y="1182.7272727272727" type="curve" smooth="yes"/>
      <point x="354.3333333333333" y="1271.4545454545455"/>
      <point x="423.0454545454545" y="1343.3333333333333"/>
      <point x="660.3030303030303" y="1343.3333333333333" type="curve" smooth="yes"/>
      <point x="750.1666666666666" y="1343.3333333333333"/>
      <point x="829.7272727272727" y="1334.3333333333333"/>
      <point x="924.469696969697" y="1310.4848484848485" type="curve"/>
      <point x="924.469696969697" y="1465.1515151515152" type="line"/>
      <point x="839.0909090909091" y="1485.7878787878788"/>
      <point x="743.1212121212121" y="1496.7878787878788"/>
      <point x="646.3181818181818" y="1496.7878787878788" type="curve" smooth="yes"/>
      <point x="297.8787878787879" y="1496.7878787878788"/>
      <point x="154.4090909090909" y="1361.909090909091"/>
      <point x="154.4090909090909" y="1171.1666666666667" type="curve" smooth="yes"/>
      <point x="154.4090909090909" y="1020.4242424242424"/>
      <point x="250.0151515151515" y="927.7121212121212"/>
      <point x="449.83333333333337" y="889.2727272727273" type="curve" smooth="yes"/>
      <point x="648.939393939394" y="852.3939393939394" type="line" smooth="yes"/>
      <point x="775.1060606060606" y="827.7727272727273"/>
      <point x="819.060606060606" y="777.969696969697"/>
      <point x="819.060606060606" y="690.1515151515151" type="curve" smooth="yes"/>
      <point x="819.060606060606" y="626.5909090909091"/>
      <point x="789.9848484848485" y="579.469696969697"/>
      <point x="723.3333333333333" y="536.7424242424242" type="curve"/>
    </contour>
  </outline>
</glyph>
<glyph name="copyright" format="2">
  <advance width="1708.1515151515152"/>
  <unicode hex="00A9"/>
  <outline>
    <contour>
      <point x="854.0757575757576" y="-22.0" type="curve" smooth="yes"/>
      <point x="1302.439393939394" y="-22.0"/>
      <point x="1600.439393939394" y="282.0"/>
      <point x="1600.439393939394" y="740.0" type="curve" smooth="yes"/>
      <point x="1600.439393939394" y="1198.0"/>
      <point x="1302.439393939394" y="1502.0"/>
      <point x="854.0757575757576" y="1502.0" type="curve" smooth="yes"/>
      <point x="405.7121212121212" y="1502.0"/>
      <point x="107.71212121212122" y="1198.0"/>
      <point x="107.71212121212122" y="740.0" type="curve" smooth="yes"/>
      <point x="107.71212121212122" y="282.0"/>
      <point x="405.7121212121212" y="-22.0"/>
    </contour>
    <contour>
      <point x="902.2575757575758" y="324.0" type="curve" smooth="yes"/>
      <point x="981.8333333333334" y="324.0"/>
      <point x="1053.8333333333333" y="336.0"/>
      <point x="1114.7424242424242" y="361.27272727272725" type="curve"/>
      <point x="1114.7424242424242" y="499.75757575757575" type="line"/>
      <point x="1034.3181818181818" y="473.27272727272725"/>
      <point x="974.1363636363636" y="464.8484848484849"/>
      <point x="916.9242424242424" y="464.8484848484849" type="curve" smooth="yes"/>
      <point x="754.0151515151515" y="464.8484848484849"/>
      <point x="655.6515151515151" y="552.7878787878788"/>
      <point x="655.6515151515151" y="735.6363636363636" type="curve" smooth="yes"/>
      <point x="655.6515151515151" y="915.6363636363636"/>
      <point x="751.6515151515151" y="1003.1515151515151"/>
      <point x="934.9848484848485" y="1003.1515151515151" type="curve" smooth="yes"/>
      <point x="999.469696969697" y="1003.1515151515151"/>
      <point x="1053.530303030303" y="994.7272727272727"/>
      <point x="1114.7424242424242" y="979.8787878787879" type="curve"/>
      <point x="1114.7424242424242" y="1118.3636363636363" type="line"/>
      <point x="1053.8939393939395" y="1136.0"/>
      <point x="993.1060606060606" y="1144.0"/>
      <point x="922.7424242424242" y="1144.0" type="curve" smooth="yes"/>
      <point x="652.439393939394" y="1144.0"/>
      <point x="493.8333333333333" y="994.4242424242424"/>
      <point x="493.8333333333333" y="733.2121212121212" type="curve" smooth="yes"/>
      <point x="493.8333333333333" y="466.72727272727275"/>
      <point x="655.7121212121212" y="324.0"/>
    </contour>
    <contour>
      <point x="854.0757575757576" y="102.72727272727272" type="curve" smooth="yes"/>
      <point x="474.8636363636364" y="102.72727272727272"/>
      <point x="236.37878787878788" y="352.72727272727275"/>
      <point x="236.37878787878788" y="740.0" type="curve" smooth="yes"/>
      <point x="236.37878787878788" y="1127.2727272727273"/>
      <point x="474.8636363636364" y="1377.2727272727273"/>
      <point x="854.0757575757576" y="1377.2727272727273" type="curve" smooth="yes"/>
      <point x="1233.2878787878788" y="1377.2727272727273"/>
      <point x="1471.7727272727273" y="1127.2727272727273"/>
      <point x="1471.7727272727273" y="740.0" type="curve" smooth="yes"/>
      <point x="1471.7727272727273" y="352.72727272727275"/>
      <point x="1233.2878787878788" y="102.72727272727272"/>
    </contour>
  </outline>
</glyph>
<glyph name="ordfeminine" format="2">
  <advance width="950.969696969697"/>
  <unicode hex="00AA"/>
  <outline>
    <contour>
      <point x="369.8939393939394" y="594.4242424242424" type="curve" smooth="yes"/>
      <point x="479.72727272727275" y="594.4242424242424"/>
      <point x="583.3636363636364" y="633.7424242424242"/>
      <point x="645.8484848484849" y="703.560606060606" type="curve"/>
      <point x="656.3787878787879" y="703.560606060606" type="line"/>
      <point x="671.439393939394" y="610.0" type="line"/>
      <point x="840.3030303030303" y="610.0" type="line"/>
      <point x="840.3030303030303" y="1145.530303030303" type="line" smooth="yes"/>
      <point x="840.3030303030303" y="1409.0"/>
      <point x="707.9090909090909" y="1495.939393939394"/>
      <point x="431.5909090909091" y="1495.939393939394" type="curve" smooth="yes"/>
      <point x="337.1969696969697" y="1495.939393939394"/>
      <point x="226.8939393939394" y="1482.7272727272727"/>
      <point x="135.71212121212122" y="1454.621212121212" type="curve"/>
      <point x="135.71212121212122" y="1304.939393939394" type="line"/>
      <point x="225.1818181818182" y="1332.6060606060605"/>
      <point x="321.3181818181818" y="1345.3030303030303"/>
      <point x="399.1515151515151" y="1345.3030303030303" type="curve" smooth="yes"/>
      <point x="570.0757575757576" y="1345.3030303030303"/>
      <point x="639.8030303030303" y="1303.2121212121212"/>
      <point x="639.8030303030303" y="1170.560606060606" type="curve" smooth="yes"/>
      <point x="639.8030303030303" y="814.2121212121212" type="line"/>
      <point x="581.2424242424242" y="758.0"/>
      <point x="505.3484848484849" y="732.2575757575758"/>
      <point x="433.1060606060606" y="732.2575757575758" type="curve" smooth="yes"/>
      <point x="321.06060606060606" y="732.2575757575758"/>
      <point x="268.80303030303025" y="779.9090909090909"/>
      <point x="268.80303030303025" y="861.2575757575758" type="curve" smooth="yes"/>
      <point x="268.80303030303025" y="939.3787878787879"/>
      <point x="320.5909090909091" y="983.3030303030303"/>
      <point x="455.0" y="996.2121212121212" type="curve" smooth="yes"/>
      <point x="704.060606060606" y="1018.1818181818181" type="line"/>
      <point x="685.0454545454545" y="1124.5454545454545" type="line"/>
      <point x="427.5" y="1101.7878787878788" type="line" smooth="yes"/>
      <point x="174.15151515151516" y="1082.8030303030303"/>
      <point x="68.43939393939394" y="997.6818181818181"/>
      <point x="68.43939393939394" y="840.1060606060606" type="curve" smooth="yes"/>
      <point x="68.43939393939394" y="692.7575757575758"/>
      <point x="173.54545454545456" y="594.4242424242424"/>
    </contour>
  </outline>
</glyph>
<glyph name="guillemetleft" format="2">
  <advance width="1163.6969696969697"/>
  <unicode hex="00AB"/>
  <outline>
    <contour>
      <point x="393.5151515151515" y="136.06060606060606" type="line"/>
      <point x="619.4242424242424" y="136.06060606060606" type="line"/>
      <point x="336.1212121212121" y="563.939393939394" type="line"/>
      <point x="619.4242424242424" y="991.8181818181819" type="line"/>
      <point x="393.5151515151515" y="991.8181818181819" type="line"/>
      <point x="110.21212121212122" y="563.939393939394" type="line"/>
    </contour>
    <contour>
      <point x="867.5757575757575" y="136.06060606060606" type="line"/>
      <point x="1093.4848484848485" y="136.06060606060606" type="line"/>
      <point x="810.1818181818181" y="563.939393939394" type="line"/>
      <point x="1093.4848484848485" y="991.8181818181819" type="line"/>
      <point x="867.5757575757575" y="991.8181818181819" type="line"/>
      <point x="584.2727272727273" y="563.939393939394" type="line"/>
    </contour>
  </outline>
</glyph>
<glyph name="logicalnot" format="2">
  <advance width="1379.8181818181818"/>
  <unicode hex="00AC"/>
  <outline>
    <contour>
      <point x="1062.2878787878788" y="197.12121212121212" type="line"/>
      <point x="1239.409090909091" y="197.12121212121212" type="line"/>
      <point x="1239.409090909091" y="844.3939393939394" type="line"/>
      <point x="149.54545454545453" y="844.3939393939394" type="line"/>
      <point x="149.54545454545453" y="675.6060606060606" type="line"/>
      <point x="1062.2878787878788" y="675.6060606060606" type="line"/>
    </contour>
  </outline>
</glyph>
<glyph name="registered" format="2">
  <advance width="1505.7272727272727"/>
  <unicode hex="00AE"/>
  <outline>
    <contour>
      <point x="752.8636363636364" y="268.0" type="curve" smooth="yes"/>
      <point x="1114.8636363636363" y="268.0"/>
      <point x="1362.8636363636363" y="518.0"/>
      <point x="1362.8636363636363" y="882.0" type="curve" smooth="yes"/>
      <point x="1362.8636363636363" y="1246.0"/>
      <point x="1114.8636363636363" y="1498.0"/>
      <point x="752.8636363636364" y="1498.0" type="curve" smooth="yes"/>
      <point x="390.8636363636364" y="1498.0"/>
      <point x="142.86363636363637" y="1246.0"/>
      <point x="142.86363636363637" y="882.0" type="curve" smooth="yes"/>
      <point x="142.86363636363637" y="518.0"/>
      <point x="390.8636363636364" y="268.0"/>
    </contour>
    <contour>
      <point x="902.5" y="600.0" type="line"/>
      <point x="1020.2575757575758" y="600.0" type="line"/>
      <point x="853.7121212121212" y="844.2424242424242" type="line"/>
      <point x="752.7424242424242" y="818.2424242424242" type="line"/>
    </contour>
    <contour>
      <point x="752.8636363636364" y="369.45454545454544" type="curve" smooth="yes"/>
      <point x="448.5" y="369.45454545454544"/>
      <point x="250.25757575757575" y="571.2727272727273"/>
      <point x="250.25757575757575" y="882.0" type="curve" smooth="yes"/>
      <point x="250.25757575757575" y="1193.5151515151515"/>
      <point x="448.5" y="1396.5454545454545"/>
      <point x="752.8636363636364" y="1396.5454545454545" type="curve" smooth="yes"/>
      <point x="1057.2272727272727" y="1396.5454545454545"/>
      <point x="1255.469696969697" y="1193.5151515151515"/>
      <point x="1255.469696969697" y="882.0" type="curve" smooth="yes"/>
      <point x="1255.469696969697" y="571.2727272727273"/>
      <point x="1057.2272727272727" y="369.45454545454544"/>
    </contour>
    <contour>
      <point x="539.3484848484849" y="600.0" type="line"/>
      <point x="644.7424242424242" y="600.0" type="line"/>
      <point x="647.1060606060606" y="810.2424242424242" type="line"/>
      <point x="741.2272727272727" y="810.2424242424242" type="line" smooth="yes"/>
      <point x="910.3181818181819" y="810.2424242424242"/>
      <point x="993.1060606060606" y="875.4545454545455"/>
      <point x="993.1060606060606" y="1000.1212121212121" type="curve" smooth="yes"/>
      <point x="993.1060606060606" y="1124.7878787878788"/>
      <point x="908.3181818181819" y="1192.0"/>
      <point x="741.2272727272727" y="1192.0" type="curve" smooth="yes"/>
      <point x="539.3484848484849" y="1192.0" type="line"/>
    </contour>
    <contour>
      <point x="647.1060606060606" y="899.8181818181819" type="line"/>
      <point x="647.1060606060606" y="1102.4242424242425" type="line"/>
      <point x="758.7424242424242" y="1102.4242424242425" type="line" smooth="yes"/>
      <point x="845.530303030303" y="1102.4242424242425"/>
      <point x="889.2878787878788" y="1068.7272727272727"/>
      <point x="889.2878787878788" y="1000.1212121212121" type="curve" smooth="yes"/>
      <point x="889.2878787878788" y="931.5151515151515"/>
      <point x="847.530303030303" y="899.8181818181819"/>
      <point x="758.7424242424242" y="899.8181818181819" type="curve" smooth="yes"/>
    </contour>
  </outline>
</glyph>
<glyph name="macron" format="2">
  <advance width="1139.3939393939395"/>
  <unicode hex="00AF"/>
  <anchor x="569.6969696969697" y="1200.0" name="_top"/>
  <anchor x="569.6969696969697" y="1579.6363636363637" name="top"/>
  <outline>
    <contour>
      <point x="230.21212121212122" y="1354.8030303030303" type="line"/>
      <point x="909.1818181818182" y="1354.8030303030303" type="line"/>
      <point x="909.1818181818182" y="1488.9545454545455" type="line"/>
      <point x="230.21212121212122" y="1488.9545454545455" type="line"/>
    </contour>
  </outline>
</glyph>
<glyph name="degree" format="2">
  <advance width="1010.1515151515151"/>
  <unicode hex="00B0"/>
  <outline>
    <contour>
      <point x="505.07575757575756" y="778.6666666666666" type="curve" smooth="yes"/>
      <point x="715.469696969697" y="778.6666666666666"/>
      <point x="867.2878787878788" y="930.1212121212121"/>
      <point x="867.2878787878788" y="1138.5151515151515" type="curve" smooth="yes"/>
      <point x="867.2878787878788" y="1346.909090909091"/>
      <point x="715.469696969697" y="1497.5757575757575"/>
      <point x="505.07575757575756" y="1497.5757575757575" type="curve" smooth="yes"/>
      <point x="294.6818181818182" y="1497.5757575757575"/>
      <point x="142.86363636363637" y="1346.909090909091"/>
      <point x="142.86363636363637" y="1138.5151515151515" type="curve" smooth="yes"/>
      <point x="142.86363636363637" y="930.1212121212121"/>
      <point x="294.6818181818182" y="778.6666666666666"/>
    </contour>
    <contour>
      <point x="505.07575757575756" y="912.9848484848485" type="curve" smooth="yes"/>
      <point x="377.3030303030303" y="912.9848484848485"/>
      <point x="285.0" y="1000.0757575757576"/>
      <point x="285.0" y="1138.5151515151515" type="curve" smooth="yes"/>
      <point x="285.0" y="1277.5454545454545"/>
      <point x="378.0909090909091" y="1363.2575757575758"/>
      <point x="505.07575757575756" y="1363.2575757575758" type="curve" smooth="yes"/>
      <point x="632.060606060606" y="1363.2575757575758"/>
      <point x="725.1515151515151" y="1277.5454545454545"/>
      <point x="725.1515151515151" y="1138.5151515151515" type="curve" smooth="yes"/>
      <point x="725.1515151515151" y="1000.0757575757576"/>
      <point x="632.8484848484849" y="912.9848484848485"/>
    </contour>
  </outline>
</glyph>
<glyph name="plusminus" format="2">
  <advance width="1112.969696969697"/>
  <unicode hex="00B1"/>
  <outline>
    <contour>
      <point x="467.92424242424244" y="350.6666666666667" type="line"/>
      <point x="645.0454545454545" y="350.6666666666667" type="line"/>
      <point x="645.0454545454545" y="668.3636363636364" type="line"/>
      <point x="963.4242424242424" y="668.3636363636364" type="line"/>
      <point x="963.4242424242424" y="837.1515151515151" type="line"/>
      <point x="645.0454545454545" y="837.1515151515151" type="line"/>
      <point x="645.0454545454545" y="1154.8484848484848" type="line"/>
      <point x="467.92424242424244" y="1154.8484848484848" type="line"/>
      <point x="467.92424242424244" y="837.1515151515151" type="line"/>
      <point x="149.54545454545453" y="837.1515151515151" type="line"/>
      <point x="149.54545454545453" y="668.3636363636364" type="line"/>
      <point x="467.92424242424244" y="668.3636363636364" type="line"/>
    </contour>
    <contour>
      <point x="149.54545454545453" y="0.19696969696969702" type="line"/>
      <point x="963.4242424242424" y="0.19696969696969702" type="line"/>
      <point x="963.4242424242424" y="168.98484848484847" type="line"/>
      <point x="149.54545454545453" y="168.98484848484847" type="line"/>
    </contour>
  </outline>
</glyph>
<glyph name="threesuperior" format="2">
  <advance width="845.1515151515151"/>
  <unicode hex="00B3"/>
  <outline>
    <contour>
      <point x="347.5" y="-148.78787878787878" type="curve" smooth="yes"/>
      <point x="630.7121212121212" y="-148.78787878787878"/>
      <point x="761.5909090909091" y="-39.25757575757576"/>
      <point x="761.5909090909091" y="140.8030303030303" type="curve" smooth="yes"/>
      <point x="761.5909090909091" y="282.969696969697"/>
      <point x="670.7727272727273" y="368.4848484848485"/>
      <point x="514.0454545454545" y="388.969696969697" type="curve"/>
      <point x="514.0454545454545" y="375.1969696969697" type="line"/>
      <point x="642.6969696969697" y="402.8333333333333"/>
      <point x="726.3939393939394" y="488.8636363636364"/>
      <point x="726.3939393939394" y="612.8181818181819" type="curve" smooth="yes"/>
      <point x="726.3939393939394" y="780.060606060606"/>
      <point x="600.5454545454545" y="876.7878787878788"/>
      <point x="356.06060606060606" y="876.7878787878788" type="curve" smooth="yes"/>
      <point x="264.93939393939394" y="876.7878787878788"/>
      <point x="162.75757575757575" y="862.8181818181819"/>
      <point x="92.45454545454545" y="839.8030303030303" type="curve"/>
      <point x="92.45454545454545" y="705.8787878787879" type="line"/>
      <point x="169.5151515151515" y="733.3030303030303"/>
      <point x="260.1666666666667" y="746.1666666666666"/>
      <point x="338.77272727272725" y="746.1666666666666" type="curve" smooth="yes"/>
      <point x="485.5" y="746.1666666666666"/>
      <point x="556.4242424242424" y="692.9242424242424"/>
      <point x="556.4242424242424" y="599.469696969697" type="curve" smooth="yes"/>
      <point x="556.4242424242424" y="497.54545454545456"/>
      <point x="476.7878787878788" y="442.3787878787879"/>
      <point x="309.7121212121212" y="442.3787878787879" type="curve" smooth="yes"/>
      <point x="196.21212121212122" y="442.3787878787879" type="line"/>
      <point x="196.21212121212122" y="310.27272727272725" type="line"/>
      <point x="361.77272727272725" y="310.27272727272725" type="line" smooth="yes"/>
      <point x="525.1363636363636" y="310.27272727272725"/>
      <point x="594.5757575757576" y="252.77272727272728"/>
      <point x="594.5757575757576" y="151.5909090909091" type="curve" smooth="yes"/>
      <point x="594.5757575757576" y="42.83333333333333"/>
      <point x="516.7272727272727" y="-17.575757575757578"/>
      <point x="340.42424242424244" y="-17.575757575757578" type="curve" smooth="yes"/>
      <point x="256.1666666666667" y="-17.575757575757578"/>
      <point x="157.5909090909091" y="-4.2727272727272805"/>
      <point x="68.43939393939394" y="23.075757575757564" type="curve"/>
      <point x="68.43939393939394" y="-110.84848484848484" type="line"/>
      <point x="154.53030303030303" y="-136.07575757575756"/>
      <point x="251.95454545454544" y="-148.78787878787878"/>
    </contour>
  </outline>
</glyph>
<glyph name="acute" format="2">
  <advance width="1139.3939393939395"/>
  <unicode hex="00B4"/>
  <anchor x="569.6969696969697" y="1200.0" name="_top"/>
  <anchor x="569.6969696969697" y="1595.3939393939395" name="top"/>
  <outline>
    <contour>
      <point x="467.54545454545456" y="1246.6666666666667" type="line"/>
      <point x="671.8484848484849" y="1246.6666666666667" type="line"/>
      <point x="945.8939393939394" y="1616.0" type="line"/>
      <point x="708.5" y="1616.0" type="line"/>
    </contour>
  </outline>
</glyph>
<glyph name="micro" format="2">
  <advance width="1236.6515151515152"/>
  <unicode hex="00B5"/>
  <outline>
    <contour>
      <point x="563.3636363636364" y="-18.196969696969695" type="curve" smooth="yes"/>
      <point x="681.3030303030303" y="-18.196969696969695"/>
      <point x="792.9545454545455" y="27.939393939393938"/>
      <point x="878.4090909090909" y="115.75757575757576" type="curve"/>
      <point x="889.560606060606" y="115.75757575757576" type="line"/>
      <point x="904.2272727272727" y="0.0" type="line"/>
      <point x="1083.7878787878788" y="0.0" type="line"/>
      <point x="1083.7878787878788" y="1087.878787878788" type="line"/>
      <point x="867.469696969697" y="1087.878787878788" type="line"/>
      <point x="867.469696969697" y="298.75757575757575" type="line"/>
      <point x="790.7575757575758" y="209.4090909090909"/>
      <point x="676.4090909090909" y="168.93939393939394"/>
      <point x="576.9848484848485" y="168.93939393939394" type="curve" smooth="yes"/>
      <point x="444.9848484848485" y="168.93939393939394"/>
      <point x="356.72727272727275" y="229.5151515151515"/>
      <point x="356.72727272727275" y="409.75757575757575" type="curve" smooth="yes"/>
      <point x="356.72727272727275" y="563.6363636363636" type="line"/>
      <point x="237.8181818181818" y="563.6363636363636" type="line"/>
      <point x="237.8181818181818" y="398.22727272727275" type="line" smooth="yes"/>
      <point x="237.8181818181818" y="97.36363636363637"/>
      <point x="364.8030303030303" y="-18.196969696969695"/>
    </contour>
    <contour>
      <point x="140.4090909090909" y="-440.0" type="line"/>
      <point x="356.72727272727275" y="-440.0" type="line"/>
      <point x="356.72727272727275" y="1087.2878787878788" type="line"/>
      <point x="140.4090909090909" y="1087.2878787878788" type="line"/>
    </contour>
  </outline>
</glyph>
<glyph name="paragraph" format="2">
  <advance width="1328.378787878788"/>
  <unicode hex="00B6"/>
  <outline>
    <contour>
      <point x="701.2121212121212" y="0.0" type="line"/>
      <point x="862.7727272727273" y="0.0" type="line"/>
      <point x="862.7727272727273" y="1480.0" type="line"/>
      <point x="772.5454545454545" y="1490.1666666666667"/>
      <point x="669.2878787878788" y="1496.3636363636363"/>
      <point x="564.2878787878788" y="1496.3636363636363" type="curve" smooth="yes"/>
      <point x="249.22727272727272" y="1496.3636363636363"/>
      <point x="89.6969696969697" y="1338.7878787878788"/>
      <point x="89.6969696969697" y="983.2878787878788" type="curve" smooth="yes"/>
      <point x="89.6969696969697" y="647.4090909090909"/>
      <point x="238.95454545454547" y="467.3787878787879"/>
      <point x="564.3181818181819" y="467.3787878787879" type="curve" smooth="yes"/>
      <point x="614.6818181818181" y="467.3787878787879"/>
      <point x="656.1818181818181" y="470.0909090909091"/>
      <point x="701.2121212121212" y="475.24242424242425" type="curve"/>
    </contour>
    <contour>
      <point x="996.7121212121212" y="0.0" type="line"/>
      <point x="1158.2727272727273" y="0.0" type="line"/>
      <point x="1158.2727272727273" y="1480.0" type="line"/>
      <point x="996.7121212121212" y="1480.0" type="line"/>
    </contour>
  </outline>
</glyph>
<glyph name="cedilla" format="2">
  <advance width="1139.3939393939395"/>
  <unicode hex="00B8"/>
  <anchor x="569.6969696969697" y="0.0" name="_bottom"/>
  <outline>
    <contour>
      <point x="572.5" y="-423.6363636363636" type="curve" smooth="yes"/>
      <point x="718.5" y="-423.6363636363636"/>
      <point x="797.4242424242425" y="-362.57575757575756"/>
      <point x="797.4242424242425" y="-259.8484848484849" type="curve" smooth="yes"/>
      <point x="797.4242424242425" y="-156.12121212121212"/>
      <point x="723.7424242424242" y="-94.77272727272728"/>
      <point x="583.1515151515151" y="-94.77272727272728" type="curve"/>
      <point x="632.0" y="-134.12121212121212" type="line"/>
      <point x="632.0" y="20.0" type="line"/>
      <point x="520.060606060606" y="20.0" type="line"/>
      <point x="520.060606060606" y="-171.28787878787878" type="line"/>
      <point x="563.7272727272727" y="-171.28787878787878" type="line" smooth="yes"/>
      <point x="638.1666666666667" y="-171.28787878787878"/>
      <point x="677.3181818181818" y="-195.45454545454547"/>
      <point x="677.3181818181818" y="-251.77272727272728" type="curve" smooth="yes"/>
      <point x="677.3181818181818" y="-307.3787878787879"/>
      <point x="639.1666666666667" y="-331.25757575757575"/>
      <point x="564.7424242424242" y="-331.25757575757575" type="curve" smooth="yes"/>
      <point x="512.3030303030303" y="-331.25757575757575"/>
      <point x="447.51515151515156" y="-320.8484848484849"/>
      <point x="389.75757575757575" y="-294.07575757575756" type="curve"/>
      <point x="389.75757575757575" y="-388.2878787878788" type="line"/>
      <point x="438.6818181818182" y="-410.92424242424244"/>
      <point x="507.5" y="-423.6363636363636"/>
    </contour>
  </outline>
</glyph>
<glyph name="onesuperior" format="2">
  <advance width="845.1515151515151"/>
  <unicode hex="00B9"/>
  <outline>
    <contour>
      <point x="378.8787878787879" y="-110.0909090909091" type="line"/>
      <point x="556.1363636363636" y="-110.0909090909091" type="line"/>
      <point x="556.1363636363636" y="868.0" type="line"/>
      <point x="438.7878787878788" y="868.0" type="line"/>
      <point x="138.0909090909091" y="664.2727272727273" type="line"/>
      <point x="138.0909090909091" y="504.8030303030303" type="line"/>
      <point x="438.7878787878788" y="708.530303030303" type="line"/>
      <point x="378.8787878787879" y="761.8030303030303" type="line"/>
    </contour>
    <contour>
      <point x="138.22727272727272" y="-136.0" type="line"/>
      <point x="783.9848484848485" y="-136.0" type="line"/>
      <point x="783.9848484848485" y="7.742424242424235" type="line"/>
      <point x="138.22727272727272" y="7.742424242424235" type="line"/>
    </contour>
  </outline>
</glyph>
<glyph name="ordmasculine" format="2">
  <advance width="1038.6060606060605"/>
  <unicode hex="00BA"/>
  <outline>
    <contour>
      <point x="519.1060606060606" y="594.4242424242424" type="curve" smooth="yes"/>
      <point x="792.6666666666667" y="594.4242424242424"/>
      <point x="964.1515151515151" y="748.3484848484849"/>
      <point x="964.1515151515151" y="1046.9848484848485" type="curve" smooth="yes"/>
      <point x="964.1515151515151" y="1345.621212121212"/>
      <point x="792.6666666666667" y="1495.939393939394"/>
      <point x="519.1060606060606" y="1495.939393939394" type="curve" smooth="yes"/>
      <point x="245.54545454545456" y="1495.939393939394"/>
      <point x="74.45454545454545" y="1346.6060606060605"/>
      <point x="74.45454545454545" y="1046.9848484848485" type="curve" smooth="yes"/>
      <point x="74.45454545454545" y="747.3636363636364"/>
      <point x="245.54545454545456" y="594.4242424242424"/>
    </contour>
    <contour>
      <point x="519.1060606060606" y="750.6969696969697" type="curve" smooth="yes"/>
      <point x="372.3333333333333" y="750.6969696969697"/>
      <point x="276.78787878787875" y="831.9545454545455"/>
      <point x="276.78787878787875" y="1046.9848484848485" type="curve" smooth="yes"/>
      <point x="276.78787878787875" y="1262.2121212121212"/>
      <point x="372.3333333333333" y="1339.6666666666667"/>
      <point x="519.1060606060606" y="1339.6666666666667" type="curve" smooth="yes"/>
      <point x="667.060606060606" y="1339.6666666666667"/>
      <point x="761.8181818181818" y="1262.2121212121212"/>
      <point x="761.8181818181818" y="1046.9848484848485" type="curve" smooth="yes"/>
      <point x="761.8181818181818" y="831.9545454545455"/>
      <point x="667.060606060606" y="750.6969696969697"/>
    </contour>
  </outline>
</glyph>
<glyph name="guillemetright" format="2">
  <advance width="1163.6969696969697"/>
  <unicode hex="00BB"/>
  <outline>
    <contour>
      <point x="70.21212121212122" y="136.06060606060606" type="line"/>
      <point x="296.1212121212121" y="136.06060606060606" type="line"/>
      <point x="579.4242424242424" y="563.939393939394" type="line"/>
      <point x="296.1212121212121" y="991.8181818181819" type="line"/>
      <point x="70.21212121212122" y="991.8181818181819" type="line"/>
      <point x="353.5151515151515" y="563.939393939394" type="line"/>
    </contour>
    <contour>
      <point x="544.2727272727273" y="136.06060606060606" type="line"/>
      <point x="770.1818181818181" y="136.06060606060606" type="line"/>
      <point x="1053.4848484848485" y="563.939393939394" type="line"/>
      <point x="770.1818181818181" y="991.8181818181819" type="line"/>
      <point x="544.2727272727273" y="991.8181818181819" type="line"/>
      <point x="827.5757575757575" y="563.939393939394" type="line"/>
    </contour>
  </outline>
</glyph>
<glyph name="onequarter" format="2">
  <advance width="2023.8030303030303"/>
  <unicode hex="00BC"/>
  <outline>
    <contour>
      <point x="378.8787878787879" y="641.9090909090909" type="line"/>
      <point x="556.1363636363636" y="641.9090909090909" type="line"/>
      <point x="556.1363636363636" y="1620.0" type="line"/>
      <point x="438.7878787878788" y="1620.0" type="line"/>
      <point x="138.0909090909091" y="1416.2727272727273" type="line"/>
      <point x="138.0909090909091" y="1256.8030303030303" type="line"/>
      <point x="438.7878787878788" y="1460.530303030303" type="line"/>
      <point x="378.8787878787879" y="1513.8030303030303" type="line"/>
    </contour>
    <contour>
      <point x="138.22727272727272" y="616.0" type="line"/>
      <point x="783.9848484848485" y="616.0" type="line"/>
      <point x="783.9848484848485" y="759.7424242424242" type="line"/>
      <point x="138.22727272727272" y="759.7424242424242" type="line"/>
    </contour>
    <contour>
      <point x="502.95454545454544" y="-136.0" type="line"/>
      <point x="686.939393939394" y="-136.0" type="line"/>
      <point x="1520.8484848484848" y="1616.0" type="line"/>
      <point x="1336.8636363636365" y="1616.0" type="line"/>
    </contour>
    <contour>
      <point x="1206.621212121212" y="82.71212121212122" type="line"/>
      <point x="2000.2727272727273" y="82.71212121212122" type="line"/>
      <point x="2000.2727272727273" y="220.3181818181818" type="line"/>
      <point x="1356.7424242424242" y="220.3181818181818" type="line"/>
      <point x="1373.8939393939395" y="177.34848484848484" type="line"/>
      <point x="1733.469696969697" y="864.0" type="line"/>
      <point x="1566.9848484848485" y="864.0" type="line"/>
      <point x="1206.621212121212" y="178.25757575757575" type="line"/>
    </contour>
    <contour>
      <point x="1703.1363636363635" y="-136.0" type="line"/>
      <point x="1860.8636363636365" y="-136.0" type="line"/>
      <point x="1860.8636363636365" y="526.0" type="line"/>
      <point x="1731.878787878788" y="526.0" type="line"/>
      <point x="1703.1363636363635" y="220.3181818181818" type="line"/>
    </contour>
  </outline>
</glyph>
<glyph name="onehalf" format="2">
  <advance width="2023.8030303030303"/>
  <unicode hex="00BD"/>
  <outline>
    <contour>
      <point x="378.8787878787879" y="641.9090909090909" type="line"/>
      <point x="556.1363636363636" y="641.9090909090909" type="line"/>
      <point x="556.1363636363636" y="1620.0" type="line"/>
      <point x="438.7878787878788" y="1620.0" type="line"/>
      <point x="138.0909090909091" y="1416.2727272727273" type="line"/>
      <point x="138.0909090909091" y="1256.8030303030303" type="line"/>
      <point x="438.7878787878788" y="1460.530303030303" type="line"/>
      <point x="378.8787878787879" y="1513.8030303030303" type="line"/>
    </contour>
    <contour>
      <point x="138.22727272727272" y="616.0" type="line"/>
      <point x="783.9848484848485" y="616.0" type="line"/>
      <point x="783.9848484848485" y="759.7424242424242" type="line"/>
      <point x="138.22727272727272" y="759.7424242424242" type="line"/>
    </contour>
    <contour>
      <point x="502.95454545454544" y="-136.0" type="line"/>
      <point x="686.939393939394" y="-136.0" type="line"/>
      <point x="1520.8484848484848" y="1616.0" type="line"/>
      <point x="1336.8636363636365" y="1616.0" type="line"/>
    </contour>
    <contour>
      <point x="1264.590909090909" y="-136.0" type="line"/>
      <point x="1946.3333333333335" y="-136.0" type="line"/>
      <point x="1946.3333333333335" y="7.742424242424235" type="line"/>
      <point x="1462.6969696969697" y="7.742424242424235" type="line"/>
      <point x="1463.8030303030303" y="-38.77272727272727" type="line"/>
      <point x="1724.5757575757575" y="257.6363636363636" type="line" smooth="yes"/>
      <point x="1845.621212121212" y="395.1212121212121"/>
      <point x="1893.1363636363635" y="487.1060606060606"/>
      <point x="1893.439393939394" y="596.0757575757576" type="curve" smooth="yes"/>
      <point x="1893.7424242424242" y="788.8939393939394"/>
      <point x="1765.3484848484848" y="876.7878787878788"/>
      <point x="1520.651515151515" y="876.7878787878788" type="curve" smooth="yes"/>
      <point x="1421.2272727272727" y="876.7878787878788"/>
      <point x="1323.1060606060605" y="863.0909090909091"/>
      <point x="1252.3939393939395" y="837.9848484848485" type="curve"/>
      <point x="1252.3939393939395" y="694.4090909090909" type="line"/>
      <point x="1321.7727272727273" y="719.5454545454545"/>
      <point x="1409.439393939394" y="736.0"/>
      <point x="1499.2424242424242" y="736.0" type="curve" smooth="yes"/>
      <point x="1650.3333333333333" y="736.0"/>
      <point x="1717.530303030303" y="686.6060606060606"/>
      <point x="1717.530303030303" y="578.0757575757576" type="curve" smooth="yes"/>
      <point x="1717.530303030303" y="504.57575757575756"/>
      <point x="1678.1363636363635" y="433.54545454545456"/>
      <point x="1577.090909090909" y="317.09090909090907" type="curve" smooth="yes"/>
      <point x="1264.590909090909" y="-43.333333333333336" type="line"/>
    </contour>
  </outline>
</glyph>
<glyph name="threequarters" format="2">
  <advance width="2023.8030303030303"/>
  <unicode hex="00BE"/>
  <outline>
    <contour>
      <point x="347.5" y="603.2121212121212" type="curve" smooth="yes"/>
      <point x="630.7121212121212" y="603.2121212121212"/>
      <point x="761.5909090909091" y="712.7424242424242"/>
      <point x="761.5909090909091" y="892.8030303030303" type="curve" smooth="yes"/>
      <point x="761.5909090909091" y="1034.969696969697"/>
      <point x="670.7727272727273" y="1120.4848484848485"/>
      <point x="514.0454545454545" y="1140.969696969697" type="curve"/>
      <point x="514.0454545454545" y="1127.1969696969697" type="line"/>
      <point x="642.6969696969697" y="1154.8333333333333"/>
      <point x="726.3939393939394" y="1240.8636363636363"/>
      <point x="726.3939393939394" y="1364.8181818181818" type="curve" smooth="yes"/>
      <point x="726.3939393939394" y="1532.060606060606"/>
      <point x="600.5454545454545" y="1628.7878787878788"/>
      <point x="356.06060606060606" y="1628.7878787878788" type="curve" smooth="yes"/>
      <point x="264.93939393939394" y="1628.7878787878788"/>
      <point x="162.75757575757575" y="1614.8181818181818"/>
      <point x="92.45454545454545" y="1591.8030303030303" type="curve"/>
      <point x="92.45454545454545" y="1457.878787878788" type="line"/>
      <point x="169.5151515151515" y="1485.3030303030303"/>
      <point x="260.1666666666667" y="1498.1666666666667"/>
      <point x="338.77272727272725" y="1498.1666666666667" type="curve" smooth="yes"/>
      <point x="485.5" y="1498.1666666666667"/>
      <point x="556.4242424242424" y="1444.9242424242425"/>
      <point x="556.4242424242424" y="1351.469696969697" type="curve" smooth="yes"/>
      <point x="556.4242424242424" y="1249.5454545454545"/>
      <point x="476.7878787878788" y="1194.378787878788"/>
      <point x="309.7121212121212" y="1194.378787878788" type="curve" smooth="yes"/>
      <point x="196.21212121212122" y="1194.378787878788" type="line"/>
      <point x="196.21212121212122" y="1062.2727272727273" type="line"/>
      <point x="361.77272727272725" y="1062.2727272727273" type="line" smooth="yes"/>
      <point x="525.1363636363636" y="1062.2727272727273"/>
      <point x="594.5757575757576" y="1004.7727272727273"/>
      <point x="594.5757575757576" y="903.5909090909091" type="curve" smooth="yes"/>
      <point x="594.5757575757576" y="794.8333333333334"/>
      <point x="516.7272727272727" y="734.4242424242424"/>
      <point x="340.42424242424244" y="734.4242424242424" type="curve" smooth="yes"/>
      <point x="256.1666666666667" y="734.4242424242424"/>
      <point x="157.5909090909091" y="747.7272727272727"/>
      <point x="68.43939393939394" y="775.0757575757575" type="curve"/>
      <point x="68.43939393939394" y="641.1515151515151" type="line"/>
      <point x="154.53030303030303" y="615.9242424242424"/>
      <point x="251.95454545454544" y="603.2121212121212"/>
    </contour>
    <contour>
      <point x="502.95454545454544" y="-136.0" type="line"/>
      <point x="686.939393939394" y="-136.0" type="line"/>
      <point x="1520.8484848484848" y="1616.0" type="line"/>
      <point x="1336.8636363636365" y="1616.0" type="line"/>
    </contour>
    <contour>
      <point x="1206.621212121212" y="82.71212121212122" type="line"/>
      <point x="2000.2727272727273" y="82.71212121212122" type="line"/>
      <point x="2000.2727272727273" y="220.3181818181818" type="line"/>
      <point x="1356.7424242424242" y="220.3181818181818" type="line"/>
      <point x="1373.8939393939395" y="177.34848484848484" type="line"/>
      <point x="1733.469696969697" y="864.0" type="line"/>
      <point x="1566.9848484848485" y="864.0" type="line"/>
      <point x="1206.621212121212" y="178.25757575757575" type="line"/>
    </contour>
    <contour>
      <point x="1703.1363636363635" y="-136.0" type="line"/>
      <point x="1860.8636363636365" y="-136.0" type="line"/>
      <point x="1860.8636363636365" y="526.0" type="line"/>
      <point x="1731.878787878788" y="526.0" type="line"/>
      <point x="1703.1363636363635" y="220.3181818181818" type="line"/>
    </contour>
  </outline>
</glyph>
<glyph name="questiondown" format="2">
  <advance width="985.969696969697"/>
  <unicode hex="00BF"/>
  <outline>
    <contour>
      <point x="604.4848484848485" y="696.4848484848485" type="line"/>
      <point x="470.0151515151515" y="696.4848484848485" type="line"/>
      <point x="452.72727272727275" y="412.8939393939394" type="line"/>
      <point x="179.89393939393938" y="321.6666666666667"/>
      <point x="60.68181818181818" y="194.0"/>
      <point x="60.68181818181818" y="-17.727272727272734" type="curve" smooth="yes"/>
      <point x="60.68181818181818" y="-257.8030303030303"/>
      <point x="237.15151515151516" y="-400.0"/>
      <point x="573.8181818181818" y="-400.0" type="curve" smooth="yes"/>
      <point x="702.0151515151515" y="-400.0"/>
      <point x="841.0909090909091" y="-379.1363636363636"/>
      <point x="944.6969696969697" y="-344.6212121212121" type="curve"/>
      <point x="944.6969696969697" y="-170.06060606060606" type="line"/>
      <point x="832.6363636363636" y="-208.1818181818182"/>
      <point x="709.8939393939394" y="-227.04545454545456"/>
      <point x="594.4242424242425" y="-227.04545454545456" type="curve" smooth="yes"/>
      <point x="379.8030303030303" y="-227.04545454545456"/>
      <point x="273.4848484848485" y="-144.25757575757575"/>
      <point x="273.4848484848485" y="-3.7272727272727337" type="curve" smooth="yes"/>
      <point x="273.4848484848485" y="137.66666666666666"/>
      <point x="359.1515151515151" y="229.45454545454544"/>
      <point x="641.8939393939394" y="302.3787878787879" type="curve"/>
    </contour>
    <contour>
      <point x="536.9545454545455" y="1101.8181818181818" type="curve" smooth="yes"/>
      <point x="445.969696969697" y="1101.8181818181818"/>
      <point x="389.469696969697" y="1048.8333333333333"/>
      <point x="389.469696969697" y="971.2727272727273" type="curve" smooth="yes"/>
      <point x="389.469696969697" y="892.5"/>
      <point x="445.6060606060606" y="839.5151515151515"/>
      <point x="536.9545454545455" y="839.5151515151515" type="curve" smooth="yes"/>
      <point x="628.3030303030303" y="839.5151515151515"/>
      <point x="684.439393939394" y="890.9242424242424"/>
      <point x="684.439393939394" y="971.2727272727273" type="curve" smooth="yes"/>
      <point x="684.439393939394" y="1050.409090909091"/>
      <point x="626.7272727272727" y="1101.8181818181818"/>
    </contour>
  </outline>
</glyph>
<glyph name="Agrave" format="2">
  <advance width="1474.6969696969697"/>
  <unicode hex="00C0"/>
  <anchor x="737.3636363636364" y="1520.0" name="_top"/>
  <anchor x="737.9545454545455" y="0.0" name="bottom"/>
  <anchor x="1445.0" y="0.0" name="ogonek"/>
  <anchor x="737.3636363636364" y="1520.0" name="top"/>
  <outline>
    <contour>
      <point x="29.6969696969697" y="0.0" type="line"/>
      <point x="247.57575757575756" y="0.0" type="line"/>
      <point x="750.7121212121212" y="1380.7121212121212" type="line"/>
      <point x="720.8030303030303" y="1380.7121212121212" type="line"/>
      <point x="1224.3333333333333" y="0.0" type="line"/>
      <point x="1445.0" y="0.0" type="line"/>
      <point x="894.0" y="1480.0" type="line"/>
      <point x="580.6969696969697" y="1480.0" type="line"/>
    </contour>
    <contour>
      <point x="355.5909090909091" y="452.56060606060606" type="line"/>
      <point x="1117.7272727272727" y="452.56060606060606" type="line"/>
      <point x="1066.6060606060605" y="628.469696969697" type="line"/>
      <point x="407.3030303030303" y="628.469696969697" type="line"/>
    </contour>
    <contour>
      <point x="637.7727272727273" y="1604.1818181818182" type="line"/>
      <point x="836.9545454545455" y="1604.1818181818182" type="line"/>
      <point x="640.4242424242425" y="1893.5151515151515" type="line"/>
      <point x="406.8484848484849" y="1893.5151515151515" type="line"/>
    </contour>
  </outline>
</glyph>
<glyph name="Acircumflex" format="2">
  <advance width="1474.6969696969697"/>
  <unicode hex="00C2"/>
  <anchor x="737.3636363636364" y="1520.0" name="_top"/>
  <anchor x="737.9545454545455" y="0.0" name="bottom"/>
  <anchor x="1445.0" y="0.0" name="ogonek"/>
  <anchor x="737.3636363636364" y="1520.0" name="top"/>
  <outline>
    <contour>
      <point x="29.6969696969697" y="0.0" type="line"/>
      <point x="247.57575757575756" y="0.0" type="line"/>
      <point x="750.7121212121212" y="1380.7121212121212" type="line"/>
      <point x="720.8030303030303" y="1380.7121212121212" type="line"/>
      <point x="1224.3333333333333" y="0.0" type="line"/>
      <point x="1445.0" y="0.0" type="line"/>
      <point x="894.0" y="1480.0" type="line"/>
      <point x="580.6969696969697" y="1480.0" type="line"/>
    </contour>
    <contour>
      <point x="355.5909090909091" y="452.56060606060606" type="line"/>
      <point x="1117.7272727272727" y="452.56060606060606" type="line"/>
      <point x="1066.6060606060605" y="628.469696969697" type="line"/>
      <point x="407.3030303030303" y="628.469696969697" type="line"/>
    </contour>
    <contour>
      <point x="365.8636363636364" y="1604.1818181818182" type="line"/>
      <point x="551.0454545454545" y="1604.1818181818182" type="line"/>
      <point x="760.1515151515151" y="1829.9545454545455" type="line"/>
      <point x="714.5757575757575" y="1829.9545454545455" type="line"/>
      <point x="923.6818181818182" y="1604.1818181818182" type="line"/>
      <point x="1108.8636363636365" y="1604.1818181818182" type="line"/>
      <point x="833.0757575757575" y="1893.5151515151515" type="line"/>
      <point x="641.6515151515151" y="1893.5151515151515" type="line"/>
    </contour>
  </outline>
</glyph>
<glyph name="Atilde" format="2">
  <advance width="1474.6969696969697"/>
  <unicode hex="00C3"/>
  <anchor x="737.3636363636364" y="1520.0" name="_top"/>
  <anchor x="737.9545454545455" y="0.0" name="bottom"/>
  <anchor x="1445.0" y="0.0" name="ogonek"/>
  <anchor x="737.3636363636364" y="1520.0" name="top"/>
  <outline>
    <contour>
      <point x="29.6969696969697" y="0.0" type="line"/>
      <point x="247.57575757575756" y="0.0" type="line"/>
      <point x="750.7121212121212" y="1380.7121212121212" type="line"/>
      <point x="720.8030303030303" y="1380.7121212121212" type="line"/>
      <point x="1224.3333333333333" y="0.0" type="line"/>
      <point x="1445.0" y="0.0" type="line"/>
      <point x="894.0" y="1480.0" type="line"/>
      <point x="580.6969696969697" y="1480.0" type="line"/>
    </contour>
    <contour>
      <point x="355.5909090909091" y="452.56060606060606" type="line"/>
      <point x="1117.7272727272727" y="452.56060606060606" type="line"/>
      <point x="1066.6060606060605" y="628.469696969697" type="line"/>
      <point x="407.3030303030303" y="628.469696969697" type="line"/>
    </contour>
    <contour>
      <point x="904.7272727272727" y="1653.5757575757575" type="curve" smooth="yes"/>
      <point x="990.8484848484849" y="1653.5757575757575"/>
      <point x="1050.4545454545455" y="1674.969696969697"/>
      <point x="1098.0" y="1719.590909090909" type="curve"/>
      <point x="1098.0" y="1852.090909090909" type="line"/>
      <point x="1041.8636363636365" y="1805.0757575757575"/>
      <point x="987.7424242424242" y="1782.969696969697"/>
      <point x="908.6666666666667" y="1782.969696969697" type="curve" smooth="yes"/>
      <point x="796.1060606060606" y="1782.969696969697"/>
      <point x="702.3787878787879" y="1858.3636363636363"/>
      <point x="570.0" y="1858.3636363636363" type="curve" smooth="yes"/>
      <point x="483.8787878787879" y="1858.3636363636363"/>
      <point x="424.27272727272725" y="1836.1818181818182"/>
      <point x="376.72727272727275" y="1791.560606060606" type="curve"/>
      <point x="376.72727272727275" y="1659.060606060606" type="line"/>
      <point x="432.8636363636364" y="1706.0757575757575"/>
      <point x="486.9848484848485" y="1728.1818181818182"/>
      <point x="566.060606060606" y="1728.1818181818182" type="curve" smooth="yes"/>
      <point x="678.6212121212121" y="1728.1818181818182"/>
      <point x="772.3484848484849" y="1653.5757575757575"/>
    </contour>
  </outline>
</glyph>
<glyph name="Aring" format="2">
  <advance width="1474.6969696969697"/>
  <unicode hex="00C5"/>
  <anchor x="738.8787878787879" y="1410.909090909091" name="_top"/>
  <anchor x="737.9545454545455" y="0.0" name="bottom"/>
  <anchor x="1445.0" y="0.0" name="ogonek"/>
  <anchor x="737.3636363636364" y="1520.0" name="top"/>
  <outline>
    <contour>
      <point x="29.6969696969697" y="0.0" type="line"/>
      <point x="247.57575757575756" y="0.0" type="line"/>
      <point x="750.7121212121212" y="1380.7121212121212" type="line"/>
      <point x="720.8030303030303" y="1380.7121212121212" type="line"/>
      <point x="1224.3333333333333" y="0.0" type="line"/>
      <point x="1445.0" y="0.0" type="line"/>
      <point x="894.0" y="1480.0" type="line"/>
      <point x="580.6969696969697" y="1480.0" type="line"/>
    </contour>
    <contour>
      <point x="355.5909090909091" y="452.56060606060606" type="line"/>
      <point x="1117.7272727272727" y="452.56060606060606" type="line"/>
      <point x="1066.6060606060605" y="628.469696969697" type="line"/>
      <point x="407.3030303030303" y="628.469696969697" type="line"/>
    </contour>
    <contour>
      <point x="738.8787878787879" y="1486.060606060606" type="curve" smooth="yes"/>
      <point x="855.1212121212121" y="1486.060606060606"/>
      <point x="940.2121212121212" y="1569.5757575757575"/>
      <point x="940.2121212121212" y="1684.2424242424242" type="curve" smooth="yes"/>
      <point x="940.2121212121212" y="1798.909090909091"/>
      <point x="855.1212121212121" y="1882.4242424242425"/>
      <point x="738.8787878787879" y="1882.4242424242425" type="curve" smooth="yes"/>
      <point x="622.6363636363636" y="1882.4242424242425"/>
      <point x="537.5454545454545" y="1798.909090909091"/>
      <point x="537.5454545454545" y="1684.2424242424242" type="curve" smooth="yes"/>
      <point x="537.5454545454545" y="1569.5757575757575"/>
      <point x="622.6363636363636" y="1486.060606060606"/>
    </contour>
    <contour>
      <point x="738.8787878787879" y="1571.939393939394" type="curve" smooth="yes"/>
      <point x="674.6969696969697" y="1571.939393939394"/>
      <point x="629.3636363636364" y="1614.8484848484848"/>
      <point x="629.3636363636364" y="1684.2424242424242" type="curve" smooth="yes"/>
      <point x="629.3636363636364" y="1753.6363636363637"/>
      <point x="674.6969696969697" y="1796.5454545454545"/>
      <point x="738.8787878787879" y="1796.5454545454545" type="curve" smooth="yes"/>
      <point x="803.060606060606" y="1796.5454545454545"/>
      <point x="848.3939393939394" y="1753.6363636363637"/>
      <point x="848.3939393939394" y="1684.2424242424242" type="curve" smooth="yes"/>
      <point x="848.3939393939394" y="1614.8484848484848"/>
      <point x="803.060606060606" y="1571.939393939394"/>
    </contour>
  </outline>
</glyph>
<glyph name="AE" format="2">
  <advance width="2012.1515151515152"/>
  <unicode hex="00C6"/>
  <anchor x="1065.5" y="0.0" name="bottom"/>
  <anchor x="1001.560606060606" y="1520.0" name="top"/>
  <outline>
    <contour>
      <point x="29.6969696969697" y="0.0" type="line"/>
      <point x="248.16666666666669" y="0.0" type="line"/>
      <point x="732.4848484848485" y="1303.6969696969697" type="line"/>
      <point x="987.7424242424242" y="1303.6969696969697" type="line"/>
      <point x="989.560606060606" y="1480.0" type="line"/>
      <point x="587.060606060606" y="1480.0" type="line"/>
    </contour>
    <contour>
      <point x="360.43939393939394" y="452.3636363636364" type="line"/>
      <point x="1032.878787878788" y="452.3636363636364" type="line"/>
      <point x="1032.878787878788" y="628.6666666666666" type="line"/>
      <point x="412.1515151515151" y="628.6666666666666" type="line"/>
    </contour>
    <contour>
      <point x="1004.0454545454545" y="0.0" type="line"/>
      <point x="1926.7878787878788" y="0.0" type="line"/>
      <point x="1926.7878787878788" y="176.3030303030303" type="line"/>
      <point x="1209.7727272727273" y="176.3030303030303" type="line"/>
      <point x="1118.0151515151515" y="1303.6969696969697" type="line"/>
      <point x="1916.7878787878788" y="1303.6969696969697" type="line"/>
      <point x="1916.7878787878788" y="1480.0" type="line"/>
      <point x="889.530303030303" y="1480.0" type="line"/>
    </contour>
    <contour>
      <point x="1057.060606060606" y="670.4848484848485" type="line"/>
      <point x="1816.1363636363635" y="670.4848484848485" type="line"/>
      <point x="1816.1363636363635" y="846.7878787878788" type="line"/>
      <point x="1057.060606060606" y="846.7878787878788" type="line"/>
    </contour>
  </outline>
</glyph>
<glyph name="Ccedilla" format="2">
  <advance width="1267.2575757575758"/>
  <unicode hex="00C7"/>
  <anchor x="772.9090909090909" y="0.0" name="_bottom"/>
  <anchor x="772.9090909090909" y="0.0" name="bottom"/>
  <anchor x="762.3030303030303" y="1520.0" name="top"/>
  <outline>
    <contour>
      <point x="856.0757575757575" y="-18.78787878787879" type="curve" smooth="yes"/>
      <point x="986.560606060606" y="-18.78787878787879"/>
      <point x="1107.7878787878788" y="0.1363636363636367"/>
      <point x="1215.3636363636365" y="35.333333333333336" type="curve"/>
      <point x="1215.3636363636365" y="219.93939393939394" type="line"/>
      <point x="1094.8181818181818" y="182.1818181818182"/>
      <point x="988.939393939394" y="165.98484848484847"/>
      <point x="871.2575757575758" y="165.98484848484847" type="curve" smooth="yes"/>
      <point x="533.530303030303" y="165.98484848484847"/>
      <point x="338.8636363636364" y="316.3181818181818"/>
      <point x="338.8636363636364" y="741.2121212121212" type="curve" smooth="yes"/>
      <point x="338.8636363636364" y="1150.2727272727273"/>
      <point x="527.6515151515151" y="1314.0151515151515"/>
      <point x="884.7424242424242" y="1314.0151515151515" type="curve" smooth="yes"/>
      <point x="1000.0151515151515" y="1314.0151515151515"/>
      <point x="1109.2272727272727" y="1299.5757575757575"/>
      <point x="1215.3636363636365" y="1271.1666666666667" type="curve"/>
      <point x="1215.3636363636365" y="1455.7727272727273" type="line"/>
      <point x="1104.9242424242425" y="1484.5454545454545"/>
      <point x="995.7575757575758" y="1498.7878787878788"/>
      <point x="871.5" y="1498.7878787878788" type="curve" smooth="yes"/>
      <point x="389.3636363636364" y="1498.7878787878788"/>
      <point x="107.71212121212122" y="1254.3939393939395"/>
      <point x="107.71212121212122" y="737.2121212121212" type="curve" smooth="yes"/>
      <point x="107.71212121212122" y="195.84848484848484"/>
      <point x="393.6818181818182" y="-18.78787878787879"/>
    </contour>
    <contour>
      <point x="761.469696969697" y="-423.6363636363636" type="curve" smooth="yes"/>
      <point x="918.1060606060606" y="-423.6363636363636"/>
      <point x="1004.8787878787879" y="-364.42424242424244"/>
      <point x="1004.8787878787879" y="-257.77272727272725" type="curve" smooth="yes"/>
      <point x="1004.8787878787879" y="-151.9090909090909"/>
      <point x="922.439393939394" y="-94.46969696969697"/>
      <point x="774.2424242424242" y="-94.46969696969697" type="curve"/>
      <point x="818.2424242424242" y="-134.12121212121212" type="line"/>
      <point x="818.2424242424242" y="20.0" type="line"/>
      <point x="706.3030303030303" y="20.0" type="line"/>
      <point x="706.3030303030303" y="-171.28787878787878" type="line"/>
      <point x="751.7878787878788" y="-171.28787878787878" type="line" smooth="yes"/>
      <point x="836.8939393939394" y="-171.28787878787878"/>
      <point x="884.469696969697" y="-195.15151515151516"/>
      <point x="884.469696969697" y="-252.06060606060606" type="curve" smooth="yes"/>
      <point x="884.469696969697" y="-307.9848484848485"/>
      <point x="837.2878787878788" y="-331.25757575757575"/>
      <point x="752.8030303030303" y="-331.25757575757575" type="curve" smooth="yes"/>
      <point x="692.3939393939394" y="-331.25757575757575"/>
      <point x="627.6060606060606" y="-320.54545454545456"/>
      <point x="557.5151515151515" y="-293.469696969697" type="curve"/>
      <point x="557.5151515151515" y="-387.6818181818182" type="line"/>
      <point x="617.2727272727273" y="-410.92424242424244"/>
      <point x="689.1060606060606" y="-423.6363636363636"/>
    </contour>
  </outline>
</glyph>
<glyph name="Egrave" format="2">
  <advance width="1280.651515151515"/>
  <unicode hex="00C8"/>
  <anchor x="699.3939393939394" y="1520.0" name="_top"/>
  <anchor x="701.2121212121212" y="0.0" name="bottom"/>
  <anchor x="1109.378787878788" y="0.0" name="ogonek"/>
  <anchor x="699.3939393939394" y="1520.0" name="top"/>
  <anchor x="41.72727272727273" y="1480.0" name="topleft"/>
  <outline>
    <contour>
      <point x="170.1060606060606" y="0.0" type="line"/>
      <point x="1195.2878787878788" y="0.0" type="line"/>
      <point x="1195.2878787878788" y="176.3030303030303" type="line"/>
      <point x="388.1969696969697" y="176.3030303030303" type="line"/>
      <point x="388.1969696969697" y="1303.6969696969697" type="line"/>
      <point x="1185.2878787878788" y="1303.6969696969697" type="line"/>
      <point x="1185.2878787878788" y="1480.0" type="line"/>
      <point x="170.1060606060606" y="1480.0" type="line"/>
    </contour>
    <contour>
      <point x="292.1212121212121" y="670.4848484848485" type="line"/>
      <point x="1084.6363636363635" y="670.4848484848485" type="line"/>
      <point x="1084.6363636363635" y="846.7878787878788" type="line"/>
      <point x="292.1212121212121" y="846.7878787878788" type="line"/>
    </contour>
    <contour>
      <point x="599.8030303030303" y="1604.1818181818182" type="line"/>
      <point x="798.9848484848485" y="1604.1818181818182" type="line"/>
      <point x="602.4545454545455" y="1893.5151515151515" type="line"/>
      <point x="368.8787878787879" y="1893.5151515151515" type="line"/>
    </contour>
  </outline>
</glyph>
<glyph name="Edieresis" format="2">
  <advance width="1280.651515151515"/>
  <unicode hex="00CB"/>
  <anchor x="699.3939393939394" y="1520.0" name="_top"/>
  <anchor x="701.2121212121212" y="0.0" name="bottom"/>
  <anchor x="1109.378787878788" y="0.0" name="ogonek"/>
  <anchor x="699.3939393939394" y="1520.0" name="top"/>
  <anchor x="41.72727272727273" y="1480.0" name="topleft"/>
  <outline>
    <contour>
      <point x="170.1060606060606" y="0.0" type="line"/>
      <point x="1195.2878787878788" y="0.0" type="line"/>
      <point x="1195.2878787878788" y="176.3030303030303" type="line"/>
      <point x="388.1969696969697" y="176.3030303030303" type="line"/>
      <point x="388.1969696969697" y="1303.6969696969697" type="line"/>
      <point x="1185.2878787878788" y="1303.6969696969697" type="line"/>
      <point x="1185.2878787878788" y="1480.0" type="line"/>
      <point x="170.1060606060606" y="1480.0" type="line"/>
    </contour>
    <contour>
      <point x="292.1212121212121" y="670.4848484848485" type="line"/>
      <point x="1084.6363636363635" y="670.4848484848485" type="line"/>
      <point x="1084.6363636363635" y="846.7878787878788" type="line"/>
      <point x="292.1212121212121" y="846.7878787878788" type="line"/>
    </contour>
    <contour>
      <point x="956.9242424242424" y="1642.7272727272727" type="curve" smooth="yes"/>
      <point x="1039.0151515151515" y="1642.7272727272727"/>
      <point x="1082.348484848485" y="1683.6666666666667"/>
      <point x="1082.348484848485" y="1751.2121212121212" type="curve" smooth="yes"/>
      <point x="1082.348484848485" y="1818.7575757575758"/>
      <point x="1039.0151515151515" y="1860.909090909091"/>
      <point x="956.9242424242424" y="1860.909090909091" type="curve" smooth="yes"/>
      <point x="874.8333333333333" y="1860.909090909091"/>
      <point x="831.5" y="1818.7575757575758"/>
      <point x="831.5" y="1751.2121212121212" type="curve" smooth="yes"/>
      <point x="831.5" y="1683.6666666666667"/>
      <point x="874.8333333333333" y="1642.7272727272727"/>
    </contour>
    <contour>
      <point x="441.8636363636364" y="1642.7272727272727" type="curve" smooth="yes"/>
      <point x="523.9545454545455" y="1642.7272727272727"/>
      <point x="567.2878787878788" y="1683.6666666666667"/>
      <point x="567.2878787878788" y="1751.2121212121212" type="curve" smooth="yes"/>
      <point x="567.2878787878788" y="1818.7575757575758"/>
      <point x="523.9545454545455" y="1860.909090909091"/>
      <point x="441.8636363636364" y="1860.909090909091" type="curve" smooth="yes"/>
      <point x="359.77272727272725" y="1860.909090909091"/>
      <point x="316.43939393939394" y="1818.7575757575758"/>
      <point x="316.43939393939394" y="1751.2121212121212" type="curve" smooth="yes"/>
      <point x="316.43939393939394" y="1683.6666666666667"/>
      <point x="359.77272727272725" y="1642.7272727272727"/>
    </contour>
  </outline>
</glyph>
<glyph name="Igrave" format="2">
  <advance width="560.6666666666666"/>
  <unicode hex="00CC"/>
  <anchor x="280.3333333333333" y="1520.0" name="_top"/>
  <anchor x="279.74242424242425" y="0.0" name="bottom"/>
  <anchor x="390.56060606060606" y="0.0" name="ogonek"/>
  <anchor x="280.3333333333333" y="1520.0" name="top"/>
  <outline>
    <contour>
      <point x="170.1060606060606" y="0.0" type="line"/>
      <point x="390.56060606060606" y="0.0" type="line"/>
      <point x="390.56060606060606" y="1480.0" type="line"/>
      <point x="170.1060606060606" y="1480.0" type="line"/>
    </contour>
    <contour>
      <point x="180.74242424242425" y="1604.1818181818182" type="line"/>
      <point x="379.92424242424244" y="1604.1818181818182" type="line"/>
      <point x="183.39393939393938" y="1893.5151515151515" type="line"/>
      <point x="-50.18181818181819" y="1893.5151515151515" type="line"/>
    </contour>
  </outline>
</glyph>
<glyph name="Iacute" format="2">
  <advance width="560.6666666666666"/>
  <unicode hex="00CD"/>
  <anchor x="280.3333333333333" y="1520.0" name="_top"/>
  <anchor x="279.74242424242425" y="0.0" name="bottom"/>
  <anchor x="390.56060606060606" y="0.0" name="ogonek"/>
  <anchor x="280.3333333333333" y="1520.0" name="top"/>
  <outline>
    <contour>
      <point x="170.1060606060606" y="0.0" type="line"/>
      <point x="390.56060606060606" y="0.0" type="line"/>
      <point x="390.56060606060606" y="1480.0" type="line"/>
      <point x="170.1060606060606" y="1480.0" type="line"/>
    </contour>
    <contour>
      <point x="179.56060606060606" y="1604.1818181818182" type="line"/>
      <point x="378.74242424242425" y="1604.1818181818182" type="line"/>
      <point x="609.6666666666666" y="1893.5151515151515" type="line"/>
      <point x="376.0909090909091" y="1893.5151515151515" type="line"/>
    </contour>
  </outline>
</glyph>
<glyph name="Icircumflex" format="2">
  <advance width="560.6666666666666"/>
  <unicode hex="00CE"/>
  <anchor x="280.3333333333333" y="1520.0" name="_top"/>
  <anchor x="279.74242424242425" y="0.0" name="bottom"/>
  <anchor x="390.56060606060606" y="0.0" name="ogonek"/>
  <anchor x="280.3333333333333" y="1520.0" name="top"/>
  <outline>
    <contour>
      <point x="170.1060606060606" y="0.0" type="line"/>
      <point x="390.56060606060606" y="0.0" type="line"/>
      <point x="390.56060606060606" y="1480.0" type="line"/>
      <point x="170.1060606060606" y="1480.0" type="line"/>
    </contour>
    <contour>
      <point x="-91.16666666666666" y="1604.1818181818182" type="line"/>
      <point x="94.0151515151515" y="1604.1818181818182" type="line"/>
      <point x="303.1212121212121" y="1829.9545454545455" type="line"/>
      <point x="257.54545454545456" y="1829.9545454545455" type="line"/>
      <point x="466.6515151515151" y="1604.1818181818182" type="line"/>
      <point x="651.8333333333333" y="1604.1818181818182" type="line"/>
      <point x="376.0454545454545" y="1893.5151515151515" type="line"/>
      <point x="184.62121212121212" y="1893.5151515151515" type="line"/>
    </contour>
  </outline>
</glyph>
<glyph name="Idieresis" format="2">
  <advance width="560.6666666666666"/>
  <unicode hex="00CF"/>
  <anchor x="280.3333333333333" y="1520.0" name="_top"/>
  <anchor x="279.74242424242425" y="0.0" name="bottom"/>
  <anchor x="390.56060606060606" y="0.0" name="ogonek"/>
  <anchor x="280.3333333333333" y="1520.0" name="top"/>
  <outline>
    <contour>
      <point x="170.1060606060606" y="0.0" type="line"/>
      <point x="390.56060606060606" y="0.0" type="line"/>
      <point x="390.56060606060606" y="1480.0" type="line"/>
      <point x="170.1060606060606" y="1480.0" type="line"/>
    </contour>
    <contour>
      <point x="537.8636363636364" y="1642.7272727272727" type="curve" smooth="yes"/>
      <point x="619.9545454545455" y="1642.7272727272727"/>
      <point x="663.2878787878788" y="1683.6666666666667"/>
      <point x="663.2878787878788" y="1751.2121212121212" type="curve" smooth="yes"/>
      <point x="663.2878787878788" y="1818.7575757575758"/>
      <point x="619.9545454545455" y="1860.909090909091"/>
      <point x="537.8636363636364" y="1860.909090909091" type="curve" smooth="yes"/>
      <point x="455.77272727272725" y="1860.909090909091"/>
      <point x="412.43939393939394" y="1818.7575757575758"/>
      <point x="412.43939393939394" y="1751.2121212121212" type="curve" smooth="yes"/>
      <point x="412.43939393939394" y="1683.6666666666667"/>
      <point x="455.77272727272725" y="1642.7272727272727"/>
    </contour>
    <contour>
      <point x="22.803030303030297" y="1642.7272727272727" type="curve" smooth="yes"/>
      <point x="104.89393939393939" y="1642.7272727272727"/>
      <point x="148.22727272727272" y="1683.6666666666667"/>
      <point x="148.22727272727272" y="1751.2121212121212" type="curve" smooth="yes"/>
      <point x="148.22727272727272" y="1818.7575757575758"/>
      <point x="104.89393939393939" y="1860.909090909091"/>
      <point x="22.803030303030297" y="1860.909090909091" type="curve" smooth="yes"/>
      <point x="-59.28787878787879" y="1860.909090909091"/>
      <point x="-102.62121212121212" y="1818.7575757575758"/>
      <point x="-102.62121212121212" y="1751.2121212121212" type="curve" smooth="yes"/>
      <point x="-102.62121212121212" y="1683.6666666666667"/>
      <point x="-59.28787878787879" y="1642.7272727272727"/>
    </contour>
  </outline>
</glyph>
<glyph name="Ntilde" format="2">
  <advance width="1588.0"/>
  <unicode hex="00D1"/>
  <anchor x="794.4545454545455" y="1520.0" name="_top"/>
  <anchor x="794.4545454545455" y="0.0" name="bottom"/>
  <anchor x="794.4545454545455" y="1520.0" name="top"/>
  <outline>
    <contour>
      <point x="170.1060606060606" y="0.0" type="line"/>
      <point x="378.5151515151515" y="0.0" type="line"/>
      <point x="378.5151515151515" y="1228.1515151515152" type="line"/>
      <point x="332.45454545454544" y="1228.1515151515152" type="line"/>
      <point x="1193.6969696969697" y="0.0" type="line"/>
      <point x="1417.8939393939395" y="0.0" type="line"/>
      <point x="1417.8939393939395" y="1480.0" type="line"/>
      <point x="1209.4848484848485" y="1480.0" type="line"/>
      <point x="1209.4848484848485" y="251.84848484848484" type="line"/>
      <point x="1255.5454545454545" y="251.84848484848484" type="line"/>
      <point x="394.30303030303025" y="1480.0" type="line"/>
      <point x="170.1060606060606" y="1480.0" type="line"/>
    </contour>
    <contour>
      <point x="961.8181818181819" y="1653.5757575757575" type="curve" smooth="yes"/>
      <point x="1047.939393939394" y="1653.5757575757575"/>
      <point x="1107.5454545454545" y="1674.969696969697"/>
      <point x="1155.090909090909" y="1719.590909090909" type="curve"/>
      <point x="1155.090909090909" y="1852.090909090909" type="line"/>
      <point x="1098.9545454545455" y="1805.0757575757575"/>
      <point x="1044.8333333333333" y="1782.969696969697"/>
      <point x="965.7575757575758" y="1782.969696969697" type="curve" smooth="yes"/>
      <point x="853.1969696969697" y="1782.969696969697"/>
      <point x="759.469696969697" y="1858.3636363636363"/>
      <point x="627.0909090909091" y="1858.3636363636363" type="curve" smooth="yes"/>
      <point x="540.969696969697" y="1858.3636363636363"/>
      <point x="481.3636363636364" y="1836.1818181818182"/>
      <point x="433.8181818181818" y="1791.560606060606" type="curve"/>
      <point x="433.8181818181818" y="1659.060606060606" type="line"/>
      <point x="489.95454545454544" y="1706.0757575757575"/>
      <point x="544.0757575757575" y="1728.1818181818182"/>
      <point x="623.1515151515151" y="1728.1818181818182" type="curve" smooth="yes"/>
      <point x="735.7121212121212" y="1728.1818181818182"/>
      <point x="829.439393939394" y="1653.5757575757575"/>
    </contour>
  </outline>
</glyph>
<glyph name="Otilde" format="2">
  <advance width="1587.3939393939395"/>
  <unicode hex="00D5"/>
  <anchor x="793.6969696969697" y="1520.0" name="_top"/>
  <anchor x="793.6969696969697" y="0.0" name="bottom"/>
  <anchor x="793.6969696969697" y="740.0" name="center"/>
  <anchor x="962.3181818181818" y="0.0" name="ogonek"/>
  <anchor x="793.6969696969697" y="1520.0" name="top"/>
  <anchor x="50.348484848484844" y="1480.0" name="topleft"/>
  <anchor x="981.8939393939394" y="1480.0" name="topright"/>
  <outline>
    <contour>
      <point x="793.6969696969697" y="-18.78787878787879" type="curve" smooth="yes"/>
      <point x="1204.651515151515" y="-18.78787878787879"/>
      <point x="1479.6818181818182" y="223.16666666666666"/>
      <point x="1479.6818181818182" y="740.0" type="curve" smooth="yes"/>
      <point x="1479.6818181818182" y="1256.8333333333333"/>
      <point x="1207.969696969697" y="1498.7878787878788"/>
      <point x="793.6969696969697" y="1498.7878787878788" type="curve" smooth="yes"/>
      <point x="382.1515151515151" y="1498.7878787878788"/>
      <point x="107.71212121212122" y="1258.0151515151515"/>
      <point x="107.71212121212122" y="740.0" type="curve" smooth="yes"/>
      <point x="107.71212121212122" y="221.9848484848485"/>
      <point x="380.0151515151515" y="-18.78787878787879"/>
    </contour>
    <contour>
      <point x="793.6969696969697" y="162.75757575757575" type="curve" smooth="yes"/>
      <point x="513.7272727272727" y="162.75757575757575"/>
      <point x="334.1363636363636" y="323.8030303030303"/>
      <point x="334.1363636363636" y="745.5757575757576" type="curve" smooth="yes"/>
      <point x="334.1363636363636" y="1156.1969696969697"/>
      <point x="515.5" y="1317.2424242424242"/>
      <point x="793.6969696969697" y="1317.2424242424242" type="curve" smooth="yes"/>
      <point x="1071.8939393939395" y="1317.2424242424242"/>
      <point x="1253.2575757575758" y="1154.4242424242425"/>
      <point x="1253.2575757575758" y="734.4242424242424" type="curve" smooth="yes"/>
      <point x="1253.2575757575758" y="325.57575757575756"/>
      <point x="1073.6666666666667" y="162.75757575757575"/>
    </contour>
    <contour>
      <point x="961.060606060606" y="1653.5757575757575" type="curve" smooth="yes"/>
      <point x="1047.1818181818182" y="1653.5757575757575"/>
      <point x="1106.7878787878788" y="1674.969696969697"/>
      <point x="1154.3333333333335" y="1719.590909090909" type="curve"/>
      <point x="1154.3333333333335" y="1852.090909090909" type="line"/>
      <point x="1098.1969696969697" y="1805.0757575757575"/>
      <point x="1044.0757575757575" y="1782.969696969697"/>
      <point x="965.0" y="1782.969696969697" type="curve" smooth="yes"/>
      <point x="852.439393939394" y="1782.969696969697"/>
      <point x="758.7121212121212" y="1858.3636363636363"/>
      <point x="626.3333333333334" y="1858.3636363636363" type="curve" smooth="yes"/>
      <point x="540.2121212121212" y="1858.3636363636363"/>
      <point x="480.6060606060606" y="1836.1818181818182"/>
      <point x="433.06060606060606" y="1791.560606060606" type="curve"/>
      <point x="433.06060606060606" y="1659.060606060606" type="line"/>
      <point x="489.1969696969697" y="1706.0757575757575"/>
      <point x="543.3181818181818" y="1728.1818181818182"/>
      <point x="622.3939393939394" y="1728.1818181818182" type="curve" smooth="yes"/>
      <point x="734.9545454545455" y="1728.1818181818182"/>
      <point x="828.6818181818182" y="1653.5757575757575"/>
    </contour>
  </outline>
</glyph>
<glyph name="Odieresis" format="2">
  <advance width="1587.3939393939395"/>
  <unicode hex="00D6"/>
  <anchor x="793.6969696969697" y="1520.0" name="_top"/>
  <anchor x="793.6969696969697" y="0.0" name="bottom"/>
  <anchor x="793.6969696969697" y="740.0" name="center"/>
  <anchor x="962.3181818181818" y="0.0" name="ogonek"/>
  <anchor x="793.6969696969697" y="1520.0" name="top"/>
  <anchor x="50.348484848484844" y="1480.0" name="topleft"/>
  <anchor x="981.8939393939394" y="1480.0" name="topright"/>
  <outline>
    <contour>
      <point x="793.6969696969697" y="-18.78787878787879" type="curve" smooth="yes"/>
      <point x="1204.651515151515" y="-18.78787878787879"/>
      <point x="1479.6818181818182" y="223.16666666666666"/>
      <point x="1479.6818181818182" y="740.0" type="curve" smooth="yes"/>
      <point x="1479.6818181818182" y="1256.8333333333333"/>
      <point x="1207.969696969697" y="1498.7878787878788"/>
      <point x="793.6969696969697" y="1498.7878787878788" type="curve" smooth="yes"/>
      <point x="382.1515151515151" y="1498.7878787878788"/>
      <point x="107.71212121212122" y="1258.0151515151515"/>
      <point x="107.71212121212122" y="740.0" type="curve" smooth="yes"/>
      <point x="107.71212121212122" y="221.9848484848485"/>
      <point x="380.0151515151515" y="-18.78787878787879"/>
    </contour>
    <contour>
      <point x="793.6969696969697" y="162.75757575757575" type="curve" smooth="yes"/>
      <point x="513.7272727272727" y="162.75757575757575"/>
      <point x="334.1363636363636" y="323.8030303030303"/>
      <point x="334.1363636363636" y="745.5757575757576" type="curve" smooth="yes"/>
      <point x="334.1363636363636" y="1156.1969696969697"/>
      <point x="515.5" y="1317.2424242424242"/>
      <point x="793.6969696969697" y="1317.2424242424242" type="curve" smooth="yes"/>
      <point x="1071.8939393939395" y="1317.2424242424242"/>
      <point x="1253.2575757575758" y="1154.4242424242425"/>
      <point x="1253.2575757575758" y="734.4242424242424" type="curve" smooth="yes"/>
      <point x="1253.2575757575758" y="325.57575757575756"/>
      <point x="1073.6666666666667" y="162.75757575757575"/>
    </contour>
    <contour>
      <point x="1051.2272727272727" y="1642.7272727272727" type="curve" smooth="yes"/>
      <point x="1133.3181818181818" y="1642.7272727272727"/>
      <point x="1176.651515151515" y="1683.6666666666667"/>
      <point x="1176.651515151515" y="1751.2121212121212" type="curve" smooth="yes"/>
      <point x="1176.651515151515" y="1818.7575757575758"/>
      <point x="1133.3181818181818" y="1860.909090909091"/>
      <point x="1051.2272727272727" y="1860.909090909091" type="curve" smooth="yes"/>
      <point x="969.1363636363636" y="1860.909090909091"/>
      <point x="925.8030303030303" y="1818.7575757575758"/>
      <point x="925.8030303030303" y="1751.2121212121212" type="curve" smooth="yes"/>
      <point x="925.8030303030303" y="1683.6666666666667"/>
      <point x="969.1363636363636" y="1642.7272727272727"/>
    </contour>
    <contour>
      <point x="536.1666666666666" y="1642.7272727272727" type="curve" smooth="yes"/>
      <point x="618.2575757575758" y="1642.7272727272727"/>
      <point x="661.590909090909" y="1683.6666666666667"/>
      <point x="661.590909090909" y="1751.2121212121212" type="curve" smooth="yes"/>
      <point x="661.590909090909" y="1818.7575757575758"/>
      <point x="618.2575757575758" y="1860.909090909091"/>
      <point x="536.1666666666666" y="1860.909090909091" type="curve" smooth="yes"/>
      <point x="454.07575757575756" y="1860.909090909091"/>
      <point x="410.74242424242425" y="1818.7575757575758"/>
      <point x="410.74242424242425" y="1751.2121212121212" type="curve" smooth="yes"/>
      <point x="410.74242424242425" y="1683.6666666666667"/>
      <point x="454.07575757575756" y="1642.7272727272727"/>
    </contour>
  </outline>
</glyph>
<glyph name="multiply" format="2">
  <advance width="1032.5454545454545"/>
  <unicode hex="00D7"/>
  <outline>
    <contour>
      <point x="232.6969696969697" y="357.969696969697" type="line"/>
      <point x="516.2727272727273" y="641.5454545454545" type="line"/>
      <point x="799.8484848484849" y="357.969696969697" type="line"/>
      <point x="918.3030303030303" y="476.42424242424244" type="line"/>
      <point x="634.7272727272727" y="760.0" type="line"/>
      <point x="918.3030303030303" y="1043.5757575757575" type="line"/>
      <point x="799.8484848484849" y="1162.030303030303" type="line"/>
      <point x="516.2727272727273" y="878.4545454545455" type="line"/>
      <point x="232.6969696969697" y="1162.030303030303" type="line"/>
      <point x="114.24242424242425" y="1043.5757575757575" type="line"/>
      <point x="397.8181818181818" y="760.0" type="line"/>
      <point x="114.24242424242425" y="476.42424242424244" type="line"/>
    </contour>
  </outline>
</glyph>
<glyph name="Uacute" format="2">
  <advance width="1534.8333333333333"/>
  <unicode hex="00DA"/>
  <anchor x="769.6969696969697" y="1520.0" name="_top"/>
  <anchor x="769.6969696969697" y="0.0" name="bottom"/>
  <anchor x="957.7121212121212" y="1.8181818181818183" name="ogonek"/>
  <anchor x="769.6969696969697" y="1520.0" name="top"/>
  <anchor x="1162.5454545454545" y="1480.0" name="topright"/>
  <outline>
    <contour>
      <point x="769.6969696969697" y="-18.78787878787879" type="curve" smooth="yes"/>
      <point x="1186.1969696969697" y="-18.78787878787879"/>
      <point x="1371.939393939394" y="180.36363636363637"/>
      <point x="1371.939393939394" y="596.3484848484849" type="curve" smooth="yes"/>
      <point x="1371.939393939394" y="1480.0" type="line"/>
      <point x="1155.8484848484848" y="1480.0" type="line"/>
      <point x="1155.8484848484848" y="574.7272727272727" type="line" smooth="yes"/>
      <point x="1155.8484848484848" y="288.1818181818182"/>
      <point x="1032.909090909091" y="164.6060606060606"/>
      <point x="769.6969696969697" y="164.6060606060606" type="curve" smooth="yes"/>
      <point x="506.4848484848485" y="164.6060606060606"/>
      <point x="383.3484848484849" y="288.1818181818182"/>
      <point x="383.3484848484849" y="574.7272727272727" type="curve" smooth="yes"/>
      <point x="383.3484848484849" y="1480.0" type="line"/>
      <point x="162.8939393939394" y="1480.0" type="line"/>
      <point x="162.8939393939394" y="596.3484848484849" type="line" smooth="yes"/>
      <point x="162.8939393939394" y="180.36363636363637"/>
      <point x="349.8484848484849" y="-18.78787878787879"/>
    </contour>
    <contour>
      <point x="668.9242424242424" y="1604.1818181818182" type="line"/>
      <point x="868.1060606060606" y="1604.1818181818182" type="line"/>
      <point x="1099.030303030303" y="1893.5151515151515" type="line"/>
      <point x="865.4545454545455" y="1893.5151515151515" type="line"/>
    </contour>
  </outline>
</glyph>
<glyph name="Ucircumflex" format="2">
  <advance width="1534.8333333333333"/>
  <unicode hex="00DB"/>
  <anchor x="769.6969696969697" y="1520.0" name="_top"/>
  <anchor x="769.6969696969697" y="0.0" name="bottom"/>
  <anchor x="957.7121212121212" y="1.8181818181818183" name="ogonek"/>
  <anchor x="769.6969696969697" y="1520.0" name="top"/>
  <anchor x="1162.5454545454545" y="1480.0" name="topright"/>
  <outline>
    <contour>
      <point x="769.6969696969697" y="-18.78787878787879" type="curve" smooth="yes"/>
      <point x="1186.1969696969697" y="-18.78787878787879"/>
      <point x="1371.939393939394" y="180.36363636363637"/>
      <point x="1371.939393939394" y="596.3484848484849" type="curve" smooth="yes"/>
      <point x="1371.939393939394" y="1480.0" type="line"/>
      <point x="1155.8484848484848" y="1480.0" type="line"/>
      <point x="1155.8484848484848" y="574.7272727272727" type="line" smooth="yes"/>
      <point x="1155.8484848484848" y="288.1818181818182"/>
      <point x="1032.909090909091" y="164.6060606060606"/>
      <point x="769.6969696969697" y="164.6060606060606" type="curve" smooth="yes"/>
      <point x="506.4848484848485" y="164.6060606060606"/>
      <point x="383.3484848484849" y="288.1818181818182"/>
      <point x="383.3484848484849" y="574.7272727272727" type="curve" smooth="yes"/>
      <point x="383.3484848484849" y="1480.0" type="line"/>
      <point x="162.8939393939394" y="1480.0" type="line"/>
      <point x="162.8939393939394" y="596.3484848484849" type="line" smooth="yes"/>
      <point x="162.8939393939394" y="180.36363636363637"/>
      <point x="349.8484848484849" y="-18.78787878787879"/>
    </contour>
    <contour>
      <point x="398.1969696969697" y="1604.1818181818182" type="line"/>
      <point x="583.3787878787879" y="1604.1818181818182" type="line"/>
      <point x="792.4848484848485" y="1829.9545454545455" type="line"/>
      <point x="746.9090909090909" y="1829.9545454545455" type="line"/>
      <point x="956.0151515151515" y="1604.1818181818182" type="line"/>
      <point x="1141.1969696969697" y="1604.1818181818182" type="line"/>
      <point x="865.4090909090909" y="1893.5151515151515" type="line"/>
      <point x="673.9848484848485" y="1893.5151515151515" type="line"/>
    </contour>
  </outline>
</glyph>
<glyph name="Yacute" format="2">
  <advance width="1283.378787878788"/>
  <unicode hex="00DD"/>
  <anchor x="641.3939393939394" y="1520.0" name="_top"/>
  <anchor x="641.1969696969697" y="0.0" name="bottom"/>
  <anchor x="641.3939393939394" y="1520.0" name="top"/>
  <anchor x="8.106060606060606" y="1480.0" name="topleft"/>
  <outline>
    <contour>
      <point x="532.7424242424242" y="0.0" type="line"/>
      <point x="753.1969696969697" y="0.0" type="line"/>
      <point x="753.1969696969697" y="733.2878787878788" type="line"/>
      <point x="706.6212121212121" y="578.1363636363636" type="line"/>
      <point x="1307.4545454545455" y="1480.0" type="line"/>
      <point x="1082.4545454545455" y="1480.0" type="line"/>
      <point x="611.7878787878788" y="778.469696969697" type="line"/>
      <point x="683.060606060606" y="778.469696969697" type="line"/>
      <point x="205.09090909090907" y="1480.0" type="line"/>
      <point x="-35.42424242424242" y="1480.0" type="line"/>
      <point x="579.3181818181818" y="578.1363636363636" type="line"/>
      <point x="532.7424242424242" y="735.6515151515151" type="line"/>
    </contour>
    <contour>
      <point x="540.6212121212121" y="1604.1818181818182" type="line"/>
      <point x="739.8030303030303" y="1604.1818181818182" type="line"/>
      <point x="970.7272727272727" y="1893.5151515151515" type="line"/>
      <point x="737.1515151515151" y="1893.5151515151515" type="line"/>
    </contour>
  </outline>
</glyph>
